<?xml version="1.0" encoding="UTF-8"?><svg id="Layer_2" xmlns="http://www.w3.org/2000/svg" xmlns:xlink="http://www.w3.org/1999/xlink" viewBox="0 0 74.32 24.99"><defs><clipPath id="clippath"><rect width="74.32" height="24.99" style="fill:none;"/></clipPath><clipPath id="clippath-1"><path d="M89.27,12.49c0,29.43-23.35,53.31-52.12,53.31S-14.96,41.91-14.96,12.49,8.39-40.82,37.16-40.82s52.12,23.88,52.12,53.31" style="clip-rule:evenodd; fill:none;"/></clipPath><clipPath id="clippath-2"><rect x="-397.62" y="-1159.52" width="1133.86" height="4195.28" style="fill:none;"/></clipPath><clipPath id="clippath-3"><rect x="-397.6" y="-1159.54" width="1133.85" height="4195.29" style="fill:none;"/></clipPath></defs><g id="Layer_1-2"><g style="clip-path:url(#clippath);"><g style="clip-path:url(#clippath-1);"><g style="clip-path:url(#clippath-2);"><g style="clip-path:url(#clippath-3);"><path d="M73.16.4H1.04c-.35,0-.64.28-.64.64v22.92c0,.35.28.64.64.64h72.12c.42,0,.76-.34.76-.76V1.16c0-.42-.34-.76-.76-.76Z" style="fill:none; stroke:#fff; stroke-miterlimit:10; stroke-width:.8px;"/><rect x="54.42" y="3.86" width="1.55" height="6.68" style="fill:#fff;"/><path d="M19.92,11.56v9.21c0,.36-.14.72-.39.98l-1.09,1.16H5.46l1.08-1.16c.25-.27.39-.62.39-.98V2.02h12.98v9.54Z" style="fill:none; stroke:#fff; stroke-miterlimit:10; stroke-width:.8px;"/><polygon points="37.86 16.72 33.6 16.72 35.61 14.69 26.86 14.69 26.86 10.65 35.93 10.65 33.6 8.26 37.86 8.26 42.02 12.52 37.86 16.72" style="fill:none; stroke:#fff; stroke-miterlimit:10; stroke-width:.8px;"/><polyline points="48.68 3.86 53.38 3.86 53.38 5.05 50.24 5.05 50.24 6.66 52.91 6.66 52.91 7.85 50.24 7.85 50.24 10.54 48.68 10.54 48.68 3.86" style="fill:#fff;"/><polyline points="53.56 14.45 50.46 14.45 50.46 15.89 53.08 15.89 53.08 17.08 50.46 17.08 50.46 18.75 53.55 18.75 53.55 19.94 48.9 19.94 48.9 13.26 53.56 13.26 53.56 14.45" style="fill:#fff;"/><polyline points="58.09 19.94 56.96 17.64 55.82 19.94 54.03 19.94 55.99 16.57 54.08 13.26 55.85 13.26 56.94 15.51 58.04 13.26 59.83 13.26 57.92 16.57 59.98 19.94 58.09 19.94" style="fill:#fff;"/><rect x="60.83" y="13.26" width="1.55" height="6.68" style="fill:#fff;"/><polyline points="68.29 14.45 66.53 14.45 66.53 19.94 64.97 19.94 64.97 14.45 63.22 14.45 63.22 13.26 68.29 13.26 68.29 14.45" style="fill:#fff;"/><polyline points="68.45 5.05 65.35 5.05 65.35 6.49 67.97 6.49 67.97 7.68 65.35 7.68 65.35 9.35 68.44 9.35 68.44 10.54 63.8 10.54 63.8 3.86 68.45 3.86 68.45 5.05" style="fill:#fff;"/><path d="M16.04,6.58c.81-.35,1.18-1.28.83-2.09-.35-.81-1.28-1.18-2.09-.83-.81.35-1.18,1.28-.83,2.09.35.81,1.28,1.18,2.09.83" style="fill:#fff;"/><path d="M15.61,8.37c.06-.27-.05-.55-.28-.71l-1.28-.89c-.17-.12-.38-.15-.58-.1l-3.4.98c-.26.07-.45.29-.49.56l-.48,3.27c-.05.38.21.72.58.78.38.06.72-.2.78-.58l.42-2.84,1.57-.45-.55,3.72c-.02.17.01.33.1.47l3.95,6.09,1.03,1.84c.15.27.43.42.72.42.14,0,.27-.03.4-.1.4-.22.54-.73.32-1.12l-3.78-6.75.98-4.6" style="fill:#fff;"/><path d="M10.6,15.77l-2.04-.34c-.45-.08-.88.23-.95.68-.08.45.23.87.67.95l2.68.45c.15.03.3,0,.44-.04.2-.08.37-.24.46-.45l1.1-1.64-1.35-2-1.01,2.4" style="fill:#fff;"/><path d="M17.64,10.18l-1.52-1.35-.33,1.62,1.19.95c.12.1.27.15.43.15h2.52v-1.37h-2.27" style="fill:#fff;"/><path d="M17.58,21.44c-.1-.1-.23-.17-.36-.21-.28-.08-.59,0-.81.21l-1.61,1.46h2.48l.3-.3c.32-.32.32-.84,0-1.17" style="fill:#fff;"/><path d="M62.6,9.97c-.05-.22-.08-.42-.08-.6v-.42c0-.4-.09-.74-.27-1.01-.18-.27-.47-.46-.88-.58.36-.16.62-.36.81-.61.18-.25.27-.54.27-.89,0-.62-.23-1.11-.68-1.47-.45-.36-1.07-.54-1.84-.54h-2.57v6.68h1.55v-2.56h1.07c.32,0,.57.08.74.25.17.17.25.41.25.73v.4c0,.2.02.43.06.67.04.24.12.41.24.5h1.6v-.09c-.13-.1-.22-.25-.27-.48M60.65,6.57c-.17.14-.4.21-.72.21h-1.02v-1.73h1.02c.31,0,.55.08.72.25.17.17.26.39.26.66s-.08.47-.25.61Z" style="fill:#fff;"/></g></g></g></g></g></svg>