<?xml version="1.0" encoding="UTF-8"?><svg id="Layer_2" xmlns="http://www.w3.org/2000/svg" xmlns:xlink="http://www.w3.org/1999/xlink" viewBox="0 0 51.55 52.18"><defs><clipPath id="clippath"><rect width="51.55" height="52.18" style="fill:none;"/></clipPath><clipPath id="clippath-1"><path d="M77.9,26.09c0,29.43-23.35,53.31-52.12,53.31S-26.33,55.51-26.33,26.09-2.99-27.23,25.78-27.23,77.9-3.34,77.9,26.09" style="clip-rule:evenodd; fill:none;"/></clipPath><clipPath id="clippath-2"><rect x="-145.28" y="-1145.93" width="1133.86" height="4195.28" style="fill:none;"/></clipPath><clipPath id="clippath-3"><rect x="-145.26" y="-1145.94" width="1133.85" height="4195.29" style="fill:none;"/></clipPath></defs><g id="Layer_1-2"><g style="clip-path:url(#clippath);"><g style="clip-path:url(#clippath-1);"><g style="clip-path:url(#clippath-2);"><g style="clip-path:url(#clippath-3);"><path d="M32.12,9.96c-2.95-2.95-6.87-4.57-11.04-4.57s-8.09,1.62-11.04,4.57c-2.95,2.95-4.57,6.87-4.57,11.04s1.62,8.09,4.57,11.04c2.95,2.95,6.87,4.57,11.04,4.57s8.09-1.62,11.04-4.57c2.95-2.95,4.57-6.87,4.57-11.04s-1.62-8.09-4.57-11.04M31.31,31.22c-2.73,2.73-6.36,4.24-10.23,4.24s-7.49-1.5-10.22-4.24c-2.73-2.73-4.24-6.36-4.24-10.22s1.5-7.49,4.24-10.22c2.82-2.82,6.52-4.23,10.22-4.23s7.41,1.41,10.23,4.23c2.73,2.73,4.23,6.36,4.23,10.22s-1.5,7.49-4.23,10.22Z" style="fill:#fff;"/><path d="M51.03,44.6l-11.99-10.95c-.52-.48-1.28-.55-1.87-.22l-2.01-2.01c2.23-3,3.44-6.62,3.44-10.42,0-4.68-1.82-9.07-5.13-12.38-3.31-3.31-7.7-5.13-12.38-5.13s-9.07,1.82-12.38,5.13c-3.31,3.31-5.13,7.7-5.13,12.38s1.82,9.07,5.13,12.38c3.31,3.31,7.7,5.13,12.38,5.13,3.8,0,7.42-1.21,10.42-3.44l2.01,2.01c-.33.59-.26,1.35.22,1.87l10.95,11.99c.3.33.71.52,1.15.52h.04c.43,0,.83-.17,1.14-.47l4.06-4.06c.32-.31.48-.73.47-1.18-.01-.45-.2-.86-.53-1.16M9.52,32.56c-3.09-3.09-4.79-7.2-4.79-11.56s1.7-8.48,4.79-11.56c3.09-3.09,7.2-4.79,11.56-4.79s8.48,1.7,11.56,4.79c3.09,3.09,4.79,7.2,4.79,11.56s-1.7,8.48-4.79,11.56c-6.38,6.38-16.75,6.38-23.13,0ZM32.41,34.35c.36-.31.71-.63,1.05-.97.34-.34.66-.69.97-1.05l1.87,1.87-2.02,2.02-1.87-1.87ZM50.26,46.12l-4.06,4.06c-.09.09-.21.14-.33.13-.13,0-.24-.06-.33-.15l-10.95-11.99c-.17-.18-.16-.46.01-.63l3.02-3.02c.09-.09.21-.14.32-.14.11,0,.22.04.31.12l11.99,10.95c.09.08.15.2.15.33,0,.13-.04.25-.13.33Z" style="fill:#fff;"/><path d="M6.13,8.59c0-.32-.26-.58-.58-.58H.58c-.32,0-.58.26-.58.58s.26.58.58.58h4.98c.32,0,.58-.26.58-.58" style="fill:#fff;"/><path d="M8.59,6.13c.32,0,.58-.26.58-.58V.58C9.17.26,8.91,0,8.59,0s-.58.26-.58.58v4.98c0,.32.26.58.58.58" style="fill:#fff;"/><path d="M5.01,5.83c.11.11.26.17.41.17s.29-.06.41-.17c.23-.23.23-.59,0-.82L2.36,1.54c-.23-.23-.59-.23-.82,0-.23.23-.23.59,0,.82l3.47,3.47" style="fill:#fff;"/><path d="M26.34,1.92h21.65v30.92c0,.32.26.58.58.58s.58-.26.58-.58V1.34c0-.32-.26-.58-.58-.58h-22.22c-.32,0-.58.26-.58.58s.26.58.58.58" style="fill:#fff;"/><path d="M39.17,51.02H4.69v-15.35c0-.32-.26-.58-.58-.58s-.58.26-.58.58v15.93c0,.32.26.58.58.58h35.06c.32,0,.58-.26.58-.58s-.26-.58-.58-.58" style="fill:#fff;"/><path d="M45.18,13.74h-3.65c-.32,0-.58.26-.58.58s.26.58.58.58h3.65c.32,0,.58-.26.58-.58s-.26-.58-.58-.58" style="fill:#fff;"/><path d="M45.18,19.34h-3.65c-.32,0-.58.26-.58.58s.26.58.58.58h3.65c.32,0,.58-.26.58-.58s-.26-.58-.58-.58" style="fill:#fff;"/><path d="M45.18,24.95h-3.65c-.32,0-.58.26-.58.58s.26.58.58.58h3.65c.32,0,.58-.26.58-.58s-.26-.58-.58-.58" style="fill:#fff;"/><path d="M17.66,44.01c0-2.89-2.35-5.24-5.24-5.24s-5.24,2.35-5.24,5.24,2.35,5.24,5.24,5.24,5.24-2.35,5.24-5.24M8.34,44.01c0-2.25,1.83-4.08,4.08-4.08s4.08,1.83,4.08,4.08-1.83,4.08-4.08,4.08-4.08-1.83-4.08-4.08Z" style="fill:#fff;"/><path d="M23.48,45.62c0,.29.23.53.52.53h7.77c.29,0,.53-.24.53-.53s-.24-.53-.53-.53h-7.77c-.29,0-.52.24-.52.53" style="fill:#fff;"/><path d="M19.34,46.15h2.29c.29,0,.52-.24.52-.53s-.24-.52-.52-.52h-2.29c-.29,0-.53.23-.53.52s.24.53.53.53" style="fill:#fff;"/><path d="M27.11,41.87h-7.77c-.29,0-.52.24-.52.53s.24.52.52.52h7.77c.29,0,.52-.23.52-.52s-.24-.53-.52-.53" style="fill:#fff;"/><path d="M31.77,42.92c.29,0,.52-.23.52-.52s-.24-.53-.52-.53h-2.29c-.29,0-.52.24-.52.53s.24.52.52.52h2.29" style="fill:#fff;"/><path d="M45.76,5.87c0-.32-.26-.58-.58-.58h-6.21c-.32,0-.58.26-.58.58v2.72c0,.32.26.58.58.58h6.21c.32,0,.58-.26.58-.58v-2.72M44.6,8.01h-5.06v-1.56h5.06v1.56Z" style="fill:#fff;"/><path d="M13.81,45.99c.15,0,.31-.06.42-.18.24-.23.24-.61,0-.85l-.96-.96.96-.95c.24-.23.24-.61,0-.85-.23-.23-.61-.23-.85,0l-.96.96-.96-.96c-.23-.23-.61-.23-.85,0-.23.23-.23.61,0,.85l.96.95-.96.96c-.23.23-.23.61,0,.85.12.12.27.18.42.18s.31-.06.42-.18l.96-.96.96.96c.12.12.27.18.42.18" style="fill:#fff;"/><path d="M21.08,26.95c-.87,0-1.68.44-2.15,1.17-.27.41-.42.89-.42,1.39,0,.11,0,.21.02.31.12.98.8,1.81,1.74,2.12.26.09.53.13.81.13,1.29,0,2.39-.97,2.54-2.25.01-.1.02-.2.02-.31,0-1.41-1.15-2.56-2.56-2.56M22.43,29.66h0c-.08.7-.66,1.21-1.35,1.21-.15,0-.29-.02-.42-.07h0c-.5-.17-.86-.61-.92-1.13h0c0-.06,0-.11,0-.17,0-.27.07-.52.22-.73h0c.25-.4.67-.63,1.14-.63.75,0,1.36.61,1.36,1.36,0,.06,0,.11,0,.15Z" style="fill:#fff;"/><path d="M22.74,10.52c-.68-.59-1.4-.6-1.66-.58-.14-.01-.41-.01-.74.08-.62.17-1.46.68-1.92,2.12-.49,1.51-.45,3.78.11,6.74.34,1.79.87,3.86,1.58,6.15.13.44.52.73.97.73s.84-.29.97-.73c.1-.33.2-.66.29-.94,1.09-3.67,1.68-6.68,1.74-8.95.06-2.25-.39-3.8-1.33-4.62M22.87,15.1h0c-.06,2.17-.62,5.07-1.69,8.64-.03.11-.07.23-.11.36-.61-2.02-1.07-3.85-1.37-5.45-1.2-6.36.43-7.33.96-7.48.12-.03.21-.04.27-.04.02,0,.04,0,.05,0l.08.02.11-.02s.39-.04.77.29c.64.55.97,1.86.92,3.68Z" style="fill:#fff;"/></g></g></g></g></g></svg>