<?xml version="1.0" encoding="UTF-8"?><svg id="Layer_2" xmlns="http://www.w3.org/2000/svg" xmlns:xlink="http://www.w3.org/1999/xlink" viewBox="0 0 47.93 61.46"><defs><clipPath id="clippath"><rect width="47.93" height="61.46" style="fill:none;"/></clipPath><clipPath id="clippath-1"><path d="M76.09,30.72c0,29.43-23.35,53.31-52.12,53.31S-28.14,60.15-28.14,30.72-4.79-22.59,23.97-22.59,76.09,1.29,76.09,30.72" style="clip-rule:evenodd; fill:none;"/></clipPath><clipPath id="clippath-2"><rect x="-674.53" y="-882.81" width="1133.86" height="4195.28" style="fill:none;"/></clipPath><clipPath id="clippath-3"><rect x="-674.52" y="-882.83" width="1133.85" height="4195.29" style="fill:none;"/></clipPath></defs><g id="Layer_1-2"><g style="clip-path:url(#clippath);"><g style="clip-path:url(#clippath-1);"><g style="clip-path:url(#clippath-2);"><g style="clip-path:url(#clippath-3);"><path d="M43.36,7.95H4.57c-.34,0-.66-.18-.84-.48L.14,1.48C-.14,1.02.01.42.48.14.63.05.8,0,.98,0h45.98c.54,0,.98.44.98.98,0,.18-.05.35-.14.5l-3.59,5.99c-.18.29-.49.48-.84.48M5.13,5.99h37.68l2.42-4.03H2.71l2.42,4.03Z" style="fill:#fff;"/><path d="M38.53,13.61H9.4c-2.06,0-3.73-1.67-3.73-3.73v-2.91c0-.54.44-.98.98-.98s.98.44.98.98v2.91c0,.98.8,1.77,1.77,1.77h29.13c.98,0,1.77-.79,1.77-1.77v-2.91c0-.54.44-.98.98-.98s.98.44.98.98v2.91c0,2.06-1.67,3.73-3.73,3.73" style="fill:#fff;"/><path d="M12.7,10.78h-.89c-.54,0-.98-.44-.98-.98s.44-.98.98-.98h.89c.54,0,.98.44.98.98s-.44.98-.98.98" style="fill:#fff;"/><path d="M20.51,10.78h-.89c-.54,0-.98-.44-.98-.98s.44-.98.98-.98h.89c.54,0,.98.44.98.98s-.44.98-.98.98" style="fill:#fff;"/><path d="M28.32,10.78h-.89c-.54,0-.98-.44-.98-.98s.44-.98.98-.98h.89c.54,0,.98.44.98.98s-.44.98-.98.98" style="fill:#fff;"/><path d="M36.12,10.78h-.89c-.54,0-.98-.44-.98-.98s.44-.98.98-.98h.89c.54,0,.98.44.98.98s-.44.98-.98.98" style="fill:#fff;"/><path d="M30.85,22.53c-.54,0-.98-.44-.98-.98,0-.06,0-.12.02-.18l1.42-7.76h-14.68l1.42,7.74c.08.54-.28,1.04-.82,1.12-.52.08-1-.26-1.11-.77l-1.63-8.89c-.1-.53.26-1.04.79-1.14.06-.01.12-.02.18-.02h17.03c.54,0,.98.44.98.98,0,.06,0,.12-.02.18l-1.63,8.91c-.08.47-.49.8-.96.8" style="fill:#fff;"/><path d="M23.97,24.47c-1.93,0-3.76-.22-5.15-.61-1.82-.51-2.74-1.29-2.74-2.32s.92-1.81,2.74-2.32c1.39-.39,3.22-.61,5.15-.61s3.76.22,5.15.61c1.82.51,2.74,1.29,2.74,2.32s-.92,1.81-2.74,2.32c-1.39.39-3.22.6-5.15.6M18.23,21.55c.26.15.75.36,1.57.55,1.16.27,2.64.42,4.17.42s3.01-.15,4.17-.42c.82-.19,1.3-.4,1.57-.55-.26-.15-.75-.36-1.57-.55-1.16-.27-2.64-.42-4.17-.42s-3.01.15-4.17.42c-.82.19-1.3.4-1.57.55Z" style="fill:#fff;"/><path d="M23.81,61.46c-.98,0-1.96-.16-2.89-.47-2.43-.8-4.45-2.52-5.62-4.79-1.18-2.27-1.45-4.9-.75-7.36.14-.49.28-.92.4-1.26.08-.23.15-.44.18-.58.4-1.42.04-2.4.04-2.4-.2-.5.03-1.07.54-1.28.13-.05.27-.08.41-.07.92.04,1.83.61,2.68,1.69l.02.03c.58-1.15.67-2.19.81-4.88.22-4.27,4.26-6.06,4.43-6.14.5-.22,1.07.01,1.29.51.09.21.1.44.04.66-.85,2.95.68,5,.9,5.28,2.27,2.08,3.38,4.28,3.92,5.92.09-.37.15-.74.19-1.12.06-.54.54-.93,1.07-.88.37.04.68.28.82.62.68,1.82,1.14,3.5,1.36,5.01.3,2-.01,4.05-.9,5.87-.88,1.82-2.31,3.33-4.08,4.31-1.58.88-3.23,1.32-4.87,1.32M17.26,46.15c-.04.47-.12.93-.24,1.38-.05.19-.13.41-.21.67-.11.33-.24.73-.37,1.18-1.18,4.14,1.06,8.42,5.1,9.75,2.05.68,4.13.44,6.2-.71,2.87-1.59,4.48-4.88,3.99-8.18-.07-.5-.18-1.03-.31-1.58-.39.64-.87,1.03-1.44,1.17-.53.13-1.05-.2-1.18-.73-.02-.07-.02-.14-.03-.21,0,0-.03-.95-.52-2.29-.65-1.79-1.77-3.41-3.31-4.81-.03-.03-.05-.05-.08-.08-.08-.1-1.66-1.94-1.67-4.82-.99.94-1.53,2.05-1.59,3.28-.19,3.7-.3,4.77-1.93,7.17-.3.45-.91.57-1.36.26-.14-.1-.25-.22-.33-.37-.2-.39-.44-.75-.71-1.1Z" style="fill:#fff;"/><path d="M21.37,61.04c-.1,0-.21-.02-.31-.05-.03,0-.05-.02-.08-.03-.82-.35-2.67-1.52-2.33-4.92.12-1.15.61-2.22,1.4-3.06.98-1.04,2.62-3.15,2.65-5.64,0-.54.45-.98.99-.97.2,0,.39.06.55.18.19.13,4.57,3.2,4.99,7.35.09.87.09,1.75,0,2.62-.22,2.02-.93,3.45-2.11,4.27-.44.31-1.06.2-1.36-.24-.31-.45-.2-1.06.24-1.36,1.44-1,1.41-4.06,1.29-5.05v-.02c-.2-2-1.72-3.78-2.87-4.86-.57,2.28-2,4.1-2.93,5.08-.49.53-.8,1.2-.88,1.92-.21,2,.61,2.68,1.12,2.91.5.2.75.77.55,1.27-.15.37-.51.62-.91.62h0" style="fill:#fff;"/><path d="M6.41,56.92c-.26,0-.51-.1-.69-.29-4.73-4.73-4.73-12.42,0-17.14.38-.38,1-.38,1.39,0,.38.38.38,1,0,1.39-3.96,3.96-3.96,10.41,0,14.37.38.38.38,1,0,1.39-.18.18-.43.29-.69.29" style="fill:#fff;"/><path d="M9.89,53.45c-.26,0-.51-.1-.69-.29-2.81-2.82-2.81-7.38,0-10.19.38-.39.99-.4,1.39-.03.39.38.4,1,.03,1.39,0,0-.02.02-.03.03-2.05,2.05-2.05,5.37,0,7.42.38.38.38,1,0,1.39-.18.18-.43.29-.69.29h0" style="fill:#fff;"/><path d="M41.53,56.11c-.54,0-.98-.44-.98-.98,0-.26.1-.51.29-.69,3.96-3.97,3.96-10.4,0-14.37-.38-.38-.38-1,0-1.39.38-.38,1-.38,1.39,0,4.73,4.74,4.73,12.41,0,17.14-.18.18-.43.29-.69.29" style="fill:#fff;"/><path d="M38.05,52.64c-.54,0-.98-.44-.98-.98,0-.26.1-.51.29-.69,2.05-2.05,2.05-5.37,0-7.42-.38-.38-.38-1,0-1.39.38-.38,1-.38,1.39,0,2.81,2.82,2.81,7.38,0,10.19-.18.18-.43.29-.69.29" style="fill:#fff;"/><path d="M16.08,26.76c-.54,0-.98-.44-.98-.98,0-.21.07-.41.19-.58l.02-.03c.31-.44.92-.55,1.36-.24s.55.92.24,1.36c0,.01-.02.02-.02.03l-.02.03c-.18.25-.48.4-.79.4" style="fill:#fff;"/><path d="M10.68,34.13c-.54,0-.98-.44-.98-.99,0-.21.07-.41.19-.57l.04-.05c.33-.43.94-.52,1.37-.19.43.32.52.92.21,1.35l-.04.05c-.18.25-.48.4-.79.4M13.38,30.45c-.54,0-.98-.44-.98-.98,0-.21.07-.41.19-.58l.04-.05c.33-.43.94-.52,1.37-.2.42.32.52.92.21,1.35l-.04.05c-.18.25-.48.4-.79.4Z" style="fill:#fff;"/><path d="M8,37.79c-.54,0-.98-.44-.98-.98,0-.21.07-.41.19-.58l.02-.03c.31-.44.92-.55,1.36-.24.44.31.55.92.24,1.36,0,.01-.02.02-.02.03l-.02.03c-.18.25-.48.4-.79.4" style="fill:#fff;"/><path d="M31.86,26.76c-.31,0-.61-.15-.79-.4l-.02-.03c-.33-.43-.25-1.04.18-1.37.43-.33,1.04-.25,1.37.18l.02.03.02.03c.32.44.22,1.05-.21,1.37-.17.12-.37.19-.58.19" style="fill:#fff;"/><path d="M37.25,34.13c-.31,0-.61-.15-.79-.4l-.04-.05c-.31-.44-.21-1.05.23-1.37.43-.31,1.03-.22,1.35.21l.04.05c.32.44.22,1.05-.21,1.37-.17.12-.37.19-.58.19M34.55,30.45c-.31,0-.61-.15-.79-.4l-.04-.05c-.32-.44-.22-1.05.21-1.37.44-.32,1.05-.22,1.37.21l.04.05c.32.44.22,1.05-.21,1.37-.17.12-.37.19-.58.19Z" style="fill:#fff;"/><path d="M39.93,37.79c-.31,0-.61-.15-.79-.4l-.02-.03c-.33-.43-.25-1.04.18-1.37.43-.33,1.04-.25,1.37.18l.02.03.02.03c.32.44.22,1.05-.21,1.37-.17.12-.37.19-.58.19" style="fill:#fff;"/></g></g></g></g></g></svg>