<?xml version="1.0" encoding="UTF-8"?><svg id="Layer_2" xmlns="http://www.w3.org/2000/svg" xmlns:xlink="http://www.w3.org/1999/xlink" viewBox="0 0 60 60"><defs><clipPath id="clippath"><rect width="60" height="60" style="fill:none;"/></clipPath><clipPath id="clippath-1"><path d="M82.12,29.98c0,29.43-23.35,53.31-52.12,53.31S-22.11,59.41-22.11,29.98,1.24-23.33,30.01-23.33,82.12.56,82.12,29.98" style="clip-rule:evenodd; fill:none;"/></clipPath><clipPath id="clippath-2"><rect x="-668.5" y="-1142.03" width="1133.86" height="4195.28" style="fill:none;"/></clipPath><clipPath id="clippath-3"><rect x="-668.48" y="-1142.04" width="1133.85" height="4195.29" style="fill:none;"/></clipPath></defs><g id="Layer_1-2"><g style="clip-path:url(#clippath);"><g style="clip-path:url(#clippath-1);"><g style="clip-path:url(#clippath-2);"><g style="clip-path:url(#clippath-3);"><path d="M28.33,28.27c0-1.18.48-1.77,1.44-1.77.08,0,.18,0,.33.02v-1.56c-.13-.02-.24-.03-.34-.03-.8,0-1.36.49-1.67,1.46v-1.39h-1.73v5.73h1.97v-2.47" style="fill:#fff;"/><path d="M34.28,36.87c1.69.49,3.09,1.24,3.97,2.13.21.22.78.86,1.26,1.42,2.19,2.58,4.22,3.79,6.91,4.11.62.07,2.03.02,2.75-.1,1.56-.27,3.53-1.07,4.19-1.69.14-.13.13-.13-.19-.21-1.41-.3-3.33-.97-4.64-1.61-1.16-.56-2.02-1.13-2.74-1.82-2.1-2-3.54-2.98-5.23-3.57-2.27-.79-4.51-.57-6.62.64-.33.19-.58.36-.57.39.01.03.42.17.91.3" style="fill:#fff;"/><path d="M37.27,16.42c1.6,1.3,2.13,2.3,2.72,5.08.52,2.44,1.03,3.6,2.24,5.09,1.69,2.07,3.64,3.47,5.6,4.02.28.08.72.18.98.23.64.12,2.06.12,2.83,0,.72-.11,1.84-.36,1.83-.42,0-.02-.33-.22-.71-.45-1.65-.95-3.37-2.31-4.38-3.46-.87-.99-1.83-2.47-2.32-3.61-.11-.25-.37-.85-.59-1.35-.83-1.93-1.66-3.14-2.9-4.19-1.5-1.28-2.89-1.75-4.99-1.69-.55.01-1.03.05-1.05.07-.02.02.3.32.72.67" style="fill:#fff;"/><path d="M20.5,25.68c-.53.52-.79,1.28-.79,2.28,0,.88.25,1.58.75,2.11.5.53,1.23.79,2.19.79,1.56,0,2.49-.67,2.8-2l-1.76-.09c-.07.65-.41.98-1.01.98-.28,0-.5-.09-.68-.26-.17-.17-.26-.52-.26-1.03v-.32h3.7c0-1.24-.27-2.09-.81-2.55-.54-.46-1.21-.7-2.01-.7-.89,0-1.6.26-2.13.79M23.59,27.05s0,.09,0,.16h-1.83c0-.84.31-1.27.91-1.27s.92.37.92,1.11Z" style="fill:#fff;"/><path d="M52.61,27.21c.37.21.71.38.76.38.08,0,.1-.67.11-3.15l.02-3.16-.54-.24c-.94-.42-2.11-1.47-3.01-2.71-.86-1.19-1.84-3.07-2.47-4.76-.16-.42-.3-.78-.31-.8-.11-.13-.64,1.7-.81,2.84-.16,1.09-.11,3.04.11,3.96.76,3.15,2.91,5.83,6.14,7.65" style="fill:#fff;"/><path d="M53.36,45.28c-1.62.57-3.69.86-5.67.79-1.98-.07-3.69-.43-5.47-1.18-1.18-.49-2.08-.99-3.11-1.73l-.77-.56v.27c0,.43.27,1.9.45,2.47.76,2.36,2.41,4.11,4.86,5.17,1.49.64,3.57,1.06,5.58,1.13.78.03,2.99-.06,3.64-.14l.62-.08v-3.09c0-2.92,0-3.09-.13-3.05" style="fill:#fff;"/><path d="M51.21,33.13c-4.27-1.02-8.79-3.86-12.04-7.58-.52-.59-.58-.64-.64-.52-.12.26,0,2.59.18,3.46.73,3.6,3.1,6.51,7.08,8.72,1.4.77,3.37,1.57,5.17,2.08.81.23,2.25.58,2.47.6.03,0,.05-1.43.05-3.19v-3.19l-.28-.04c-.9-.12-1.27-.19-2-.36" style="fill:#fff;"/><path d="M60,0H0v60h60V0ZM58,58H2V2h56v56Z" style="fill:#fff;"/><path d="M7.92,28.27c0-1.18.48-1.77,1.44-1.77.08,0,.18,0,.33.02v-1.56c-.13-.02-.24-.03-.34-.03-.8,0-1.36.49-1.67,1.46v-1.39h-1.73v5.73h1.97v-2.47" style="fill:#fff;"/><rect x="10.73" y="25.01" width="1.97" height="5.73" style="fill:#fff;"/><path d="M19.91,19.16c-.14.1-.41.15-.79.15-.17,0-.36-.01-.55-.03v1.26c.28.06.56.09.84.09.45,0,.82-.07,1.1-.22.29-.15.51-.33.65-.55.14-.22.32-.61.52-1.17l2.13-5.82h-1.7l-.92,3.5-.95-3.5h-1.98l2.04,5.63c-.13.34-.26.56-.4.66" style="fill:#fff;"/><path d="M18.12,27.64c-.25-.12-.65-.25-1.19-.41-.48-.14-.8-.25-.95-.35-.15-.1-.23-.24-.23-.43,0-.33.2-.5.62-.5.5,0,.85.26,1.04.78l1.41-.34c-.34-1-1.14-1.5-2.39-1.5-.72,0-1.32.17-1.79.5-.48.33-.72.78-.72,1.33,0,.39.15.74.46,1.04.3.3.86.55,1.67.77.44.11.74.22.9.32.15.1.23.24.23.43,0,.36-.26.53-.78.53-.61,0-.98-.29-1.11-.86l-1.57.2c.17,1.14,1.05,1.71,2.64,1.71.84,0,1.5-.18,1.97-.54.47-.36.71-.8.71-1.33,0-.31-.09-.58-.26-.81-.17-.24-.39-.41-.64-.53" style="fill:#fff;"/><path d="M10.34,18.45c.46-.11.87-.31,1.23-.62.36-.31.66-.74.88-1.27.22-.54.34-1.16.34-1.85,0-.98-.18-1.76-.55-2.33-.37-.58-.86-.97-1.47-1.18-.61-.21-1.41-.32-2.39-.32h-2.26v7.75h2.51c.69,0,1.26-.05,1.71-.16M8.22,17.28v-5.09h.36c.46,0,.82.06,1.08.19.27.13.48.37.66.72.17.36.26.86.26,1.52,0,.71-.08,1.26-.24,1.63-.16.38-.37.64-.64.79-.27.15-.64.23-1.13.23h-.36Z" style="fill:#fff;"/><path d="M15.65,16.14c0-1.18.48-1.77,1.44-1.77.08,0,.18,0,.33.02v-1.56c-.13-.02-.24-.03-.34-.03-.8,0-1.36.49-1.67,1.46v-1.39h-1.73v5.73h1.97v-2.47" style="fill:#fff;"/><rect x="10.72" y="22.95" width="2" height="1.58" style="fill:#fff;"/></g></g></g></g></g></svg>