<?xml version="1.0" encoding="UTF-8"?><svg id="Layer_2" xmlns="http://www.w3.org/2000/svg" xmlns:xlink="http://www.w3.org/1999/xlink" viewBox="0 0 48.49 48.5"><defs><clipPath id="clippath"><rect width="48.49" height="48.5" style="fill:none;"/></clipPath><clipPath id="clippath-1"><path d="M76.39,24.25c0,29.43-23.35,53.31-52.12,53.31S-27.84,53.68-27.84,24.25-4.49-29.06,24.27-29.06,76.39-5.18,76.39,24.25" style="clip-rule:evenodd; fill:none;"/></clipPath><clipPath id="clippath-2"><rect x="-146.79" y="-889.28" width="1133.86" height="4195.28" style="fill:none;"/></clipPath><clipPath id="clippath-3"><rect x="-146.77" y="-889.3" width="1133.85" height="4195.29" style="fill:none;"/></clipPath></defs><g id="Layer_1-2"><g style="clip-path:url(#clippath);"><g style="clip-path:url(#clippath-1);"><g style="clip-path:url(#clippath-2);"><g style="clip-path:url(#clippath-3);"><path d="M.98,4.08C.98,2.37,2.37.98,4.08.98" style="fill:none; stroke:#fff; stroke-linecap:round; stroke-linejoin:round; stroke-width:1.97px;"/><path d="M47.51,4.08c0-1.71-1.39-3.1-3.1-3.1" style="fill:none; stroke:#fff; stroke-linecap:round; stroke-linejoin:round; stroke-width:1.97px;"/><path d="M.98,44.41c0,1.71,1.39,3.1,3.1,3.1" style="fill:none; stroke:#fff; stroke-linecap:round; stroke-linejoin:round; stroke-width:1.97px;"/><path d="M47.51,44.41c0,1.71-1.39,3.1-3.1,3.1" style="fill:none; stroke:#fff; stroke-linecap:round; stroke-linejoin:round; stroke-width:1.97px;"/><line x1="4.08" y1=".98" x2="44.41" y2=".98" style="fill:none; stroke:#fff; stroke-linecap:round; stroke-linejoin:round; stroke-width:1.97px;"/><line x1="47.51" y1="4.08" x2="47.51" y2="44.41" style="fill:none; stroke:#fff; stroke-linecap:round; stroke-linejoin:round; stroke-width:1.97px;"/><line x1="44.41" y1="47.51" x2="4.08" y2="47.51" style="fill:none; stroke:#fff; stroke-linecap:round; stroke-linejoin:round; stroke-width:1.97px;"/><line x1=".98" y1="44.41" x2=".98" y2="4.08" style="fill:none; stroke:#fff; stroke-linecap:round; stroke-linejoin:round; stroke-width:1.97px;"/><line x1="7.19" y1="19.59" x2="41.31" y2="19.59" style="fill:none; stroke:#fff; stroke-linecap:round; stroke-linejoin:round; stroke-width:1.97px;"/><line x1="41.31" y1="41.31" x2="41.31" y2="19.59" style="fill:none; stroke:#fff; stroke-linecap:round; stroke-linejoin:round; stroke-width:1.97px;"/><line x1="7.19" y1="19.59" x2="7.19" y2="41.31" style="fill:none; stroke:#fff; stroke-linecap:round; stroke-linejoin:round; stroke-width:1.97px;"/><line x1="41.31" y1="41.31" x2="7.19" y2="41.31" style="fill:none; stroke:#fff; stroke-linecap:round; stroke-linejoin:round; stroke-width:1.97px;"/><line x1="14.94" y1="27.35" x2="18.04" y2="30.45" style="fill:none; stroke:#fff; stroke-linecap:round; stroke-linejoin:round; stroke-width:1.97px;"/><line x1="14.94" y1="33.55" x2="18.04" y2="30.45" style="fill:none; stroke:#fff; stroke-linecap:round; stroke-linejoin:round; stroke-width:1.97px;"/><line x1="33.55" y1="33.55" x2="30.45" y2="30.45" style="fill:none; stroke:#fff; stroke-linecap:round; stroke-linejoin:round; stroke-width:1.97px;"/><line x1="33.55" y1="27.35" x2="30.45" y2="30.45" style="fill:none; stroke:#fff; stroke-linecap:round; stroke-linejoin:round; stroke-width:1.97px;"/><path d="M26.57,30.45c0,1.29-1.04,2.33-2.33,2.33s-2.33-1.04-2.33-2.33,1.04-2.33,2.33-2.33,2.33,1.04,2.33,2.33Z" style="fill:none; stroke:#fff; stroke-linecap:round; stroke-linejoin:round; stroke-width:1.97px;"/><line x1="18.04" y1="30.45" x2="11.84" y2="30.45" style="fill:none; stroke:#fff; stroke-linecap:round; stroke-linejoin:round; stroke-width:1.97px;"/><line x1="30.45" y1="30.45" x2="36.65" y2="30.45" style="fill:none; stroke:#fff; stroke-linecap:round; stroke-linejoin:round; stroke-width:1.97px;"/><line x1="26.57" y1="11.06" x2="24.25" y2="11.06" style="fill:none; stroke:#fff; stroke-linecap:round; stroke-linejoin:round; stroke-width:1.97px;"/><path d="M28.9,14.17l-2.33-3.1c1.29,0,2.33-1.04,2.33-2.33s-1.04-2.33-2.33-2.33h-2.33v7.75" style="fill:none; stroke:#fff; stroke-linecap:round; stroke-linejoin:round; stroke-width:1.97px;"/><line x1="37.43" y1="10.29" x2="33.55" y2="10.29" style="fill:none; stroke:#fff; stroke-linecap:round; stroke-linejoin:round; stroke-width:1.97px;"/><line x1="33.55" y1="6.41" x2="33.55" y2="14.17" style="fill:none; stroke:#fff; stroke-linecap:round; stroke-linejoin:round; stroke-width:1.97px;"/><line x1="33.55" y1="6.41" x2="38.21" y2="6.41" style="fill:none; stroke:#fff; stroke-linecap:round; stroke-linejoin:round; stroke-width:1.97px;"/><line x1="33.55" y1="14.17" x2="38.21" y2="14.17" style="fill:none; stroke:#fff; stroke-linecap:round; stroke-linejoin:round; stroke-width:1.97px;"/><line x1="14.16" y1="10.29" x2="10.29" y2="10.29" style="fill:none; stroke:#fff; stroke-linecap:round; stroke-linejoin:round; stroke-width:1.97px;"/><line x1="10.29" y1="6.41" x2="10.29" y2="14.17" style="fill:none; stroke:#fff; stroke-linecap:round; stroke-linejoin:round; stroke-width:1.97px;"/><line x1="10.29" y1="6.41" x2="14.94" y2="6.41" style="fill:none; stroke:#fff; stroke-linecap:round; stroke-linejoin:round; stroke-width:1.97px;"/><line x1="19.59" y1="6.41" x2="19.59" y2="14.17" style="fill:none; stroke:#fff; stroke-linecap:round; stroke-linejoin:round; stroke-width:1.97px;"/></g></g></g></g></g></svg>