<?xml version="1.0" encoding="UTF-8"?><svg id="Layer_2" xmlns="http://www.w3.org/2000/svg" xmlns:xlink="http://www.w3.org/1999/xlink" viewBox="0 0 58.65 54.59"><defs><clipPath id="clippath"><rect width="58.65" height="54.59" style="fill:none;"/></clipPath><clipPath id="clippath-1"><path d="M81.43,27.29c0,29.43-23.35,53.31-52.12,53.31S-22.8,56.72-22.8,27.29.55-26.02,29.32-26.02,81.43-2.14,81.43,27.29" style="clip-rule:evenodd; fill:none;"/></clipPath><clipPath id="clippath-2"><rect x="-932.9" y="-886.24" width="1133.86" height="4195.28" style="fill:none;"/></clipPath><clipPath id="clippath-3"><rect x="-932.89" y="-886.26" width="1133.85" height="4195.29" style="fill:none;"/></clipPath></defs><g id="Layer_1-2"><g style="clip-path:url(#clippath);"><g style="clip-path:url(#clippath-1);"><g style="clip-path:url(#clippath-2);"><g style="clip-path:url(#clippath-3);"><path d="M1.94,47.14c1.04-1.53,1.9-3.18,2.56-4.89.41-1.06.75-2.16,1-3.26.06-.26.26-.47.51-.55,1.7-.53,3.36-1.21,4.94-2.02.61-.31,1.22-.65,1.81-1.01l10.78,9.8v.57h-2.74c-.5,0-.9.41-.9.91s.4.9.9.9h2.74v.72h-2.74c-.5,0-.9.41-.9.91s.4.91.9.91h2.74v.8c-3.06,0-6.11-.15-9.15-.48v-6.58c0-.5-.4-.91-.9-.91s-.9.41-.9.91v6.37c-3.43-.44-6.84-1.09-10.21-1.95-.24-.06-.43-.23-.52-.46s-.06-.48.08-.69M16.87,32.7h1.9c.76.51,2.04,1.21,3.72,1.47,0,0,.01,0,.02,0,.36.06.74.09,1.14.1.08,0,.15,0,.23,0,.36,0,.7-.02,1.03-.06,0,0,.01,0,.02,0,1.8-.21,3.19-.93,4.02-1.48.74,0,1.49,0,2.23,0,.2,0,.39.08.53.22.55.55,1.13,1.08,1.72,1.57l-9.01,9.03-10.08-9.16c.22-.15.44-.3.65-.46.48-.35.95-.71,1.4-1.08h0c.13-.11.3-.17.48-.17h0ZM16.51,22.67v-3.39h14.8v3.39c0,1.95-1.17,3.7-2.97,4.45,0,0,0,0-.01,0-.58.24-1.2.36-1.84.36h-5.16c-.16,0-.33,0-.49-.02-.1-.01-.21-.03-.31-.04-.3-.05-.59-.13-.87-.23-.08-.03-.15-.06-.23-.09h0c-1.77-.76-2.92-2.5-2.92-4.43ZM10.93,16.33c0-.3.12-.59.33-.8.21-.21.5-.33.8-.33h23.69c.62,0,1.14.51,1.14,1.14,0,.3-.12.59-.33.8-.21.21-.5.33-.8.33H12.07c-.63,0-1.14-.51-1.14-1.13ZM20.07,5.08v4.34c0,.5.41.91.91.91s.9-.41.9-.91V1.81h4.06v7.61c0,.5.4.91.9.91s.9-.41.9-.91v-4.34c3.39,1.42,5.76,4.62,6.09,8.3H13.98c.34-3.68,2.7-6.89,6.09-8.3ZM20.18,29.19s.1.02.15.03c.07.01.13.02.2.03.04,0,.09.01.14.02.07,0,.15.01.22.02.04,0,.08,0,.11,0,.11,0,.23,0,.34,0h5.16c.11,0,.22,0,.33,0,.04,0,.07,0,.11,0,.07,0,.15,0,.22-.02.04,0,.08-.01.13-.02.07,0,.13-.01.2-.02.05,0,.09-.02.14-.02.06,0,.11-.02.17-.03v2.16c-.67.39-1.74.88-3.09,1.02-.28.03-.56.04-.84.04-.33,0-.66-.03-.99-.07-1.22-.17-2.18-.6-2.86-1.01v-2.15s0,0,0,0c.06.01.12.02.18.03ZM1.93,50.04c7.02,1.79,14.24,2.69,21.47,2.69.41,0,.81,0,1.22,0,4.67-.06,9.38-.51,13.98-1.33.49-.09.82-.56.73-1.05-.09-.49-.56-.82-1.05-.73-.86.15-1.72.29-2.59.42v-6.16c0-.5-.4-.91-.9-.91s-.91.41-.91.91v6.41c-2.83.35-5.69.56-8.53.63v-.77h3.15c.5,0,.9-.41.9-.91s-.4-.91-.9-.91h-3.15v-.72h3.15c.5,0,.9-.4.9-.9s-.4-.91-.9-.91h-3.15v-.6l9.53-9.54c.73.52,1.5,1.01,2.28,1.45.46.26.95.51,1.42.73.13.06.26.09.39.09.34,0,.66-.19.82-.52.21-.45.02-.99-.43-1.21-.45-.21-.89-.44-1.32-.68-.94-.52-1.85-1.12-2.71-1.77-.82-.63-1.61-1.32-2.35-2.05-.47-.48-1.13-.75-1.8-.75-.53,0-1.07,0-1.6,0v-2.4c2.16-1.14,3.53-3.38,3.53-5.86v-3.39h2.64c.79,0,1.53-.31,2.08-.86.56-.56.86-1.3.86-2.08,0-1.62-1.32-2.95-2.94-2.95h-.1c-.36-4.66-3.48-8.72-7.91-10.24V.9c0-.5-.4-.9-.9-.9h-5.87c-.5,0-.91.41-.91.9v2.24c-4.43,1.52-7.55,5.58-7.91,10.24h-.1c-.79,0-1.53.31-2.08.86-.56.56-.86,1.29-.86,2.08,0,1.62,1.32,2.94,2.95,2.94h2.64v3.39c0,2.45,1.34,4.68,3.47,5.83v2.4h-1.3s0,0,0,0c-.59,0-1.17.21-1.62.58,0,0,0,0,0,0-.43.35-.87.69-1.32,1.01-1.2.87-2.48,1.66-3.8,2.34-1.49.76-3.05,1.4-4.66,1.9-.86.27-1.53.98-1.73,1.86-.24,1.02-.55,2.04-.93,3.02-.61,1.58-1.41,3.11-2.37,4.52-.47.69-.57,1.57-.27,2.35.3.78.95,1.36,1.76,1.57Z" style="fill:#fff;"/><path d="M51.2,26.64l5.64-1.29v3.26l-5.64-.96v-1.01M48.35,36.29h4.22v11.72h-4.22v-11.72ZM52.57,34.48h-5.13c-.5,0-.91.41-.91.91v13.53c0,.5.41.91.91.91h5.14v2.95h-9.4v-17.97c0-1.93,1.16-3.65,2.95-4.37.56-.22,1.14-.33,1.75-.33.16,0,.33,0,.49.02.36.04.71.11,1.05.23.03.01.07.03.1.04.04.01.07.03.11.04.59.24,1.12.59,1.58,1.04.81.81,1.29,1.87,1.36,3ZM44.34,22.11c1.01,0,1.86.69,2.11,1.63,0,0-.01,0-.02.01-.05.03-.1.06-.16.09,0,0,0,0,0,0-.05.03-.1.06-.14.1,0,0-.02.01-.03.02-.05.03-.09.07-.14.11,0,0-.02.01-.02.02-.04.03-.08.07-.12.11,0,0-.01.01-.02.02-.04.04-.08.08-.12.12,0,.01-.02.02-.03.03-.04.04-.08.09-.11.13,0,0,0,0,0,0-.04.05-.07.09-.1.14,0,.01-.01.02-.02.03-.03.05-.06.1-.09.15,0,0-.01.02-.02.03-.03.04-.05.09-.08.14,0,0,0,.02-.01.03-.03.05-.05.1-.07.16l-.02.04c-.02.05-.04.11-.07.17h0c-.02.06-.04.11-.05.17,0,.01,0,.02-.01.04-.02.06-.03.11-.04.17,0,.01,0,.02,0,.03-.01.05-.02.11-.03.16,0,.01,0,.02,0,.03,0,.06-.01.12-.02.18,0,.01,0,.03,0,.04,0,.06,0,.12,0,.19v.02c-.18.05-.36.07-.55.07-1.2,0-2.17-.98-2.17-2.17s.98-2.17,2.17-2.17ZM49.06,26.36v2.04s-.1-.02-.14-.02c-.04,0-.08-.01-.13-.02-.06,0-.12-.01-.18-.02-.04,0-.08-.01-.12-.01-.07,0-.14-.01-.2-.01-.03,0-.07,0-.1,0-.1,0-.2,0-.31,0s-.2,0-.31,0c-.03,0-.07,0-.1,0-.07,0-.14,0-.2.01-.04,0-.08,0-.12.01-.06,0-.12.01-.18.02-.04,0-.09.01-.13.02-.05,0-.09.01-.14.02v-2.04c0-.07,0-.14.02-.2.08-.46.43-.84.9-.95.09-.02.18-.03.26-.03.32,0,.61.12.84.35.22.22.35.52.35.83ZM50,24.25c-.48-.48-1.1-.78-1.77-.86-.4-1.77-1.99-3.1-3.88-3.1-2.2,0-3.98,1.79-3.98,3.98,0,1.54.88,2.87,2.15,3.53-.36.27-.75.51-1.17.71-.98.48-2.08.75-3.17.78-.5.01-.9.43-.88.93.01.49.41.88.9.88h.02c1.36-.03,2.72-.36,3.93-.96.98-.48,1.86-1.13,2.61-1.91.04,0,.09-.01.13-.02v.8c-2.16,1.11-3.52,3.32-3.52,5.79v18.87c0,.5.4.9.9.9h11.21c.5,0,.91-.41.91-.9v-18.87c0-1.74-.68-3.37-1.91-4.6-.23-.23-.47-.44-.72-.62l5.83.99c.05,0,.1.01.15.01.21,0,.42-.07.58-.21.2-.17.32-.43.32-.69v-5.47c0-.28-.12-.54-.34-.71-.22-.17-.5-.24-.77-.17l-7.03,1.61c-.14-.25-.31-.48-.51-.69Z" style="fill:#fff;"/></g></g></g></g></g></svg>