<?xml version="1.0" encoding="UTF-8"?><svg id="Layer_2" xmlns="http://www.w3.org/2000/svg" xmlns:xlink="http://www.w3.org/1999/xlink" viewBox="0 0 52.15 65.6"><defs><clipPath id="clippath"><rect width="52.15" height="65.6" style="fill:none;"/></clipPath><clipPath id="clippath-1"><path d="M78.18,32.79c0,29.43-23.35,53.31-52.12,53.31S-26.05,62.22-26.05,32.79-2.7-20.52,26.07-20.52,78.18,3.36,78.18,32.79" style="clip-rule:evenodd; fill:none;"/></clipPath><clipPath id="clippath-2"><rect x="-936.15" y="-1139.22" width="1133.86" height="4195.28" style="fill:none;"/></clipPath><clipPath id="clippath-3"><rect x="-936.14" y="-1139.24" width="1133.85" height="4195.29" style="fill:none;"/></clipPath></defs><g id="Layer_1-2"><g style="clip-path:url(#clippath);"><g style="clip-path:url(#clippath-1);"><g style="clip-path:url(#clippath-2);"><g style="clip-path:url(#clippath-3);"><path d="M40.07,22.33c-.44,0-.8-.36-.8-.8v-2.01c0-7.29-5.91-13.2-13.2-13.2s-13.2,5.92-13.2,13.2v2.01c0,.44-.36.8-.8.8s-.8-.36-.8-.8v-2.01c0-8.16,6.64-14.8,14.8-14.8s14.8,6.63,14.8,14.8v2.01c0,.44-.36.8-.8.8h0" style="fill:#fff;"/><path d="M40.07,56.71H12.07c-.44,0-.8-.36-.8-.8v-30.17c0-.44.36-.8.8-.8s.8.36.8.8v29.37h26.4v-29.37c0-.44.36-.8.8-.8s.8.36.8.8v30.17c0,.44-.36.8-.8.8" style="fill:#fff;"/><path d="M43.74,60.71H8.41c-.44,0-.8-.36-.8-.8v-4c0-.44.36-.8.8-.8h35.34c.44,0,.8.36.8.8v4c0,.44-.36.8-.8.8M9.21,59.11h33.73v-2.4H9.21v2.4Z" style="fill:#fff;"/><path d="M47.64,65.6H4.51c-.44,0-.8-.36-.8-.8v-1.85c0-2.12,1.72-3.84,3.84-3.84h37.06c2.12,0,3.84,1.72,3.84,3.84v1.85c0,.44-.36.8-.8.8h0M5.31,64h41.53v-1.05c0-1.24-1-2.24-2.24-2.24H7.54c-1.24,0-2.24,1-2.24,2.24v1.05Z" style="fill:#fff;"/><path d="M44.55,26.54H7.6c-1.6.03-2.93-1.25-2.95-2.85-.03-1.6,1.25-2.93,2.86-2.95.03,0,.06,0,.1,0h36.95c1.6.03,2.88,1.35,2.86,2.95-.03,1.57-1.29,2.83-2.86,2.85M7.6,22.33c-.72-.02-1.32.55-1.34,1.27-.02.72.55,1.32,1.27,1.34.02,0,.04,0,.07,0h36.95c.72-.02,1.29-.62,1.27-1.34-.02-.7-.58-1.25-1.27-1.27H7.6Z" style="fill:#fff;"/><path d="M26.07,49.1c-4.57,0-8.28-3.71-8.28-8.28s3.71-8.28,8.28-8.28,8.28,3.71,8.28,8.28c0,4.57-3.71,8.27-8.28,8.28M26.07,34.15c-3.69,0-6.68,2.99-6.68,6.68s2.99,6.68,6.68,6.68,6.68-2.99,6.68-6.68c0-3.69-2.99-6.67-6.68-6.68Z" style="fill:#fff;"/><path d="M26.07,45.21c-2.42,0-4.39-1.97-4.39-4.39s1.97-4.39,4.39-4.39,4.39,1.97,4.39,4.39c0,2.42-1.97,4.39-4.39,4.39M26.07,38.03c-1.54,0-2.79,1.25-2.79,2.79s1.25,2.79,2.79,2.79,2.79-1.25,2.79-2.79c0-1.54-1.25-2.79-2.79-2.79Z" style="fill:#fff;"/><path d="M43.46,48.24h-3.38c-.44,0-.8-.36-.8-.8v-13.23c0-.44.36-.8.8-.8h3.38c1.79,0,3.23,1.45,3.23,3.23v8.37c0,1.79-1.45,3.23-3.23,3.23M40.87,46.64h2.58c.9,0,1.63-.73,1.64-1.63v-8.37c0-.9-.73-1.63-1.64-1.63h-2.58v11.63Z" style="fill:#fff;"/><path d="M12.07,48.24h-3.38c-1.79,0-3.23-1.45-3.24-3.23v-8.37c0-1.79,1.45-3.23,3.24-3.23h3.38c.44,0,.8.36.8.8v13.23c0,.44-.36.8-.8.8M8.69,35.01c-.9,0-1.63.73-1.64,1.64v8.36c0,.9.73,1.63,1.64,1.64h2.58v-11.64h-2.58Z" style="fill:#fff;"/><path d="M6.26,44.58H1.66c-.92,0-1.66-.74-1.66-1.66v-4.19c0-.92.74-1.66,1.66-1.66h4.59c.44,0,.8.36.8.8v5.92c0,.44-.36.8-.8.8M1.66,38.67s-.06.03-.06.06v4.19s.03.06.06.06h3.79v-4.31H1.66Z" style="fill:#fff;"/><path d="M50.48,44.58h-4.59c-.44,0-.8-.36-.8-.8v-5.92c0-.44.36-.8.8-.8h4.59c.92,0,1.66.74,1.66,1.66v4.19c0,.92-.74,1.66-1.66,1.66M46.69,42.98h3.79s.06-.03.06-.06v-4.19s-.03-.06-.06-.06h-3.79v4.31Z" style="fill:#fff;"/><path d="M26.07,19.12c-2.42,0-4.39-1.97-4.39-4.39,0-1.01.64-2.38,1.95-4.21.91-1.27,1.81-2.28,1.85-2.32.29-.33.8-.36,1.13-.06.02.02.04.04.06.06.04.04.94,1.05,1.85,2.32,1.31,1.82,1.95,3.2,1.95,4.21,0,2.42-1.97,4.39-4.39,4.39M26.07,9.97c-1.31,1.59-2.79,3.77-2.79,4.76,0,1.54,1.25,2.79,2.79,2.79,1.54,0,2.79-1.25,2.79-2.79h0c0-1.01-1.48-3.18-2.79-4.77h0Z" style="fill:#fff;"/><path d="M23.23,6.61c-.28,0-.54-.15-.69-.39-1.17-1.95-.53-4.48,1.42-5.64,1.95-1.16,4.48-.53,5.64,1.43.78,1.3.78,2.92,0,4.22-.22.39-.71.52-1.09.3-.38-.22-.52-.7-.3-1.09,0-.01.01-.02.02-.04.71-1.19.32-2.74-.87-3.45-1.19-.71-2.74-.32-3.45.87-.47.79-.47,1.78,0,2.57.23.38.1.87-.28,1.1-.12.07-.27.11-.41.11h0" style="fill:#fff;"/></g></g></g></g></g></svg>