<?xml version="1.0" encoding="UTF-8"?><svg id="Layer_2" xmlns="http://www.w3.org/2000/svg" xmlns:xlink="http://www.w3.org/1999/xlink" viewBox="0 0 47.51 53.2"><defs><clipPath id="clippath"><rect width="47.51" height="53.2" style="fill:none;"/></clipPath><clipPath id="clippath-1"><path d="M75.87,26.59c0,29.43-23.35,53.31-52.12,53.31S-28.36,56.02-28.36,26.59-5.02-26.72,23.75-26.72,75.87-2.83,75.87,26.59" style="clip-rule:evenodd; fill:none;"/></clipPath><clipPath id="clippath-2"><rect x="-411.02" y="-886.94" width="1133.86" height="4195.28" style="fill:none;"/></clipPath><clipPath id="clippath-3"><rect x="-411.01" y="-886.95" width="1133.85" height="4195.29" style="fill:none;"/></clipPath></defs><g id="Layer_1-2"><g style="clip-path:url(#clippath);"><g style="clip-path:url(#clippath-1);"><g style="clip-path:url(#clippath-2);"><g style="clip-path:url(#clippath-3);"><path d="M23.05,19.66c-1.15-.49-1.91,1.21-.77,1.74,1.29.57,2.31,1.6,2.88,2.88.21.48.79.69,1.25.48,2-1.07-2.09-4.75-3.36-5.1" style="fill:#fff;"/><path d="M40.89,30.4c-.91,0-1.7.65-1.87,1.55l-2.49,13.3c-.11.56.04,1.13.41,1.56.36.44.89.69,1.46.69h7.21c1.15.03,2.11-1.12,1.87-2.25l-2.49-13.3c-.17-.9-.95-1.55-1.87-1.55-.39.37-.05-19.98-.16-19.95,0-4.71-3.83-8.55-8.55-8.55h-4.95v-.95C29.46.43,29.03,0,28.51,0H.96C.43,0,0,.43,0,.95v3.8c0,.5.39.92.89.95l8.28.55C5.74,7.62,2.67,9.81.23,12.68c-.83,1.06.77,2.23,1.54,1.12,3.22-3.76,7.62-6.2,12.48-6.99v2.69c-1.57,0-2.85,1.28-2.85,2.85v5.36c-2.34,2.25-3.8,5.4-3.8,8.89v3.8c0,4.15,0,13.99,0,18.05,0,2.62,2.13,4.75,4.75,4.75h15.2c2.62,0,4.75-2.13,4.75-4.75v-21.85c0-3.49-1.46-6.64-3.8-8.89v-5.36c0-1.57-1.28-2.85-2.85-2.85v-3.8h2.85c.52,0,.95-.43.95-.95v-.95h4.95c3.67,0,6.65,2.98,6.65,6.65v19.95h-.16M1.91,1.9h12.35v2.79L1.91,3.86v-1.96ZM30.41,48.45c0,1.57-1.28,2.85-2.85,2.85h-15.2c-1.57,0-2.85-1.28-2.85-2.85v-5.7h17.1c1.24-.02,1.25-1.88,0-1.9H9.51v-9.5h20.9v17.1ZM30.41,26.6v2.85H9.51v-2.85c.58-13.86,20.33-13.86,20.9,0ZM19.96,9.5c-1.25.02-1.25,1.88,0,1.9h5.7c.52,0,.95.43.95.95v3.86c-3.78-2.58-9.52-2.58-13.3,0v-3.86c0-.52.43-.95.95-.95h.95c.52,0,.95-.43.95-.95V1.9h7.6c0,1.72,0,5.84,0,7.6h-3.8ZM27.56,3.8h-1.9v-1.9h1.9v1.9ZM45.61,45.6h-7.21l2.49-13.3h2.22l2.5,13.3Z" style="fill:#fff;"/><path d="M19.96,4.75c-1.25.02-1.25,1.88,0,1.9,1.25-.02,1.25-1.88,0-1.9" style="fill:#fff;"/></g></g></g></g></g></svg>