<?xml version="1.0" encoding="UTF-8"?><svg id="Layer_2" xmlns="http://www.w3.org/2000/svg" viewBox="0 0 51.02 51.02"><g id="Layer_1-2"><path d="M51.02,25.51c0,14.08-11.43,25.51-25.51,25.51S0,39.59,0,25.51,11.43,0,25.51,0s25.51,11.43,25.51,25.51" style="fill:#ea5b0c; fill-rule:evenodd;"/><path d="M25.15,13.17c3.26,0,6.23,1.27,8.44,3.34-.51.37-1.01.75-1.51,1.14-1.85-1.63-4.27-2.61-6.92-2.61-5.78,0-10.47,4.69-10.47,10.47s4.69,10.47,10.47,10.47,10.47-4.69,10.47-10.47c0-1.87-.49-3.62-1.34-5.13.43-.49.86-.98,1.3-1.46,1.21,1.9,1.91,4.17,1.91,6.59,0,6.81-5.52,12.33-12.33,12.33s-12.34-5.52-12.34-12.33,5.52-12.34,12.34-12.34" style="fill:#fff; fill-rule:evenodd;"/><path d="M37.38,14.83c-5.35,3.3-10.15,7.66-14.18,12.33-3.59-3.77-5.75-4.41-5.75-4.41-.25-.14-.56-.06-.72.17-.28.4.08.69.31.99,2.27,2.91,3.62,5.52,4.25,6.89,1.01,2.21,3.88,2.16,4.87.22,2.85-5.59,6.82-10.81,11.91-15.66.34-.32.01-.96-.69-.53" style="fill:#fff; fill-rule:evenodd;"/></g></svg>