<?xml version="1.0" encoding="UTF-8"?><svg id="Layer_2" xmlns="http://www.w3.org/2000/svg" viewBox="0 0 1164.29 889.85"><g id="Layer_1-2"><path d="M3.45,359.41c-.32.93-1.32,1.42-2.25,1.1-.92-.32-1.42-1.33-1.1-2.25,5.83-17.04,13.44-26.88,21.99-32.2,12.86-7.99,28.02-5.84,43.18-1.94,12.11,3.11,24.21,7.32,35.04,7.72,10.31.39,19.41-2.81,26.07-14.21,7.51-12.84,6.36-22,2.74-32.51-3.82-11.06-10.26-23.54-12.9-42.71-4.23-30.68,18.89-60.72,74.21-72.14.76-.16,1.53.2,1.9.87.38.67.27,1.52-.25,2.08-11.88,12.64-20.04,23.3-24.79,32.8-4.59,9.18-5.93,17.21-4.26,24.87,1.69,7.73,6.42,15.05,13.77,22.77,7.56,7.94,17.88,16.26,30.6,25.76,13.59,10.15,18.8,18.81,19.32,26.29.4,5.8-1.95,11.01-5.72,15.85-3.55,4.56-8.36,8.8-13.08,12.93-3.79,3.33-7.51,6.59-10.39,9.93-2.66,3.1-4.6,6.24-4.98,9.6-.37,3.27.8,6.7,4.05,10.47,3.56,4.13,9.51,8.57,18.57,13.51,15.3,8.34,37.79,5.75,53.72-3.32,10.4-5.93,18.05-14.64,18.74-25.05.21-3.1-.84-6.43-2.46-9.98-2.62-5.75-6.77-12-10.36-18.63-6.3-11.62-10.8-24.32-3.72-37.37,6.78-12.49,17.75-22.11,26.83-32.32,6.53-7.35,12.07-15,14.04-24.42,1.97-9.41.35-20.56-7.2-34.88-.36-.67-.24-1.5.29-2.05.52-.55,1.34-.7,2.03-.38,26.07,12.27,36.2,25.26,38.98,37.76,2.78,12.48-1.82,24.63-5.66,35.51-1.7,4.81-3.24,9.35-3.79,13.55-.51,3.87-.17,7.42,1.86,10.56,1.79,2.77,4.84,5.18,9.57,7.29,14.05,6.24,22.71,12.31,26.56,21.39,3.82,9,2.94,21.11-2.55,39.7-2.11,7.15-1.65,13.06.67,17.76,5.53,11.16,21.17,15.32,36.14,13.14,11.7-1.71,25.59-14.35,25.2-29.21-.26-10.05-7.14-20.94-25.2-30.33-.48-.25-.82-.7-.92-1.23-.1-.53.04-1.07.38-1.48,3.73-4.43,10.62-7.88,18.78-9.27,18.67-3.19,43.87,4.23,50.89,33.95,5.69,24.1,21.51,30.18,32.33,24.96,10.81-5.22,15.71-21.31,0-40.68-4.89-6.04-12.06-18.98-14.72-33.63-2.69-14.83-.78-31.37,12.47-44.37,5.03-4.93,12.27-8.19,19.41-11.85,7.78-3.99,15.47-8.45,19.38-16.71,3.95-8.34,4-20.43-3.09-39.51-.27-.72-.04-1.54.57-2.01.61-.48,1.46-.5,2.09-.07,24.78,16.98,38.7,28.88,44.39,42.32,5.73,13.56,3.24,28.79-5.34,52.53-9.47,26.2.51,44.1,14.54,52.19,12.35,7.13,27.81,6.78,35.15-2.55,4.93-6.27,6-16.46.31-30.86-5.63-14.24-6.68-26.84-4.21-38.07,3.7-16.8,15.33-30.6,31.73-42.29,13.56-9.66,19.71-18.72,20.61-27.11,1.34-12.51-8.99-23.12-22.38-31.27-29.32-17.82-27.67-69.81,22.41-92.84.7-.32,1.53-.15,2.05.42.52.57.61,1.41.22,2.08-5.27,9.07-7.9,16.86-7.46,24.58.44,7.71,3.96,15.31,10.77,24.01,9.39,12,24.96,25.98,47.48,44.84,10.27,8.59,15.12,16.61,16.65,24.2,2.29,11.37-2.91,21.93-9.29,32.45-4.06,6.68-8.57,13.36-11.66,20.28-4.45,9.95-5.9,20.41,1.73,32.14,1.88,2.89,4.75,5.39,8.18,7.78,5.43,3.78,12.24,7.27,19.03,11.35,17.61,10.58,35.03,25.02,29.83,57.63-1.41,8.85-.67,16.78,7.2,21.07,7.86,4.29,17.64,2.61,23.6-4.06,8.55-9.55,5.92-23.12,1.31-35.16-3.37-8.81-7.9-16.85-10.45-22.14-1.22-2.52-1.99-4.5-2.14-5.72-2.43-20.81,9.06-32.18,22.09-43.68,11.09-9.79,23.33-19.68,27.83-36.5,2.99-11.21,2.52-25.46-3.89-44.75-.24-.72,0-1.51.61-1.97.6-.46,1.43-.48,2.06-.06,30.58,20.57,45.47,38.26,52.16,54.19,6.75,16.08,5.21,30.45,2.72,44.37-3.18,17.75-8.04,34.74,2.57,53.8,1.94,3.49,6.21,6.28,11.56,8.35,8.45,3.28,19.59,4.65,29.37,3.43,9.36-1.16,17.53-4.61,20.4-11.39,1.9-4.48,1.38-10.34-2.44-17.79-1.35-2.64-9.61-17.7-11.76-35.16-2.2-17.8,1.87-38.04,25.42-50.54,25.26-13.4,29.52-31.15,25.65-79.28-.06-.76.37-1.48,1.08-1.78.71-.3,1.52-.1,2.03.48,21.82,25.26,30.93,42.66,32.9,56.79,1.51,10.81-1.09,19.78-5.55,28.9-4.3,8.8-10.37,17.76-15.95,28.81-2.69,5.32-3.43,9.77-2.74,13.73,1.05,6.04,5.35,10.87,10.61,15.8,9.48,8.88,22.03,17.99,27.24,33.29,3.28,9.65,6.64,16.32,10.12,20.68,3.2,4.01,6.45,5.97,9.83,6.35,3.42.39,6.92-.81,10.53-2.84,3.87-2.19,7.84-5.35,11.9-8.79,6.72-5.69,13.69-12.14,20.89-16.51,5.67-3.44,11.5-5.59,17.45-5.28,5.99.3,12.16,3.06,18.43,9.68.67.71.64,1.83-.07,2.5-.71.67-1.83.64-2.5-.07-5.48-5.78-10.8-8.31-16.04-8.58-5.28-.27-10.41,1.73-15.43,4.77-7.05,4.28-13.86,10.61-20.44,16.18-5.12,4.34-10.11,8.22-14.94,10.46-3.46,1.6-6.85,2.37-10.17,2-4.16-.47-8.25-2.72-12.2-7.66-3.66-4.59-7.25-11.59-10.71-21.75-5.01-14.7-17.21-23.32-26.31-31.85-5.88-5.52-10.51-11.02-11.68-17.78-.8-4.58-.04-9.76,3.07-15.93,5.57-11.04,11.63-19.98,15.92-28.77,4.15-8.47,6.63-16.8,5.22-26.85-1.8-12.91-9.91-28.56-28.56-50.83,3.23,46.25-2.48,63.75-27.93,77.26-21.88,11.61-25.61,30.44-23.57,46.98,2.08,16.88,10.09,31.43,11.4,33.98,4.45,8.69,4.77,15.56,2.55,20.79-3.3,7.8-12.46,12.19-23.22,13.52-10.35,1.29-22.14-.17-31.08-3.64-6.25-2.42-11.11-5.86-13.37-9.94-11.07-19.9-6.28-37.62-2.96-56.15,2.38-13.29,3.95-27.01-2.49-42.37-6.19-14.76-19.72-30.96-46.66-49.74,5.2,17.7,5.28,31.13,2.41,41.87-4.69,17.56-17.32,28.01-28.9,38.24-12.17,10.74-23.19,21.19-20.92,40.61.14,1.21,1.14,3.28,2.5,5.99,3.5,7.01,9.48,17.82,12.49,28.92,2.99,11.06,3.01,22.38-4.59,30.88-7.07,7.9-18.64,9.89-27.94,4.81-9.29-5.08-10.66-14.28-8.99-24.74,4.89-30.62-11.62-44.11-28.15-54.04-6.87-4.12-13.74-7.65-19.23-11.48-3.85-2.68-7.02-5.52-9.13-8.76-8.43-12.97-6.91-24.52-2-35.52,3.15-7.05,7.73-13.86,11.86-20.67,5.9-9.72,10.96-19.4,8.84-29.91-1.41-6.99-6-14.28-15.45-22.19-22.78-19.07-38.49-33.23-47.99-45.37-7.36-9.4-11.04-17.66-11.52-25.99-.39-6.89,1.4-13.86,5.25-21.6-42.05,22.58-43.52,68.07-17.09,84.13,14.7,8.94,25.54,20.94,24.07,34.67-.97,9.1-7.37,19.14-22.07,29.62-15.61,11.12-26.8,24.17-30.32,40.16-2.34,10.63-1.28,22.54,4.04,36.01,7.42,18.77,3.89,31.1-3.99,37.59-4.79,3.94-11.27,5.78-18.17,5.56-10.12-.33-21.14-5.1-28.77-13.96-9.01-10.45-13.38-26.62-5.69-47.88,8.16-22.58,10.86-37.04,5.41-49.94-5.15-12.18-17.43-22.9-38.66-37.7,5.68,17.45,5.02,28.95,1.17,37.09-4.26,8.99-12.49,14.01-20.97,18.35-6.8,3.48-13.75,6.52-18.54,11.22-12.3,12.07-13.96,27.44-11.46,41.21,2.53,13.95,9.32,26.28,13.98,32.03,17.79,21.96,11.03,40.18-1.22,46.1-12.25,5.92-30.88-.04-37.32-27.33-6.46-27.37-29.65-34.21-46.84-31.27-6.2,1.06-11.62,3.36-15.11,6.47,18.11,10,24.74,21.7,25.01,32.26.43,16.66-15.1,30.89-28.23,32.8-16.57,2.42-33.71-2.72-39.83-15.07-2.66-5.38-3.31-12.15-.9-20.34,5.17-17.47,6.29-28.84,2.69-37.31-3.57-8.39-11.75-13.77-24.74-19.54-7.44-3.3-11.21-7.44-12.81-12.1-2.31-6.75.12-14.83,3.27-23.72,3.64-10.28,8.17-21.74,5.54-33.55-2.45-11.01-11.19-22.19-32.38-33.04,6.02,13.06,7.09,23.56,5.21,32.55-2.1,10.03-7.91,18.23-14.86,26.05-8.9,10.01-19.71,19.4-26.36,31.66-6.44,11.88-2.02,23.41,3.72,33.99,3.63,6.7,7.82,13.03,10.47,18.85,1.89,4.15,3.01,8.07,2.77,11.69-.77,11.53-9.01,21.34-20.53,27.9-16.95,9.66-40.89,12.23-57.17,3.35-9.56-5.21-15.79-9.95-19.55-14.3-4.07-4.72-5.36-9.08-4.89-13.18.37-3.24,1.86-6.34,4.09-9.37,3.12-4.21,7.73-8.28,12.46-12.43,4.54-3.99,9.2-8.05,12.62-12.45,3.2-4.11,5.32-8.5,4.98-13.43-.47-6.82-5.53-14.45-17.9-23.7-12.91-9.64-23.36-18.1-31.04-26.16-7.88-8.27-12.86-16.17-14.67-24.46-1.83-8.37-.46-17.17,4.56-27.21,4.33-8.67,11.42-18.31,21.52-29.47-48.85,11.66-69.81,38.72-65.92,66.96,2.6,18.87,8.98,31.14,12.74,42.03,3.96,11.45,5.16,21.45-3.03,35.45-7.48,12.79-17.68,16.39-29.26,15.96-11.06-.41-23.43-4.65-35.79-7.83-14.2-3.65-28.4-5.97-40.43,1.51-8.04,5-15.04,14.34-20.51,30.34" style="fill:#e95c0c; fill-rule:evenodd;"/><path d="M618.45,229.05s.13-.03.18-.06c.1-.04.21-.1.32-.16.54-.32,1.14-.83,1.86-1.54,15.3-15.16,21.12-25.24,21.49-33.29.36-7.85-4.59-13.54-10.29-20-8.27-9.37-18.23-20.1-19.08-39.26-1.21-27.42,12.52-43.98,25.35-58.49,12.14-13.73,23.61-25.43,18.71-43.72-.15-.54-.02-1.13.33-1.57.35-.44.89-.69,1.46-.66,29.77,1.25,44.67,8.62,51.11,19.63,6.45,11.02,4.5,25.98-.02,42.99-1.67,6.28-.08,11.67,3.48,16.73,3.78,5.39,9.71,10.41,16.46,15.71,21.07,16.52,49.78,35.51,50.14,73.46.06,5.88-1.99,13.45-4.66,21.55-3.86,11.72-9.02,24.58-10.38,34.83-.69,5.22-.43,9.72,1.82,12.87,2.21,3.09,6.31,4.69,12.97,4.57,6.61-.12,16.61-4.93,26.25-12.69,14.64-11.78,28.45-30.46,28.16-50.86-.69-47.71,13.01-68.25,27.48-75.54.46-.23.99-.25,1.46-.06.47.19.84.58,1.01,1.06,10.16,28.99,25,39.2,38.17,49.31,13.71,10.53,25.7,20.95,29.45,50.67,1.45,11.49-3.75,38.31-3.2,59.18.18,6.7.95,12.77,2.81,17.43,1.69,4.25,4.29,7.29,8.32,8.3,6.72,1.69,11.24,1.82,14.04.28,2.31-1.28,3.12-3.78,3.07-7.21-.08-6.18-2.98-15.03-7.28-25.91-6.3-15.94-5.02-38.28,1.04-52.55,4.24-10,13.2-16.13,22.27-22.67,12.76-9.19,25.7-19.33,23.68-44.44-1.42-17.7,1.09-50.16,25.7-67.81.57-.4,1.31-.44,1.92-.1.6.35.95,1.01.88,1.7,0,0-2.51,27.41,24.29,47.31,14.19,10.54,24.94,21.9,28.89,37.33,3.92,15.35,1.14,34.82-12.06,61.71-9.91,20.21,5.69,39.79,22.53,49.61,6.74,3.93,13.72,6.31,19.42,6.47,3.45.1,6.4-.6,8.41-2.43,30.19-27.41,45.71-30.65,45.71-30.65.95-.21,1.9.4,2.1,1.36.21.96-.4,1.9-1.36,2.1,0,0-14.88,3.31-44.07,29.81-2.62,2.38-6.41,3.47-10.9,3.35-6.19-.17-13.79-2.69-21.1-6.95-18.32-10.68-34.71-32.24-23.93-54.23,12.68-25.85,15.58-44.53,11.81-59.28-3.75-14.66-14.09-25.35-27.57-35.36-22.32-16.57-25.45-38.08-25.76-46.69-20.76,17.19-22.69,46.31-21.39,62.45,2.16,26.85-11.5,37.78-25.15,47.6-8.53,6.14-17.09,11.77-21.08,21.18-5.75,13.54-6.98,34.74-1,49.86,3.84,9.72,6.55,17.9,7.31,24.09.56,4.58.03,8.16-1.63,10.64-1.48,2.21-3.86,3.66-7.38,4.12-3.08.4-7.12.02-12.29-1.28-7.51-1.88-11.44-9.09-12.98-19.04-1.67-10.76-.65-24.79.58-37.81,1.21-12.72,2.64-24.46,1.81-31.05-3.57-28.34-15.02-38.27-28.09-48.3-13.3-10.21-28.19-20.55-38.65-48.99-13.08,7.74-24.41,27.78-23.77,71.36.31,21.49-14.06,41.27-29.48,53.67-10.4,8.37-21.28,13.34-28.41,13.47-8.25.15-13.18-2.22-15.92-6.05-2.7-3.77-3.27-9.13-2.44-15.39,1.38-10.43,6.59-23.54,10.52-35.47,2.53-7.67,4.54-14.83,4.48-20.4-.35-36.66-28.44-54.75-48.78-70.71-7.05-5.53-13.22-10.82-17.17-16.46-4.18-5.96-5.96-12.3-4-19.68,4.24-15.94,6.43-29.96.38-40.29-5.88-10.05-19.45-16.34-45.86-17.77,3.73,18.25-7.57,30.55-20.03,44.64-12.3,13.9-25.63,29.71-24.47,55.99.8,18.13,10.37,28.21,18.2,37.08,6.37,7.21,11.57,13.74,11.17,22.51-.39,8.57-6.25,19.51-22.54,35.65-1.38,1.37-2.53,2.17-3.46,2.52-.98.37-1.83.35-2.6.07-1.01-.37-1.96-1.3-2.74-2.95-3.05-6.35-5.3-26.12-26.88-47.56-23.97-23.81-37.26-32.61-44.41-47.91-4.46-9.54-6.57-21.61-7.3-41.39-12.18,14.82-17.79,27.53-19.51,38.71-2.77,18.03,4.58,31.97,10.27,44.11,4.04,8.63,7.22,16.42,6.08,24.04-.78,5.21-3.53,10.38-9.46,15.66-12.3,10.94-23.51,12.57-33.63,13.97-7.08.98-13.6,1.79-19.53,6.17-5.97,4.41-11.28,12.41-16.08,27.51-8.11,25.5-38.09,33.69-59.63,27.45-14.69-4.26-25.4-15.09-23.13-31.38,2.23-16.04,1.61-26.32-1.48-34.03-3.06-7.63-8.53-12.69-15.82-18.43-6.51-5.12-14.43-10.74-23.43-18.92-11.73-10.66-19.76-24.48-18.62-38.05.62-7.4,3.93-14.76,10.9-21.53-18.51,4.63-29.67,12.25-36.38,21.21-7.49,9.99-9.43,21.59-10.09,32.27-.67,10.89,3.99,16.97,7.93,22.93,2.61,3.96,4.93,7.88,5.62,12.84,1.01,7.29-1.52,16.95-12.57,32.55-16.02,22.62-23.77,37.58-23.85,51.79-.05,9.36,3.25,18.37,9.58,29.03,7.32,12.33,6.56,21.32,2.12,27.32-2.69,3.62-6.79,6.21-11.52,7.77-6.86,2.27-15.03,2.4-21.79.66-6.61-1.7-11.84-5.23-13.62-10.05-1.77-4.82-.29-11.2,7.32-18.66,10.75-10.54,14.99-20.62,15.01-30.05.01-9.43-4.17-18.15-10.03-25.93-12.13-16.09-31.41-28.18-37.71-34.08-7.49-7.02-10.88-13.47-11.56-19.68-1.01-9.21,4.03-18.07,11.21-27.85,16.45-22.39,44.21-50.23,26.75-102.57-14.17,40.46-35.93,53.44-58,63.73-22.23,10.36-44.85,17.8-59.81,49.42-12.59,26.61-4.62,51.83-1.36,69.79,2.39,13.18,2.05,22.67-8.22,26.84-9.08,3.68-15.41-.08-23.6-4.02-11.25-5.41-26.37-10.58-59.89,7.95-.85.47-1.93.16-2.41-.69-.47-.85-.16-1.93.69-2.41,35.31-19.53,51.29-13.74,63.14-8.04,7.21,3.47,12.72,7.18,20.73,3.93,4.96-2.01,6.86-5.62,7.21-10.46.26-3.58-.29-7.76-1.14-12.46-3.36-18.51-11.33-44.5,1.64-71.93,15.42-32.6,38.6-40.44,61.52-51.11,22.21-10.35,44.1-23.54,57.76-66.49.23-.72.89-1.21,1.64-1.23.76-.02,1.44.44,1.7,1.15,21.49,57.15-8.04,86.96-25.51,110.73-6.58,8.95-11.47,16.94-10.55,25.37.61,5.55,3.77,11.22,10.45,17.48,6.37,5.97,25.84,18.25,38.12,34.53,6.34,8.41,10.76,17.88,10.75,28.07-.02,10.2-4.45,21.18-16.07,32.58-6.17,6.05-7.91,11-6.47,14.91,1.43,3.9,5.84,6.48,11.17,7.85,6.14,1.58,13.56,1.47,19.79-.59,4-1.32,7.51-3.45,9.78-6.52,3.82-5.15,3.96-12.82-2.32-23.4-6.72-11.33-10.14-20.92-10.08-30.86.08-14.75,7.89-30.37,24.5-53.82,10.23-14.45,12.88-23.28,11.95-30.02-.61-4.4-2.74-7.85-5.06-11.37-4.3-6.51-9.24-13.2-8.51-25.1.69-11.33,2.85-23.59,10.79-34.18,7.91-10.56,21.59-19.52,45.51-24.1.81-.16,1.62.27,1.96,1.03.33.76.09,1.65-.57,2.14-9.81,7.23-14.35,15.39-15.05,23.67-1.06,12.57,6.61,25.26,17.47,35.13,10.44,9.49,19.42,15.5,26.4,21.31,7.29,6.08,12.46,11.98,15.02,21.09,2.16,7.66,2.44,17.65.43,32.1-2,14.35,7.66,23.74,20.61,27.49,19.92,5.77,47.77-1.54,55.27-25.12,5.13-16.14,10.97-24.57,17.36-29.29,6.43-4.75,13.47-5.77,21.15-6.83,9.55-1.32,20.15-2.78,31.76-13.11,3.89-3.46,6.26-6.83,7.48-10.23,2.89-8.06-.66-16.13-4.95-25.31-5.94-12.69-13.46-27.3-10.56-46.15,1.93-12.54,8.47-26.99,23.3-43.99.48-.55,1.25-.75,1.94-.5.69.25,1.15.89,1.17,1.62.55,21.87,2.46,34.66,7.11,44.6,7.02,15.01,20.18,23.53,43.7,46.9,18.99,18.87,23.47,36.46,26.32,45.21.44,1.35.83,2.47,1.25,3.33.23.48.66,1.02.75,1.13" style="fill:#e95c0c; fill-rule:evenodd;"/><path d="M148.25,265.33c.02.57.07,1.2.15,1.88.62,5.49,2.89,14.33,4.24,24.39,3,22.29,1.48,50.29-30.17,62.36-15.15,5.78-28.15,1.6-41.44-2.48-9.45-2.9-19.06-5.74-29.81-4.3-10.73,1.44-22.57,7.16-36.56,21.14-.69.69-1.81.69-2.5,0-.69-.69-.69-1.81,0-2.5,14.74-14.74,27.28-20.64,38.59-22.15,11.29-1.51,21.39,1.38,31.32,4.42,12.56,3.85,24.82,8.02,39.14,2.56,29.64-11.31,30.72-37.7,27.92-58.58-1.36-10.09-3.62-18.96-4.25-24.46-.33-2.86-.13-4.96.52-6.12.24-.42.64-.73,1.12-.85.47-.12.97-.03,1.38.23,15.73,10.12,25.98,18.43,32.27,25.52,6.63,7.46,8.98,13.69,8.85,19.23-.17,7.32-4.78,13.55-10.34,20.07-8.48,9.94-19.25,20.67-16.19,38.61,7,41.08,54.36,51.7,93.53,42.13,23.49-5.74,44.17-18.76,51.47-37.23,4.82-12.18,3.69-26.7-6.24-42.98-4.73-7.74-8.16-13.96-10.2-19.27-2.16-5.61-2.8-10.27-1.89-14.6.9-4.32,3.34-8.35,7.53-12.68,3.96-4.1,9.53-8.5,16.82-13.81.57-.42,1.33-.45,1.94-.1.61.36.95,1.04.86,1.74-1.95,16.08-2.54,24.55.56,31.57,3.11,7.04,9.89,12.57,22.29,22.9,10.57,8.81,12.52,19.47,11.71,30.54-.51,7.06-2.17,14.29-3.27,21.26-1.31,8.25-1.89,16.13,1.59,22.85,3.48,6.71,11.02,12.13,25.58,15.74,21.14,5.25,36.21,2.93,46.94-3.22,9.94-5.69,16.12-14.62,20-23.61,5.91-13.69,6.5-27.53,6.64-30.69.03-.75.54-1.4,1.26-1.62.72-.22,1.5.05,1.94.66,8.26,11.39,10.92,20.99,13.34,28.72,1.69,5.36,3.2,9.78,6.79,13.13,3.61,3.37,9.27,5.62,19.04,6.87,18.46,2.36,33.12-3.25,41.9-13.25,8.72-9.92,11.58-24.12,6.64-38.85-2.18-6.51-13.13-19.24-20.46-33-5.14-9.64-8.49-19.78-6.45-28.73,2.66-11.67,8.63-17.07,18.42-23.96,9.32-6.56,22.2-14.59,38.98-31.58.56-.57,1.42-.69,2.12-.3.69.39,1.05,1.19.86,1.96-4.77,19.83-13.87,36.5-19.31,51.34-3.91,10.65-5.94,20.3-2.66,29.5,3.31,9.27,11.95,17.99,29.02,26.87,25.94,13.51,44.41,14.41,56.94,11.27,12.29-3.08,18.75-10.02,20.84-12.27,11.71-12.61,9.26-28.06,6.26-43.43-1.57-8.06-3.33-16.11-3.57-23.77-.24-7.96,1.14-15.5,5.88-22.27,7.47-10.67,17.7-19.44,26.2-28.31,8.12-8.48,14.68-17.02,15.18-27.67.33-7.08-2.04-15.05-8.27-24.53-6.42-9.78-16.89-21.07-32.7-34.51-.68-.58-.83-1.57-.34-2.31.48-.75,1.45-1.02,2.25-.64,35.31,16.85,50.54,34.03,55.48,50.69,4.97,16.74-.43,33.1-6.79,48.45-4.1,9.89-8.59,19.35-10.69,28.21-1.99,8.42-1.8,16.28,3.33,23.39,8.15,11.29,19.69,16.1,29.8,21.22,8.08,4.09,15.28,8.4,19.58,15.8,4.28,7.38,5.75,17.89,2.02,34.55-5.08,22.7,11.02,36.61,31,40.16,18.3,3.25,39.93-2.06,52.24-17.36,8.2-10.2,12.2-24.83,8.39-44.24-1.51-7.74-7.21-22.57-9.09-37.15-1.3-10.11-.74-20.1,3.98-27.71,7.58-12.23,14.1-16.39,19.84-20.98,5.4-4.32,10.02-9.08,14.12-22.26.22-.71.86-1.2,1.6-1.24.74-.04,1.43.39,1.72,1.07,6.05,14.07,8.41,21.39,8.09,28.64-.31,7.18-3.3,14.33-8.19,28.04-11.2,31.43,12.84,63.52,42.1,77.88,17.47,8.57,36.88,10.87,51.88,2.65,9.95-5.45,17.89-15.54,22.05-31.37,4.24-16.12-2.46-28.09-8.52-39.31-4.87-9.01-9.32-17.59-8.44-27.2.88-9.58,7.05-20.32,23.89-33.51.62-.49,1.49-.5,2.12-.05.64.46.9,1.28.64,2.03-7.46,21.3-8.69,34.47-6.07,43.79,2.58,9.16,8.9,14.46,16.28,20.19,6.69,5.2,14.25,10.71,20.99,19.27,2.31,2.94,2.74,6.7,1.95,11.02-1.05,5.73-4.3,12.55-7.15,19.51-3.32,8.09-6.2,16.37-3.51,23.23,2.69,6.86,10.94,11.96,29.22,14.23,14.47,1.8,22.02-3.63,29.84-10.8,12.51-11.46,25.67-27.16,65.25-27.69.98-.01,1.78.77,1.8,1.75.01.98-.77,1.78-1.75,1.79-38.17.51-50.84,15.71-62.91,26.76-8.56,7.84-16.85,13.68-32.68,11.71-20.28-2.53-29.09-8.85-32.08-16.46-2.99-7.62-.15-16.88,3.53-25.87,2.75-6.71,5.93-13.27,6.94-18.8.59-3.2.46-6.01-1.25-8.19-6.54-8.3-13.89-13.62-20.38-18.66-8.01-6.22-14.72-12.09-17.52-22.03-2.5-8.88-1.85-21.13,4.17-40.07-12.21,10.52-17.09,19.2-17.82,27.18-.82,8.91,3.51,16.82,8.03,25.19,6.45,11.95,13.35,24.74,8.83,41.9-4.47,16.98-13.1,27.73-23.78,33.58-15.94,8.73-36.58,6.53-55.14-2.58-30.81-15.12-55.67-49.15-43.88-82.25,4.71-13.22,7.68-20.08,7.98-27,.26-6.09-1.58-12.21-6-22.82-4.05,10.91-8.6,15.39-13.78,19.53-5.5,4.4-11.78,8.36-19.04,20.08-4.32,6.97-4.66,16.13-3.47,25.39,1.87,14.49,7.55,29.23,9.06,36.92,4.05,20.7-.37,36.27-9.11,47.14-13.12,16.3-36.12,22.09-55.62,18.62-22-3.91-39.44-19.44-33.84-44.43,3.45-15.42,2.34-25.17-1.62-32-3.95-6.81-10.68-10.65-18.11-14.42-10.58-5.36-22.55-10.5-31.08-22.3-5.77-8-6.15-16.81-3.91-26.28,2.14-9.03,6.68-18.67,10.86-28.75,6.06-14.61,11.39-30.15,6.67-46.08-4.13-13.92-15.91-28.03-41.21-42.12,24.37,22.78,32.34,39.26,31.72,52.58-.54,11.49-7.4,20.81-16.16,29.95-8.38,8.75-18.49,17.37-25.86,27.89-4.28,6.11-5.46,12.95-5.24,20.13.23,7.48,1.97,15.33,3.51,23.2,3.22,16.49,5.42,32.99-7.14,46.52-2.26,2.43-9.25,9.97-22.57,13.3-13.07,3.27-32.38,2.52-59.44-11.57-18.18-9.46-27.2-18.95-30.72-28.83-3.54-9.95-1.56-20.4,2.67-31.91,4.82-13.14,12.55-27.72,17.53-44.7-14.74,14.13-26.25,21.38-34.8,27.4-8.96,6.31-14.57,11.16-17,21.85-2.35,10.32,3.4,22.26,10.01,33,6.96,11.29,14.95,21.28,16.81,26.81,5.39,16.04,2.17,31.5-7.33,42.32-9.44,10.75-25.16,16.96-45.01,14.42-10.82-1.38-17.01-4.06-21.01-7.79-4.02-3.76-5.85-8.64-7.74-14.65-2.04-6.48-4.21-14.33-9.98-23.49-.59,6.22-2.16,16.53-6.58,26.77-4.16,9.64-10.83,19.18-21.5,25.28-11.34,6.49-27.23,9.12-49.56,3.58-15.97-3.97-24.05-10.19-27.87-17.55-3.82-7.36-3.38-15.98-1.94-25.03,1.09-6.87,2.73-14,3.24-20.96.73-9.97-.92-19.62-10.44-27.56-13.02-10.85-19.99-16.79-23.26-24.19-3.01-6.81-2.94-14.92-1.31-29.36-5.5,4.11-9.85,7.65-13.08,11-3.63,3.75-5.83,7.19-6.61,10.94-.78,3.74-.14,7.75,1.73,12.6,1.98,5.15,5.33,11.19,9.92,18.7,10.66,17.46,11.68,33.06,6.51,46.13-7.67,19.41-29.24,33.34-53.93,39.37-41.13,10.05-90.52-1.84-97.87-44.97-3.27-19.22,7.9-30.86,16.99-41.5,4.98-5.84,9.34-11.3,9.49-17.85.12-4.86-2.14-10.24-7.96-16.79-5.84-6.58-15.18-14.21-29.27-23.42" style="fill:#e95c0c; fill-rule:evenodd;"/><path d="M13.11,408.06c-.87.45-1.94.12-2.39-.75-.45-.87-.12-1.94.75-2.39,28.95-15.17,41.59-16.34,58.78-15.15,11.23.78,24.45,2.61,45.71,2.12.59-.01,1.15.27,1.49.75,3.32,4.7,25.29,43.68,73.06,56.97,31.93,8.89,75.32,6.24,132.32-25.53,2.06-1.15,4.52-.75,8.31,1.44,7.01,4.05,20.05,14.3,49.89,26.03.91.36,1.36,1.39,1,2.3-.36.91-1.39,1.36-2.29,1-30.13-11.84-43.3-22.17-50.37-26.26-1.09-.63-2.01-1.1-2.83-1.38-.79-.27-1.42-.36-1.99-.04-58.13,32.41-102.43,34.91-135,25.85-46.97-13.07-69.69-50.28-74.48-57.57-20.85.42-33.93-1.38-45.07-2.15-16.64-1.15-28.86.06-56.89,14.75" style="fill:#e95c0c; fill-rule:evenodd;"/><path d="M9.98,434.58c-.88.42-1.94.04-2.36-.85-.42-.89-.04-1.94.85-2.36,11.32-5.33,26.76-15.47,66.34-15.22,20.47.13,26.83,4.83,37.09,13.81,6.58,5.75,14.83,13.34,29.88,22.67.83.52,1.09,1.61.57,2.44-.51.83-1.61,1.09-2.44.57-15.29-9.47-23.67-17.17-30.35-23.01-9.63-8.42-15.59-12.81-34.78-12.93-38.67-.24-53.75,9.68-64.81,14.88" style="fill:#e95c0c; fill-rule:evenodd;"/><path d="M17.48,444.85c-.97.08-1.83-.65-1.9-1.63-.08-.98.65-1.83,1.63-1.91,43.28-3.4,44.38-9.64,84.85,5.82.91.35,1.37,1.38,1.02,2.29-.35.91-1.37,1.37-2.29,1.02-39.73-15.18-40.81-8.93-83.31-5.6" style="fill:#e95c0c; fill-rule:evenodd;"/><path d="M703.71,356.48c-4.29,12.68-14.17,31.8-43.59,40.09-35.57,10.01-53.49,2.9-64.86.31-3.36-.76-6.07-1.16-8.51-.32-2.4.83-4.44,2.87-6.65,6.68-19.38,33.48-49.29,38.71-75.2,36.74-16.94-1.29-32.12-5.69-41.31-7.06-1.04-.15-1.99-.2-4.99,1.52-3.62,2.08-9.68,6.43-20.68,15.29-.76.61-1.88.49-2.49-.27-.61-.76-.49-1.88.27-2.49,11.24-9.04,17.43-13.47,21.13-15.6,4.33-2.49,5.78-2.17,7.28-1.95,9.13,1.37,24.21,5.75,41.05,7.03,24.75,1.88,53.36-3.01,71.87-34.98,2.78-4.81,5.53-7.21,8.56-8.26,2.99-1.03,6.32-.72,10.45.22,11.07,2.52,28.51,9.48,63.12-.26,37.23-10.48,41.43-39.35,44.1-47.6.23-.72.9-1.21,1.66-1.22.76-.01,1.44.46,1.69,1.18.12.34.24,1.07.3,2.14.1,1.92.14,5.25.39,9.54.84,14.44,4.09,39.93,21.18,58.08,11.35,12.05,28.82,20.79,55.71,20.94,72.97.39,99.91-50.56,100.44-51.28.32-.43.81-.69,1.34-.71.53-.03,1.04.19,1.4.58,3.17,3.52,6.72,11.9,18.33,17.73,7.75,3.9,19.08,6.64,36.2,6.14,37.95-1.1,52.38-13.53,55.9-15.48.79-.44,1.78-.21,2.3.52.73,1.02,12.97,31.87,56.35,31.6,22.75-.14,32.23-7.49,43.92-15.36,12.12-8.16,26.5-16.92,59.17-19.39.98-.07,1.83.66,1.9,1.63.07.97-.66,1.83-1.63,1.9-31.72,2.4-45.69,10.88-57.46,18.8-12.2,8.22-22.12,15.82-45.87,15.97-40.38.25-55.12-25.08-58.49-31.59-5.48,3.6-21.05,13.94-55.98,14.95-17.93.52-29.77-2.44-37.89-6.52-10.43-5.24-14.75-12.35-17.86-16.62-6.1,9.75-35.42,51.03-102.08,50.67-28.15-.15-46.39-9.44-58.27-22.05-17.76-18.85-21.27-45.3-22.13-60.3-.02-.31-.03-.62-.05-.92" style="fill:#e95c0c; fill-rule:evenodd;"/><path d="M1157.32,419.51c.97-.07,1.82.67,1.89,1.64.07.98-.67,1.82-1.64,1.89-31.71,2.2-56.41,17.61-80.15,26.18-24.45,8.82-47.88,10.65-76.49-15.06-6.87-6.18-11.52-8.66-15.88-8.73-2.84-.05-5.52.94-8.57,2.42-5.6,2.73-12.32,7.12-22.81,10.9-7.8,2.81-18.96,1.73-29.85-.82-14.43-3.38-28.37-9.25-32.97-11.25-18.36,18.7-17.23,20.24-39.97,35.17-.82.54-1.92.31-2.45-.51-.54-.82-.31-1.92.51-2.45,22.77-14.94,21.26-16.3,40.25-35.56.52-.52,1.3-.67,1.97-.38,2.78,1.23,17.84,7.87,33.48,11.54,10.16,2.38,20.56,3.56,27.84.94,10.33-3.72,16.94-8.06,22.46-10.75,3.62-1.76,6.81-2.84,10.18-2.78,4.95.08,10.38,2.62,18.19,9.64,27.28,24.52,49.62,22.77,72.92,14.36,24.01-8.67,49.03-24.16,81.1-26.38" style="fill:#e95c0c; fill-rule:evenodd;"/><path d="M728.77,446.27c.73.65.79,1.77.13,2.5-.65.73-1.77.79-2.5.14-19.15-17.18-19.98-16.8-33.74-37.23-21.79,14.68-63.38,19.98-90.38,8.48-33.19,32.38-34.79,30.05-47.01,34.99-.91.37-1.94-.07-2.3-.98-.37-.91.07-1.94.98-2.31,12.04-4.87,13.47-2.58,46.71-35.07.52-.51,1.3-.65,1.97-.35,26.53,11.94,68.66,6.4,89.45-8.68.39-.28.88-.4,1.35-.31.47.08.89.36,1.16.76,14.48,21.59,14.89,20.77,34.17,38.06" style="fill:#e95c0c; fill-rule:evenodd;"/><path d="M612.57,438.09c-.12.02-.62.1-.99.22-.86.28-1.89.75-3.02,1.34-5.65,2.94-13.54,8.65-14.57,9.4-.79.57-1.9.4-2.47-.39-.57-.79-.4-1.9.39-2.48,1.07-.77,9.19-6.65,15.02-9.67,1.93-1,3.64-1.69,4.83-1.89.86-.14,1.56-.05,2.07.16,30.57,12.78,31.93,12.24,76.64.68.64-.16,1.31.04,1.75.52l11.07,12.15c.66.72.6,1.84-.12,2.5-.72.66-1.84.61-2.5-.12l-10.35-11.36c-44.96,11.62-46.63,11.95-77.76-1.06" style="fill:#e95c0c; fill-rule:evenodd;"/><path d="M6.67,284.98c-.89.4-1.94,0-2.34-.9-.4-.89,0-1.94.9-2.34,27.2-12.11,38.76-9.58,47.95-6.26,5.7,2.06,10.42,4.55,17.85,3.6,1.3-.17,1.84-1.17,2.1-2.65.61-3.45-.27-8.96-1.41-15.86-4.7-28.35-14.25-78.73,40.92-108.91,41.14-22.5,60.7-32.49,70.55-49.31,6.53-11.15,8.75-25.29,10.34-48.01,2.58-36.98,37.5-43.55,45.27-46.75.9-.37,1.94.06,2.31.96.37.9-.06,1.94-.97,2.31-7.33,3.01-40.65,8.84-43.08,43.71-1.64,23.46-4.07,38.03-10.81,49.55-10.07,17.19-29.88,27.64-71.91,50.63-53.23,29.11-43.65,77.87-39.12,105.22,1.23,7.42,2.06,13.36,1.4,17.07-.59,3.3-2.23,5.16-5.14,5.54-6.16.79-10.65-.49-15.17-2.16-9.7-3.57-19.57-8.84-49.64,4.55" style="fill:#e95c0c; fill-rule:evenodd;"/><path d="M255.64,22.57c.49-.84,1.58-1.12,2.42-.63.84.5,1.13,1.58.63,2.42-19.13,32.55-14.06,55.7-8.45,77.7,5.82,22.8,12.15,44.4-5.22,73.37-1.58,2.64-23.28,24.49-30.87,44.16-2.83,7.32-3.72,14.32-.32,19.71,2.26,3.58,6.4,6.37,12.92,8.15,6.36,1.73,11.24,1.54,14.99-.25,5.63-2.69,8.55-8.9,10.23-16.77,2.23-10.51,2.11-23.96,2.1-36.86,0-13.24.11-25.92,2.79-34.48,10.13-32.43,26.49-42.7,41.36-53.24,14.28-10.13,27.09-20.55,30.95-52.86.08-.7.57-1.28,1.25-1.48.67-.2,1.4,0,1.86.54,18.34,21.45,24.98,38.71,26.2,53.08,1.22,14.4-3.03,25.94-6.63,35.97-4.45,12.36-8.05,22.28,3.24,32.68,5.83,5.37,13.06,9.01,20.03,12.91,8.55,4.79,16.72,10,21.86,18.83,5.13,8.81,7.3,21.27,3.61,40.7-1.09,5.71-1.29,10.18-.78,13.58.45,3.03,1.44,5.15,2.9,6.44,2.74,2.41,6.9,1.8,11.2-.3,7.21-3.52,14.77-11.43,17.8-19.94,6.2-17.38,9.4-26.57,15.16-33.35,5.78-6.8,14.15-11.22,30.87-18.85,16.08-7.34,16.33-22.52,14.62-39.27-.9-8.83-2.38-18.1-2.72-27.02-.35-9.2.54-18.04,4.39-25.71,6.55-13.09,15.45-20.88,22.39-28.42,4.88-5.3,8.76-10.45,9.82-17.52,1.08-7.18-.74-16.26-7.05-29.31-.33-.68-.19-1.5.35-2.04.54-.53,1.37-.66,2.04-.31,2.84,1.44,16.62,8.45,27.47,20.66,7.36,8.27,13.35,18.9,13.89,31.77.47,11.25.09,19.6.12,26.41.03,6.53.43,11.59,2.47,16.5,2.53,6.08,7.54,11.89,17.21,19.95,2.89-40.43,5.62-41.57,31.97-75.05,6.15-7.81,9.46-12.85,11.21-17.3,2.61-6.64,1.68-11.9,1.74-22.9,0-.98.8-1.77,1.78-1.76.98,0,1.77.8,1.76,1.78-.06,11.61.77,17.16-1.99,24.17-1.84,4.66-5.27,10-11.73,18.19-26.41,33.55-28.54,33.79-31.46,76.53-.04.66-.45,1.24-1.06,1.5-.61.26-1.31.17-1.82-.24-12.08-9.75-17.99-16.51-20.9-23.51-2.2-5.31-2.7-10.78-2.74-17.84-.04-6.78.34-15.08-.12-26.28-.5-11.98-6.15-21.86-12.99-29.56-7.46-8.39-16.35-14.21-21.82-17.37,4.91,11.42,6.16,19.78,5.15,26.53-1.17,7.79-5.34,13.54-10.72,19.39-6.74,7.34-15.45,14.88-21.82,27.61-3.58,7.15-4.34,15.41-4.02,23.99.33,8.85,1.81,18.04,2.71,26.8,1.87,18.39.97,34.8-16.67,42.86-16.01,7.31-24.1,11.41-29.64,17.92-5.56,6.54-8.54,15.47-14.52,32.24-3.34,9.36-11.66,18.07-19.59,21.93-5.8,2.82-11.41,3.02-15.1-.23-1.6-1.41-2.89-3.5-3.63-6.4-1.01-3.92-1.06-9.46.37-16.95,3.47-18.25,1.63-29.98-3.19-38.25-4.81-8.26-12.53-13.03-20.53-17.52-7.22-4.04-14.67-7.84-20.7-13.4-12.62-11.64-9.15-22.66-4.17-36.49,3.46-9.61,7.6-20.66,6.43-34.47-1.11-13.15-7.05-28.76-22.79-48.01-4.6,30.7-17.54,41.15-31.88,51.32-14.37,10.19-30.24,20.06-40.03,51.41-2.59,8.3-2.64,20.59-2.63,33.42.01,13.16.1,26.88-2.18,37.6-1.93,9.12-5.64,16.11-12.16,19.23-4.36,2.09-10.04,2.49-17.45.47-7.61-2.08-12.34-5.5-14.98-9.68-3.95-6.25-3.27-14.37.01-22.87,7.67-19.89,29.54-42.04,31.14-44.71,16.73-27.9,10.43-48.71,4.83-70.67-5.81-22.76-10.96-46.7,8.83-80.37" style="fill:#e95c0c; fill-rule:evenodd;"/><path d="M929.66,184.63c.36.43,1.88,2.22,3.73,3.9,3.6,3.29,9.23,7.56,15.45,9.8,3.95,1.43,8.14,2.04,12.17.92,6.9-1.92,13.1-8.85,17.09-24.48.78-3.04-.23-10.16-.95-18.97-1.13-13.91-1.67-31.8,5.03-45.22,6.38-12.77,12.58-20.56,16.65-27.01,2.81-4.46,4.59-8.19,4.43-12.67-.16-4.59-2.31-9.89-7.08-17.4-.41-.65-.36-1.49.14-2.09.49-.59,1.31-.8,2.03-.51,11.12,4.53,19.52,7.63,25.93,10.8,6.71,3.31,11.3,6.72,14.62,11.69,4.32,6.48,6.45,15.73,8.02,31.37,2.16,21.49,18.14,31.39,32.25,42.52,14.96,11.79,28.03,24.8,23.13,52.26-.52,2.88-6.53,17.92-7.47,32.36-.53,8.18.53,16.19,5.6,21.35,3.33,3.39,8.4,5.48,15.76,5.64,11.15.25,17.18-1.4,20.28-5.25,3.11-3.86,3.17-9.7,2.86-17.24-.66-16.36-3.61-40.27,11.25-69.95.44-.87,1.51-1.23,2.38-.79.87.44,1.23,1.5.79,2.38-14.49,28.93-11.52,52.26-10.88,68.22.35,8.61-.1,15.21-3.65,19.61-3.55,4.41-10.33,6.85-23.12,6.57-8.53-.19-14.34-2.77-18.21-6.7-3.87-3.94-5.82-9.29-6.47-15.21-1.85-16.72,6.74-38.09,7.37-41.6,4.59-25.72-7.83-37.82-21.84-48.86-14.84-11.7-31.31-22.35-33.58-44.95-1.49-14.81-3.35-23.61-7.45-29.76-2.99-4.49-7.19-7.5-13.24-10.48-5.37-2.65-12.16-5.26-20.8-8.72,3.3,5.95,4.76,10.55,4.91,14.61.18,5.17-1.72,9.53-4.97,14.68-4.02,6.37-10.16,14.07-16.47,26.7-6.43,12.85-5.75,30.02-4.67,43.35.76,9.35,1.67,16.9.85,20.13-4.46,17.46-11.86,24.87-19.57,27.02-4.74,1.32-9.68.68-14.32-1-6.68-2.41-12.76-6.98-16.63-10.52-2.22-2.02-3.73-3.73-4.28-4.52-.18-.25-.29-.46-.35-.61l-.16-.52c-.53-3.46-2.35-6.33-4.9-9-2.74-2.87-6.29-5.48-10.11-8.2-12.12-8.63-26.65-18.32-28.25-38.87-1.28-16.46-1.95-25.11-5.61-32.14-3.3-6.34-9.01-11.32-19.6-19.6,1.39,9.57.61,16.46-1.5,21.92-2.45,6.33-6.73,10.77-11.77,15.15-9.43,8.19-21.64,16.23-28.06,38.34-4.36,15.04.69,30.29,1.48,43.77.42,7.2-.32,13.93-3.92,19.92-3.58,5.95-10.01,11.22-21.17,15.44-.62.23-1.32.1-1.81-.34-.49-.44-.7-1.12-.54-1.76,9.44-36.88,9.82-52.5-2.57-75.44-10.47-19.4-25.4-27.86-36.41-37.64-5.8-5.15-10.55-10.65-13.21-18.07-2.65-7.37-3.26-16.66-.64-29.46,5.4-26.37-.55-26.18-12.95-49.6-.46-.86-.13-1.94.73-2.39.87-.46,1.94-.13,2.4.74,12.98,24.51,18.94,24.38,13.3,51.97-2.35,11.5-2.01,19.97.22,26.73,3.35,10.15,10.91,16.38,19.53,23.26,10.06,8.02,21.55,16.83,30.16,32.78,12.42,23.01,12.65,38.89,3.74,74.61,7.89-3.43,12.84-7.46,15.8-12.03,5.02-7.75,4.29-16.92,2.95-26.77-1.59-11.68-4.09-24.26-.48-36.7,6.69-23.05,19.31-31.49,29.14-40.03,4.59-3.99,8.55-7.98,10.79-13.75,2.25-5.82,2.74-13.41.55-24.51-.14-.72.18-1.46.8-1.85.63-.39,1.43-.35,2.02.11,13.54,10.49,20.36,16.22,24.18,23.57,3.82,7.34,4.66,16.33,6,33.5,1.5,19.27,15.4,28.16,26.77,36.26,8.16,5.81,15.04,11.33,16.4,19.22" style="fill:#e95c0c; fill-rule:evenodd;"/><path d="M1152.7,121.05c.77-.6,1.89-.45,2.48.32.6.78.45,1.89-.32,2.48-35.88,27.6-31.77,58.05-29.07,79.5.75,5.96,1.39,11.26,1.12,15.66-.22,3.6-1.04,6.64-2.76,9.03-1.75,2.44-4.44,4.26-8.5,5.24-2.2.53-3.94.35-5.3-.32-1.34-.65-2.37-1.79-3.08-3.38-.85-1.94-1.23-4.65-1.21-7.95.07-10.02,3.72-25.9,5.31-40.54,1.02-9.41,1.21-18.3-1.18-24.66-7.06-18.76-17.66-24.58-28.03-32.07-10.87-7.85-21.56-17.4-28.16-43.9-3.83-15.38-12.86-21.71-21.52-26.53-6.18-3.44-12.18-6.2-16.29-10.55-10.01-10.61-7.1-21.22-2.27-29.12,3.03-4.95,6.82-8.77,8.31-10.69.6-.77,1.71-.91,2.49-.31.77.6.91,1.71.31,2.48-1.45,1.87-5.15,5.56-8.09,10.37-4.12,6.73-6.71,15.79,1.83,24.84,3.88,4.11,9.59,6.64,15.43,9.89,9.37,5.22,19.09,12.13,23.23,28.77,6.29,25.26,16.43,34.4,26.79,41.88,10.86,7.85,21.88,14.03,29.27,33.69,2.55,6.77,2.47,16.25,1.39,26.28-1.57,14.52-5.22,30.25-5.29,40.19-.01,2.28.16,4.23.63,5.74.35,1.12.84,1.97,1.67,2.38.75.37,1.71.35,2.92.06,3.06-.74,5.14-2.03,6.46-3.87,1.36-1.89,1.93-4.32,2.1-7.18.25-4.21-.38-9.29-1.1-15-2.81-22.34-6.95-54.01,30.43-82.75" style="fill:#e95c0c; fill-rule:evenodd;"/><path d="M969.98,17.45c.38-.9,1.42-1.32,2.32-.93s1.32,1.43.94,2.32c-3.67,8.62-4.38,14.18-3.59,18.29.77,4.05,2.98,6.62,4.91,9.32,1.81,2.54,3.41,5.17,3.89,8.78.68,5.16-.97,12.52-8.39,24.96-9.78,16.42-10.74,27.21-9.78,40.14.66,8.86,2.2,18.7,2.53,31.88.14,5.94-.79,11.72-2.98,15.82-1.63,3.04-3.94,5.2-6.96,6.07-2.91.84-6.54.5-10.96-1.71-6.01-2.99-13.69-9.55-23.26-21.21-11.55-14.08-13.4-34.56-16.17-50.47-.89-5.08-1.87-9.67-3.35-13.38-1.35-3.38-3.09-6-5.69-7.43-2.19-1.2-11.39-4.62-18.92-10.54-5.31-4.17-9.77-9.57-10.79-16.2-.85-5.53.65-11.98,6.25-19.35,5.31-6.99,14.41-14.9,28.84-23.73.83-.51,1.93-.25,2.43.59.51.83.25,1.93-.58,2.44-13.92,8.53-22.74,16.11-27.87,22.85-4.84,6.36-6.3,11.88-5.57,16.66.88,5.74,4.87,10.34,9.47,13.95,7.33,5.76,16.3,9.05,18.43,10.21,2.64,1.45,4.67,3.8,6.24,6.9,2.16,4.25,3.48,9.95,4.6,16.41,2.68,15.38,4.27,35.23,15.43,48.83,9.11,11.12,16.37,17.43,22.1,20.29,3.4,1.69,6.16,2.12,8.39,1.48,2.12-.61,3.68-2.21,4.82-4.34,1.95-3.64,2.69-8.79,2.56-14.06-.32-13.1-1.86-22.89-2.52-31.7-1.02-13.59-.02-24.95,10.27-42.22,6.76-11.35,8.54-17.97,7.92-22.69-.39-2.97-1.77-5.1-3.26-7.19-2.2-3.08-4.62-6.09-5.51-10.71-.88-4.57-.27-10.78,3.81-20.35" style="fill:#e95c0c; fill-rule:evenodd;"/><path d="M880.47,20.98c.91-.36,1.94.09,2.3,1,.36.91-.09,1.94-1,2.3-15.75,6.22-28.16,10.09-36.6,19.73-8.42,9.62-12.78,24.94-12.87,53.85-.05,15.48-8.76,31.86-22.32,35.34-9.03,2.32-20.38-.92-32.86-14.31-14.49-15.55-10.53-31.19-6.72-48.7,3.59-16.52,6.89-34.8-8.22-56.41-.56-.8-.36-1.91.44-2.47.8-.56,1.91-.36,2.47.44,15.86,22.69,12.54,41.85,8.78,59.19-3.55,16.35-7.68,31.02,5.85,45.54,11.23,12.05,21.27,15.38,29.39,13.3,12.16-3.12,19.61-18.04,19.66-31.92.09-30.19,4.96-46.13,13.75-56.17,8.78-10.02,21.58-14.22,37.96-20.69" style="fill:#e95c0c; fill-rule:evenodd;"/><path d="M603.03,21.71c-.26-.94.3-1.92,1.24-2.17.94-.26,1.92.3,2.17,1.24.43,1.58,3.02,11.14,2.13,20.21-.57,5.77-2.55,11.31-7.09,14.77-3.03,2.31-7.21,3.73-12.97,3.58-.66-.02-7.35-1.08-14.26-4.5-7.02-3.47-14.19-9.36-15.78-18.75-1.33-7.84,1.23-18.3,11.61-32.02.59-.78,1.7-.93,2.48-.34.78.59.93,1.7.34,2.48-9.52,12.59-12.16,22.09-10.94,29.29,1.39,8.16,7.76,13.15,13.86,16.16,6.21,3.07,12.19,4.12,12.79,4.13,4.75.12,8.22-.95,10.72-2.86,3.75-2.87,5.24-7.53,5.71-12.3.84-8.5-1.62-17.45-2.02-18.93" style="fill:#e95c0c; fill-rule:evenodd;"/><path d="M498.5,18.09c.26-.94,1.24-1.49,2.18-1.23.94.26,1.49,1.24,1.23,2.18-5.36,19.22-4.8,19.18-3.73,39.05.62,11.47-5.01,17.47-11.19,24.2-4.23,4.61-8.72,9.62-11.1,17.48-2.4,7.95-2.65,18.77,1.46,34.93,3.15,12.37,2.52,21.15-.25,27.77-4.14,9.91-13.17,15.05-22.23,19.97-9.23,5.02-18.53,9.78-21.31,20.53-2.23,8.61-4.31,13.24-6.1,15.13-1.25,1.33-2.52,1.66-3.67,1.47-.94-.16-1.91-.74-2.78-1.8-.92-1.11-1.81-2.85-2.64-5-3.12-8.05-5.67-22.46-8.44-28.53-4.68-10.25-14.14-17.48-22.25-26.26-8.53-9.23-15.67-20.06-15.18-37.19.97-34.07,4.58-49.32-36.44-102.48-.6-.77-.46-1.89.32-2.48.77-.6,1.89-.45,2.48.32,41.92,54.32,38.17,69.93,37.17,104.74-.55,19.27,9.34,29.97,19.25,39.84,6.98,6.95,13.97,13.51,17.87,22.04,2.79,6.11,5.38,20.61,8.52,28.72.57,1.47,1.15,2.71,1.76,3.61.19.28.39.53.59.72.13.12.23.24.37.26.09.01.14-.09.24-.17.27-.22.54-.54.82-.96,1.43-2.11,2.96-6.19,4.68-12.87,3.04-11.77,12.95-17.26,23.05-22.75,8.35-4.54,16.83-9.09,20.65-18.23,2.54-6.08,2.98-14.16.08-25.53-4.34-17.04-3.96-28.45-1.42-36.83,2.56-8.46,7.32-13.89,11.88-18.85,5.54-6.04,10.82-11.32,10.26-21.61-1.11-20.46-1.67-20.42,3.85-40.2" style="fill:#e95c0c; fill-rule:evenodd;"/><path d="M313.07,19.79c-.03-.98.75-1.79,1.73-1.81.98-.03,1.79.75,1.81,1.73.05,2.01.39,15.39-.55,25.61-.42,4.6-1.13,8.59-2.17,10.77-6.8,14.23-17.66,21.67-26.85,22.61-6.54.67-12.33-1.84-15.64-7.42-5.6-9.43-4.21-17.74.08-27.97,4.03-9.61,10.67-21.02,15.82-37.09.3-.93,1.3-1.44,2.23-1.15.93.3,1.45,1.3,1.15,2.23-5.19,16.19-11.86,27.69-15.93,37.38-3.8,9.07-5.27,16.43-.3,24.79,2.58,4.35,7.13,6.23,12.24,5.7,8.29-.85,17.89-7.78,24.02-20.61.92-1.93,1.47-5.48,1.84-9.56.92-10.05.59-23.21.54-25.2" style="fill:#e95c0c; fill-rule:evenodd;"/><path d="M168.11,24.85c-.21-.96.4-1.9,1.36-2.1.96-.21,1.9.4,2.1,1.36,3.25,15.07,5.23,27.03,5.45,36.75.23,10.05-1.43,17.78-5.4,24.14-3.96,6.35-10.25,11.36-19.46,15.88-8.93,4.38-20.66,8.33-35.71,12.72-26.61,7.76-60.37,45.95-61.61,88.64-.08,2.61-.61,20.31-6.73,34.15-3.19,7.22-7.92,13.38-14.71,16.12-6.76,2.72-15.66,2.13-27.34-4.54-.85-.48-1.14-1.57-.66-2.42.49-.85,1.57-1.14,2.42-.66,10.38,5.93,18.25,6.75,24.26,4.33,5.97-2.4,9.99-7.92,12.8-14.26,5.88-13.3,6.35-30.31,6.42-32.82,1.28-44.34,36.52-83.87,64.16-91.93,14.81-4.32,26.36-8.19,35.14-12.5,8.5-4.17,14.36-8.72,18.02-14.57,3.65-5.84,5.07-12.96,4.86-22.19-.21-9.55-2.18-21.28-5.37-36.08" style="fill:#e95c0c; fill-rule:evenodd;"/><path d="M11.81,214.52c-.97-.09-1.69-.95-1.6-1.93.09-.97.95-1.69,1.93-1.6,8.84.81,14.69-.68,18.61-4.08,6.02-5.23,7.47-14.65,8.61-25.94,1.81-18,2.51-40.6,15.86-59.99,8.95-13.01,23.56-24.61,48.04-32.38,17.79-5.65,27.37-12.55,32.44-20.67,5.06-8.1,5.61-17.35,5.62-27.51,0-9.09-.44-18.9,1.14-29.29.15-.97,1.05-1.63,2.02-1.48.97.15,1.63,1.05,1.48,2.02-1.55,10.2-1.09,19.83-1.1,28.76-.01,10.86-.75,20.72-6.16,29.38-5.39,8.64-15.45,16.16-34.37,22.17-23.51,7.47-37.6,18.53-46.19,31.02-12.97,18.85-13.49,40.85-15.26,58.34-1.25,12.36-3.22,22.54-9.81,28.26-4.49,3.9-11.13,5.86-21.26,4.93" style="fill:#e95c0c; fill-rule:evenodd;"/><path d="M8.96,57.74c-.83-.51-1.1-1.6-.59-2.43.51-.83,1.6-1.1,2.44-.59,13.32,8.14,19.82,16.78,22.09,25.6,3.39,13.12-2.67,26.83-10.34,40.37-6.13,10.83-13.25,21.58-16.8,31.88-3.36,9.78-3.42,19.14,4.27,27.73,1.61,1.8,3.1,2.62,4.61,2.43,1.16-.15,2.25-.85,3.34-1.9,1.31-1.26,2.56-3.01,3.77-5.11,10.16-17.56,17.26-58.59,18.79-62.13,11.14-25.75,21.17-31.93,33.57-36.46,7.95-2.91,16.96-5.06,28.05-11.57,17.02-9.99,21.2-25.22,21.87-38.16.46-8.92-.71-16.8-.67-21.32,0-.98.81-1.77,1.79-1.76.98,0,1.76.81,1.75,1.79-.04,4.56,1.13,12.49.67,21.47-.72,13.93-5.29,30.29-23.61,41.04-11.32,6.64-20.51,8.88-28.63,11.84-11.71,4.28-21.02,10.24-31.54,34.54-1.54,3.56-8.75,44.82-18.97,62.5-2.97,5.14-6.35,8.32-9.73,8.76-2.46.32-5.08-.65-7.7-3.58-8.67-9.68-8.77-20.22-4.98-31.24,3.61-10.49,10.82-21.45,17.06-32.48,7.19-12.69,13.17-25.45,9.99-37.74-2.1-8.13-8.24-15.96-20.51-23.46" style="fill:#e95c0c; fill-rule:evenodd;"/><path d="M62.22,63.89c16.62-1.49,27.32-11.81,34.05-22.35,6.85-10.72,9.63-21.71,10.27-24.23.24-.95,1.2-1.52,2.15-1.28.95.24,1.52,1.2,1.28,2.15-.67,2.63-3.57,14.08-10.72,25.27-7.26,11.36-18.87,22.4-36.82,23.98-.47.04-5.75-.6-11.69-3.11-5.89-2.48-12.42-6.77-15.62-13.74-4.17-9.08-2.83-23.03,14.12-43.88.62-.76,1.73-.88,2.49-.26.76.62.87,1.73.26,2.49-15.6,19.19-17.49,31.81-13.65,40.17,2.81,6.11,8.62,9.78,13.78,11.95,4.73,1.99,8.96,2.73,10.06,2.83.01,0,.02,0,.04,0" style="fill:#e95c0c; fill-rule:evenodd;"/><path d="M51.65,23.72c-.1-.97.61-1.84,1.58-1.94.97-.1,1.84.61,1.94,1.58.11,1.1.95,9.54,3.9,15.02.99,1.83,2.17,3.35,3.8,3.83.98.3,2.1.15,3.38-.46,5.89-2.83,8.25-7.96,9.21-13.24,1.04-5.71.51-11.62.62-15.52.03-.98.85-1.75,1.82-1.72.98.03,1.75.84,1.72,1.82-.12,4.03.4,10.15-.68,16.06-1.16,6.33-4.1,12.4-11.16,15.79-2.25,1.08-4.22,1.18-5.94.66-2.43-.73-4.41-2.8-5.89-5.54-3.22-5.96-4.19-15.14-4.31-16.34" style="fill:#e95c0c; fill-rule:evenodd;"/><path d="M379.47,24.14c-.21-.95.4-1.9,1.36-2.11.95-.21,1.9.4,2.11,1.35,9.81,45.1,13.79,44.91,9.38,90.63-1.52,15.69,10.91,33.05,24.9,42.04,9.03,5.8,18.75,8.23,25.77,3.85,3.71-2.31,6.58-6.53,8.21-13,1.73-6.86,2.05-16.17.45-28.38-.92-7.06-2.28-12.33-3.07-17.02-.84-4.97-1.04-9.32.39-14.31,1.85-6.45,6.52-14.04,16.54-25.6,17.61-20.32,4.62-45.4,4.41-46.15-.27-.94.27-1.92,1.21-2.2.94-.27,1.92.27,2.19,1.21.23.8,13.75,27.66-5.14,49.45-9.52,10.99-14.05,18.13-15.81,24.26-1.27,4.44-1.04,8.32-.3,12.75.79,4.72,2.15,10.04,3.09,17.15,1.67,12.79,1.28,22.52-.53,29.71-1.91,7.58-5.42,12.42-9.77,15.14-8.03,5.01-19.23,2.77-29.56-3.88-15.05-9.67-28.14-28.49-26.51-45.36,4.36-45.17.37-44.97-9.32-89.53" style="fill:#e95c0c; fill-rule:evenodd;"/><path d="M448.37,20.14c-.27-.94.28-1.92,1.22-2.19.94-.27,1.92.28,2.18,1.22,4.54,16.05,6.27,24.82,3.98,32.39-2.29,7.55-8.62,14.02-20.69,25.37-6.61,6.22-8.03,13.58-7.54,20.76.52,7.58,3.1,14.97,4.33,20.79.95,4.5.99,8.19-.63,10.61-1.65,2.47-5.11,3.97-11.76,3.34-7.61-.72-12.67-3.45-15.92-7.27-3.26-3.82-4.72-8.8-5-14.19-.79-15.3,8.14-34.01,9.34-36.51,6.46-13.48,2.69-23.44-.84-33.9-3.79-11.23-7.37-22.98.15-39.53.41-.89,1.46-1.28,2.35-.88.89.4,1.28,1.46.88,2.35-7.03,15.46-3.56,26.43-.02,36.92,3.81,11.27,7.65,22.03.68,36.56-1.14,2.38-9.74,20.21-8.99,34.8.24,4.57,1.4,8.83,4.16,12.07,2.76,3.24,7.11,5.43,13.56,6.04,2.57.24,4.54.17,6.03-.23,1.15-.31,1.96-.81,2.45-1.55.53-.79.71-1.81.72-2.98.02-1.45-.23-3.11-.61-4.93-1.25-5.96-3.86-13.53-4.4-21.28-.56-8.16,1.13-16.5,8.65-23.58,11.4-10.72,17.57-16.68,19.72-23.81,2.15-7.12.27-15.32-4-30.4" style="fill:#e95c0c; fill-rule:evenodd;"/><path d="M421.63,21.06c.17-.96,1.1-1.6,2.06-1.43.96.17,1.6,1.1,1.43,2.06-.21,1.18-2.36,12.86-1.2,20.04.2,1.25.5,2.35.96,3.18.29.52.63.93,1.13,1.06.92.24,2.07-.26,3.64-1.35,3.1-2.16,3.41-4.63,3.36-9.19-.06-5.36-.73-13.26.45-25.92.09-.97.96-1.69,1.93-1.6.97.09,1.69.95,1.6,1.93-1.4,15.06-.16,23.32-.5,28.6-.27,4.15-1.41,6.71-4.82,9.09-2.75,1.91-4.93,2.29-6.54,1.88-1.15-.3-2.11-.99-2.87-2.03-.89-1.21-1.5-2.98-1.84-5.07-1.24-7.61.98-19.99,1.21-21.24" style="fill:#e95c0c; fill-rule:evenodd;"/><path d="M575.93,24.79c0-.98.8-1.77,1.78-1.77.98,0,1.77.8,1.77,1.78,0,.33-.58,4.28.06,7.53.24,1.2.58,2.33,1.41,2.88.81.53,1.95.32,3.64-.53,2.33-1.17,4.07-4.21,5.46-7.44,2.29-5.32,3.47-11.32,3.68-12.39.19-.96,1.12-1.58,2.08-1.4.96.19,1.58,1.12,1.4,2.08-.22,1.13-1.48,7.48-3.91,13.11-1.76,4.07-4.18,7.72-7.12,9.2-3.3,1.66-5.61,1.36-7.18.32-1.54-1.02-2.5-2.94-2.94-5.15-.7-3.56-.13-7.87-.13-8.23" style="fill:#e95c0c; fill-rule:evenodd;"/><path d="M788.06,16.32c-.62-.76-.5-1.88.25-2.49.76-.62,1.88-.51,2.49.25,14.89,18.25,12.7,34.37,8.75,49.07-2.49,9.29-5.76,17.97-5.35,26.24.36,7.23,5.94,10.47,10.13,9.22,1.63-.49,2.99-1.7,3.59-3.62,1.45-4.59,1.04-9.82.98-15.68-.09-9.4.6-20.32,9.66-32.73,11.13-15.25,16.34-19.15,19.65-37.65.17-.96,1.09-1.6,2.06-1.43.96.17,1.6,1.09,1.43,2.06-3.43,19.18-8.73,23.29-20.28,39.11-8.47,11.61-9.06,21.82-8.98,30.61.06,6.27.4,11.86-1.15,16.77-1.97,6.24-8.83,7.94-14.2,4.91-3.37-1.9-6.16-5.68-6.44-11.39-.43-8.61,2.87-17.66,5.47-27.33,3.69-13.75,5.85-28.85-8.07-45.91" style="fill:#e95c0c; fill-rule:evenodd;"/><path d="M935.38,142.24c.13-.1.38-.29.55-.48.53-.6,1.08-1.48,1.69-2.66,5-9.73,7.07-30.87,6.1-48.51-.39-7.04-1.26-13.53-2.66-18.51-.87-3.1-1.92-5.59-3.22-7.18-8.32-10.1-10.61-16.66-9.49-21.72.77-3.5,3.16-6.42,6.68-9.34,7.82-6.49,21.5-13.25,32.03-30.08.52-.83,1.61-1.08,2.44-.56.83.52,1.08,1.61.56,2.44-10.79,17.26-24.75,24.28-32.77,30.93-2.82,2.33-4.87,4.57-5.48,7.37-.45,2.06-.11,4.39,1.15,7.24,1.39,3.17,3.86,6.9,7.62,11.46,3.7,4.5,6.01,15.28,6.69,27.74,1.01,18.31-1.3,40.23-6.48,50.32-.95,1.85-1.85,3.11-2.65,3.87-.79.75-1.57,1.11-2.27,1.22-1.2.19-2.36-.24-3.39-1.48-.91-1.1-1.77-3.06-2.52-5.69-2.58-9.06-4.32-26.8-7.35-41.24-1.18-5.62-2.54-10.73-4.25-14.59-1.04-2.34-2.17-4.19-3.51-5.3-7.73-6.44-13.43-11.61-17.04-16.36-2.57-3.38-4.1-6.57-4.65-9.82-.68-4.09.18-8.32,2.78-13.19,2.42-4.55,6.39-9.72,11.98-16,.65-.73,1.77-.8,2.5-.15.73.65.8,1.77.14,2.5-5.35,6.01-9.18,10.95-11.5,15.31-2.15,4.05-2.98,7.54-2.41,10.94.58,3.47,2.58,6.81,5.84,10.54,3.48,3.97,8.37,8.3,14.62,13.51,3.02,2.52,5.45,7.98,7.32,14.92,4.08,15.13,5.94,37.43,8.93,47.97.42,1.47.85,2.69,1.33,3.6.21.39.55.8.7.97" style="fill:#e95c0c; fill-rule:evenodd;"/><path d="M1031.7,22.76c.07-.98.91-1.71,1.89-1.65.98.07,1.71.91,1.65,1.89-.45,6.47-.04,10.7,1.62,14.11,1.66,3.4,4.54,5.94,8.82,9.13,6.1,4.55,14.94,10.25,27.17,20.73,1.01.87,2.57,3.79,4.5,7.99,4.08,8.88,10.41,23.79,19.13,34.38,7.85,9.52,17.66,15.56,29.65,9.28,13.43-7.03,18.83-22.4,20.92-39.13,1.94-15.51.97-32.24.43-45.07-.37-8.86-.51-15.93.52-19.64.26-.94,1.23-1.5,2.18-1.24.94.26,1.5,1.23,1.24,2.18-.97,3.51-.74,10.19-.39,18.55.55,13,1.51,29.95-.46,45.66-2.24,17.96-8.37,34.28-22.79,41.83-13.71,7.18-25.06.72-34.03-10.16-8.93-10.83-15.45-26.06-19.62-35.16-1.03-2.25-1.91-4.12-2.65-5.41-.37-.65-.66-1.13-.93-1.36-12.15-10.4-20.92-16.06-26.98-20.58-4.84-3.61-8.01-6.57-9.89-10.42-1.87-3.84-2.48-8.6-1.97-15.91" style="fill:#e95c0c; fill-rule:evenodd;"/><path d="M1122.49,21.41c-.44-.87-.08-1.94.79-2.38.87-.44,1.94-.08,2.38.79,3.44,6.88,11.04,19.18,14.4,32.31,3.5,13.66,2.49,28.16-11.61,38.8-8.29,6.26-14.39,7.35-19.17,5.57-4.72-1.76-8.34-6.49-11.67-12.59-3.08-5.65-5.99-12.48-9.7-18.84-3.56-6.11-7.86-11.78-13.86-15.37-9.49-5.67-14.23-9.9-16.68-14.06-1.92-3.25-2.49-6.49-2.69-10.39-.18-3.58-.05-7.75-.56-13.14-.09-.97.63-1.84,1.6-1.93.97-.09,1.84.62,1.93,1.6.51,5.45.38,9.67.56,13.29.17,3.29.59,6.04,2.2,8.78,2.26,3.83,6.72,7.6,15.45,12.81,6.51,3.89,11.23,9.99,15.1,16.62,3.72,6.38,6.65,13.25,9.75,18.93,2.85,5.23,5.75,9.46,9.79,10.97,3.98,1.48,8.9.13,15.8-5.07,12.74-9.62,13.48-22.76,10.32-35.1-3.29-12.85-10.77-24.88-14.14-31.61" style="fill:#e95c0c; fill-rule:evenodd;"/><path d="M1086.44,21.79c.04-.98.87-1.73,1.85-1.69.97.04,1.73.87,1.69,1.85-.64,14.12,3.93,19.56,9.17,24.94,5.73,5.87,12.14,11.69,14.3,26.83.4,2.83,1.3,4.64,2.6,5.55,1.92,1.34,4.47.42,6.51-1.4,3.51-3.14,5.55-9.25,1.43-14.98-4.91-6.82-10.37-11.32-14.52-15.67-4.55-4.78-7.57-9.42-7.19-16.21.31-5.56,3-12.68,9.43-22.72.53-.82,1.62-1.06,2.45-.54.82.53,1.06,1.62.54,2.45-5.97,9.31-8.59,15.85-8.88,21.01-.32,5.71,2.39,9.55,6.22,13.57,4.24,4.45,9.81,9.07,14.82,16.05,6.34,8.82,1.49,18.29-4.43,21.45-2.86,1.52-5.96,1.62-8.41-.09-1.89-1.32-3.49-3.82-4.08-7.95-2.01-14.05-8.02-19.41-13.33-24.86-5.8-5.94-10.89-11.96-10.18-27.57" style="fill:#e95c0c; fill-rule:evenodd;"/><path d="M322.78,391.81c-5.76,6.09-21.51,20-42.47,30.5-24.12,12.08-55.09,19.61-85.6,5.79-13.42-6.08-31.77-16.13-43.4-28.98-7.35-8.12-12.03-17.35-11.44-27.39-21.31,6.82-35.22,4.28-48.26.91-8.73-2.26-17.05-4.92-27.07-5.2-29.97-.82-55.53,22.93-55.99,23.26-.8.56-1.9.38-2.47-.42-.57-.8-.38-1.91.42-2.47.47-.34,27.06-24.76,58.13-23.91,10.3.28,18.87,2.98,27.86,5.31,13.02,3.37,26.95,5.88,48.84-1.71.59-.2,1.24-.08,1.72.32.48.4.71,1.02.62,1.63-1.57,10.08,3,19.26,10.27,27.29,11.32,12.5,29.18,22.22,42.24,28.13,29.43,13.33,59.29,5.92,82.55-5.73,23.34-11.69,40.09-27.68,43.12-31.63.32-.42.82-.67,1.35-.69.53-.02,1.04.21,1.39.6.09.1.43.73.94,1.86,3.34,7.42,20.17,42.1,67.83,45.18,41.02,2.65,57.4-22.84,62.05-28.81.5-.64,1.38-.86,2.12-.53,6.24,2.78,45.49,23.18,78.14,2.77,28.41-17.76,29.18-37.59,27.38-50.26-.1-.72.24-1.43.87-1.79.63-.36,1.42-.3,1.98.15,17.19,13.74,60.45,27.96,98.77,8.09,12.76-6.62,18.51-18.16,20.76-29.91,3.44-17.99-1.23-36.54-2.2-39.65-.21-.68,0-1.42.55-1.88.54-.46,1.31-.55,1.94-.23,23.35,11.73,39.58,20.48,47.06,34.69,5.05,9.59,6.21,21.69,2.75,38.9-2.4,11.96-.76,22.06,3.83,30.19,6.92,12.27,20.45,20.03,36.5,23.13,40.7,7.86,97.68-14.21,107.36-70.95.13-.76.73-1.35,1.49-1.46.76-.11,1.51.28,1.84.97,25.89,52.68,90.24,43.67,121.65,16.42.56-.49,1.37-.57,2.02-.21.65.36,1.01,1.08.9,1.82-2.52,16.59,8.14,28.01,23.19,33.97,13.94,5.52,31.66,6.4,46.77,2.3,9.93-2.7,18.74-7.55,24.52-14.73,19.45-24.16,39.1-23.68,56.92-23.59.98,0,1.77.8,1.76,1.78,0,.98-.8,1.77-1.78,1.76-16.94-.08-35.67-.68-54.14,22.27-6.22,7.73-15.66,13.02-26.35,15.93-15.83,4.3-34.39,3.35-49-2.43-15.32-6.07-26.3-17.42-25.79-33.48-32.89,25.53-94,32.63-121.48-15.79-12.44,55.31-69.45,76.82-110.55,68.88-17.15-3.31-31.52-11.76-38.92-24.87-4.95-8.79-6.81-19.69-4.21-32.62,3.25-16.17,2.33-27.55-2.41-36.56-6.83-12.97-21.39-21-42.04-31.42,1.65,7.26,4.16,22.57,1.3,37.5-2.44,12.75-8.76,25.21-22.61,32.39-37.54,19.46-79.64,7.39-99.29-6.02,1.08,13.5-2.04,32.54-29.46,49.69-32.27,20.18-70.76,2.4-80.19-1.96-5.85,7.79-23.42,31.69-64.23,29.05-47.78-3.09-65.88-36.63-70.34-46.19" style="fill:#e95c0c; fill-rule:evenodd;"/><path d="M3.45,530.45c-.32-.93-1.32-1.42-2.25-1.1-.92.32-1.42,1.33-1.1,2.25,5.83,17.04,13.44,26.88,21.99,32.2,12.86,8,28.02,5.84,43.18,1.94,12.11-3.11,24.21-7.32,35.04-7.72,10.31-.39,19.41,2.81,26.07,14.21,7.51,12.84,6.36,22,2.74,32.51-3.82,11.06-10.26,23.54-12.9,42.7-4.23,30.68,18.89,60.72,74.21,72.14.76.16,1.53-.2,1.9-.87.38-.67.27-1.52-.25-2.08-11.88-12.64-20.04-23.3-24.79-32.8-4.59-9.18-5.93-17.21-4.26-24.87,1.69-7.73,6.42-15.05,13.77-22.77,7.56-7.94,17.88-16.26,30.6-25.76,13.59-10.15,18.8-18.81,19.32-26.29.4-5.8-1.95-11.01-5.72-15.85-3.55-4.56-8.36-8.8-13.08-12.93-3.79-3.33-7.51-6.59-10.39-9.93-2.66-3.1-4.6-6.24-4.98-9.6-.37-3.27.8-6.7,4.05-10.47,3.56-4.13,9.51-8.57,18.57-13.51,15.3-8.34,37.79-5.75,53.72,3.32,10.4,5.93,18.05,14.64,18.74,25.05.21,3.1-.84,6.43-2.46,9.98-2.62,5.75-6.77,12-10.36,18.63-6.3,11.62-10.8,24.32-3.72,37.37,6.78,12.49,17.75,22.11,26.83,32.32,6.53,7.35,12.07,15,14.04,24.42,1.97,9.41.35,20.56-7.2,34.88-.36.67-.24,1.5.29,2.05.52.55,1.34.7,2.03.38,26.07-12.27,36.2-25.26,38.98-37.76,2.78-12.48-1.82-24.63-5.66-35.51-1.7-4.81-3.24-9.35-3.79-13.55-.51-3.87-.17-7.42,1.86-10.56,1.79-2.77,4.84-5.18,9.57-7.29,14.05-6.24,22.71-12.31,26.56-21.39,3.82-9,2.94-21.11-2.55-39.7-2.11-7.15-1.65-13.06.67-17.76,5.53-11.16,21.17-15.32,36.14-13.14,11.7,1.71,25.59,14.35,25.2,29.21-.26,10.05-7.14,20.94-25.2,30.33-.48.25-.82.7-.92,1.23-.1.53.04,1.07.38,1.48,3.73,4.43,10.62,7.88,18.78,9.27,18.67,3.19,43.87-4.23,50.89-33.95,5.69-24.1,21.51-30.18,32.33-24.96,10.81,5.22,15.71,21.31,0,40.68-4.89,6.04-12.06,18.98-14.72,33.63-2.69,14.83-.78,31.37,12.47,44.37,5.03,4.93,12.27,8.19,19.41,11.85,7.78,3.99,15.47,8.45,19.38,16.71,3.95,8.34,4,20.43-3.09,39.51-.27.72-.04,1.54.57,2.01.61.48,1.46.5,2.09.07,24.78-16.98,38.7-28.88,44.39-42.32,5.73-13.56,3.24-28.79-5.34-52.53-9.47-26.2.51-44.1,14.54-52.19,12.35-7.13,27.81-6.78,35.15,2.55,4.93,6.27,6,16.46.31,30.86-5.63,14.24-6.68,26.84-4.21,38.07,3.7,16.8,15.33,30.6,31.73,42.29,13.56,9.66,19.71,18.72,20.61,27.12,1.34,12.51-8.99,23.12-22.38,31.27-29.32,17.83-27.67,69.81,22.41,92.84.7.32,1.53.15,2.05-.42.52-.57.61-1.41.22-2.08-5.27-9.07-7.9-16.86-7.46-24.58.44-7.71,3.96-15.31,10.77-24.01,9.39-12,24.96-25.98,47.48-44.84,10.27-8.6,15.12-16.61,16.65-24.2,2.29-11.37-2.91-21.93-9.29-32.45-4.06-6.68-8.57-13.36-11.66-20.27-4.45-9.95-5.9-20.41,1.73-32.14,1.88-2.89,4.75-5.39,8.18-7.78,5.43-3.78,12.24-7.27,19.03-11.35,17.61-10.58,35.03-25.02,29.83-57.63-1.41-8.85-.67-16.78,7.2-21.07,7.86-4.29,17.64-2.61,23.6,4.06,8.55,9.55,5.92,23.12,1.31,35.16-3.37,8.81-7.9,16.85-10.45,22.14-1.22,2.52-1.99,4.5-2.14,5.72-2.43,20.81,9.06,32.18,22.09,43.68,11.09,9.79,23.33,19.68,27.83,36.5,2.99,11.21,2.52,25.46-3.89,44.75-.24.72,0,1.51.61,1.97.6.46,1.43.48,2.06.06,30.58-20.57,45.47-38.26,52.16-54.19,6.75-16.08,5.21-30.45,2.72-44.37-3.18-17.75-8.04-34.73,2.57-53.8,1.94-3.49,6.21-6.28,11.56-8.35,8.45-3.28,19.59-4.65,29.37-3.43,9.36,1.16,17.53,4.61,20.4,11.39,1.9,4.48,1.38,10.34-2.44,17.79-1.35,2.64-9.61,17.7-11.76,35.16-2.2,17.8,1.87,38.04,25.42,50.54,25.26,13.4,29.52,31.15,25.65,79.27-.06.76.37,1.48,1.08,1.78.71.29,1.52.1,2.03-.48,21.82-25.26,30.93-42.66,32.9-56.79,1.51-10.81-1.09-19.78-5.55-28.9-4.3-8.8-10.37-17.76-15.95-28.81-2.69-5.32-3.43-9.77-2.74-13.73,1.05-6.04,5.35-10.87,10.61-15.8,9.48-8.88,22.03-17.99,27.24-33.29,3.28-9.65,6.64-16.32,10.12-20.68,3.2-4.01,6.45-5.97,9.83-6.35,3.42-.39,6.92.81,10.53,2.84,3.87,2.19,7.84,5.35,11.9,8.79,6.72,5.69,13.69,12.14,20.89,16.51,5.67,3.44,11.5,5.59,17.45,5.28,5.99-.3,12.16-3.06,18.43-9.68.67-.71.64-1.83-.07-2.5-.71-.67-1.83-.64-2.5.07-5.48,5.78-10.8,8.31-16.04,8.58-5.28.27-10.41-1.73-15.43-4.77-7.05-4.28-13.86-10.61-20.44-16.18-5.12-4.34-10.11-8.22-14.94-10.46-3.46-1.6-6.85-2.37-10.17-2-4.16.47-8.25,2.72-12.2,7.66-3.66,4.59-7.25,11.59-10.71,21.75-5.01,14.7-17.21,23.32-26.31,31.85-5.88,5.51-10.51,11.02-11.68,17.78-.8,4.58-.04,9.76,3.07,15.93,5.57,11.04,11.63,19.98,15.92,28.77,4.15,8.48,6.63,16.8,5.22,26.85-1.8,12.91-9.91,28.56-28.56,50.83,3.23-46.25-2.48-63.75-27.93-77.26-21.88-11.61-25.61-30.44-23.57-46.98,2.08-16.88,10.09-31.43,11.4-33.98,4.45-8.69,4.77-15.56,2.55-20.79-3.3-7.8-12.46-12.19-23.22-13.52-10.35-1.29-22.14.17-31.08,3.64-6.25,2.42-11.11,5.86-13.37,9.94-11.07,19.9-6.28,37.62-2.96,56.15,2.38,13.29,3.95,27.01-2.49,42.37-6.19,14.75-19.72,30.95-46.66,49.74,5.2-17.7,5.28-31.13,2.41-41.87-4.69-17.56-17.32-28.02-28.9-38.24-12.17-10.73-23.19-21.19-20.92-40.61.14-1.21,1.14-3.28,2.5-5.99,3.5-7.01,9.48-17.82,12.49-28.92,2.99-11.06,3.01-22.38-4.59-30.88-7.07-7.9-18.64-9.89-27.94-4.81-9.29,5.08-10.66,14.28-8.99,24.74,4.89,30.62-11.62,44.11-28.15,54.04-6.87,4.12-13.74,7.65-19.23,11.48-3.85,2.68-7.02,5.52-9.13,8.76-8.43,12.97-6.91,24.52-2,35.52,3.15,7.05,7.73,13.86,11.86,20.67,5.9,9.72,10.96,19.4,8.84,29.91-1.41,6.99-6,14.28-15.45,22.19-22.78,19.07-38.49,33.23-47.99,45.37-7.36,9.4-11.04,17.66-11.52,25.99-.39,6.89,1.4,13.86,5.25,21.6-42.05-22.58-43.52-68.07-17.09-84.13,14.7-8.94,25.54-20.94,24.07-34.67-.97-9.1-7.37-19.14-22.07-29.62-15.61-11.12-26.8-24.17-30.32-40.16-2.34-10.63-1.28-22.54,4.04-36.01,7.42-18.77,3.89-31.1-3.99-37.59-4.79-3.94-11.27-5.78-18.17-5.56-10.12.33-21.14,5.1-28.77,13.96-9.01,10.45-13.38,26.62-5.69,47.88,8.16,22.58,10.86,37.04,5.41,49.94-5.15,12.18-17.43,22.9-38.66,37.7,5.68-17.45,5.02-28.95,1.17-37.09-4.26-8.99-12.49-14.01-20.97-18.35-6.8-3.48-13.75-6.52-18.54-11.22-12.3-12.07-13.96-27.45-11.46-41.21,2.53-13.95,9.32-26.28,13.98-32.03,17.79-21.96,11.03-40.18-1.22-46.1-12.25-5.92-30.88.04-37.32,27.33-6.46,27.37-29.65,34.21-46.84,31.27-6.2-1.06-11.62-3.36-15.11-6.47,18.11-10,24.74-21.7,25.01-32.26.43-16.66-15.1-30.89-28.23-32.8-16.57-2.42-33.71,2.72-39.83,15.07-2.66,5.38-3.31,12.15-.9,20.34,5.17,17.47,6.29,28.84,2.69,37.31-3.57,8.39-11.75,13.77-24.74,19.54-7.44,3.3-11.21,7.44-12.81,12.1-2.31,6.75.12,14.83,3.27,23.72,3.64,10.28,8.17,21.74,5.54,33.55-2.45,11.01-11.19,22.19-32.38,33.04,6.02-13.06,7.09-23.56,5.21-32.55-2.1-10.03-7.91-18.23-14.86-26.05-8.9-10.01-19.71-19.4-26.36-31.66-6.44-11.88-2.02-23.41,3.72-33.99,3.63-6.7,7.82-13.03,10.47-18.85,1.89-4.15,3.01-8.07,2.77-11.69-.77-11.53-9.01-21.34-20.53-27.9-16.95-9.66-40.89-12.23-57.17-3.35-9.56,5.21-15.79,9.95-19.55,14.3-4.07,4.72-5.36,9.08-4.89,13.18.37,3.24,1.86,6.34,4.09,9.37,3.12,4.21,7.73,8.28,12.46,12.43,4.54,3.99,9.2,8.05,12.62,12.45,3.2,4.11,5.32,8.5,4.98,13.43-.47,6.82-5.53,14.45-17.9,23.7-12.91,9.64-23.36,18.1-31.04,26.16-7.88,8.28-12.86,16.17-14.67,24.46-1.83,8.37-.46,17.17,4.56,27.21,4.33,8.67,11.42,18.31,21.52,29.47-48.85-11.66-69.81-38.73-65.92-66.96,2.6-18.87,8.98-31.14,12.74-42.03,3.96-11.45,5.16-21.45-3.03-35.45-7.48-12.79-17.68-16.39-29.26-15.96-11.06.41-23.43,4.65-35.79,7.83-14.2,3.65-28.4,5.97-40.43-1.51-8.04-5-15.04-14.34-20.51-30.34" style="fill:#e95c0c; fill-rule:evenodd;"/><path d="M618.45,660.8s.13.03.18.06c.1.04.21.1.32.16.54.32,1.14.83,1.86,1.54,15.3,15.16,21.12,25.24,21.49,33.29.36,7.85-4.59,13.54-10.29,20-8.27,9.37-18.23,20.1-19.08,39.26-1.21,27.42,12.52,43.98,25.35,58.49,12.14,13.73,23.61,25.43,18.71,43.72-.15.54-.02,1.13.33,1.57.35.44.89.69,1.46.66,29.77-1.25,44.67-8.62,51.11-19.63,6.45-11.02,4.5-25.98-.02-42.99-1.67-6.28-.08-11.67,3.48-16.73,3.78-5.39,9.71-10.41,16.46-15.71,21.07-16.52,49.78-35.51,50.14-73.46.06-5.88-1.99-13.45-4.66-21.55-3.86-11.72-9.02-24.58-10.38-34.83-.69-5.22-.43-9.72,1.82-12.87,2.21-3.09,6.31-4.69,12.97-4.57,6.61.12,16.61,4.93,26.25,12.69,14.64,11.78,28.45,30.46,28.16,50.86-.69,47.71,13.01,68.25,27.48,75.54.46.23.99.25,1.46.06.47-.19.84-.58,1.01-1.06,10.16-28.99,25-39.2,38.17-49.31,13.71-10.53,25.7-20.95,29.45-50.67,1.45-11.49-3.75-38.31-3.2-59.18.18-6.7.95-12.77,2.81-17.43,1.69-4.25,4.29-7.29,8.32-8.3,6.72-1.69,11.24-1.82,14.04-.28,2.31,1.27,3.12,3.78,3.07,7.21-.08,6.18-2.98,15.03-7.28,25.91-6.3,15.94-5.02,38.28,1.04,52.55,4.24,10,13.2,16.13,22.27,22.67,12.76,9.19,25.7,19.33,23.68,44.44-1.42,17.7,1.09,50.16,25.7,67.81.57.4,1.31.44,1.92.1.6-.35.95-1.01.88-1.7,0,0-2.51-27.41,24.29-47.31,14.19-10.54,24.94-21.9,28.89-37.33,3.92-15.35,1.14-34.82-12.06-61.71-9.91-20.21,5.69-39.79,22.53-49.61,6.74-3.93,13.72-6.31,19.42-6.47,3.45-.1,6.4.6,8.41,2.43,30.19,27.41,45.71,30.65,45.71,30.65.95.21,1.9-.4,2.1-1.36.21-.96-.4-1.9-1.36-2.1,0,0-14.88-3.31-44.07-29.81-2.62-2.38-6.41-3.47-10.9-3.35-6.19.17-13.79,2.69-21.1,6.95-18.32,10.68-34.71,32.24-23.93,54.23,12.68,25.85,15.58,44.53,11.81,59.28-3.75,14.66-14.09,25.35-27.57,35.36-22.32,16.57-25.45,38.08-25.76,46.69-20.76-17.19-22.69-46.31-21.39-62.45,2.16-26.85-11.5-37.77-25.15-47.6-8.53-6.14-17.09-11.77-21.08-21.18-5.75-13.55-6.98-34.74-1-49.87,3.84-9.72,6.55-17.9,7.31-24.09.56-4.58.03-8.16-1.63-10.64-1.48-2.21-3.86-3.66-7.38-4.12-3.08-.4-7.12-.02-12.29,1.28-7.51,1.89-11.44,9.09-12.98,19.04-1.67,10.76-.65,24.79.58,37.81,1.21,12.72,2.64,24.46,1.81,31.05-3.57,28.34-15.02,38.27-28.09,48.3-13.3,10.21-28.19,20.55-38.65,48.99-13.08-7.74-24.41-27.78-23.77-71.36.31-21.49-14.06-41.26-29.48-53.67-10.4-8.37-21.28-13.34-28.41-13.47-8.25-.15-13.18,2.23-15.92,6.05-2.7,3.77-3.27,9.13-2.44,15.39,1.38,10.43,6.59,23.54,10.52,35.47,2.53,7.67,4.54,14.83,4.48,20.4-.35,36.65-28.44,54.75-48.78,70.7-7.05,5.53-13.22,10.82-17.17,16.46-4.18,5.95-5.96,12.3-4,19.68,4.24,15.94,6.43,29.96.38,40.29-5.88,10.05-19.45,16.34-45.86,17.77,3.73-18.25-7.57-30.55-20.03-44.64-12.3-13.9-25.63-29.71-24.47-55.99.8-18.13,10.37-28.21,18.2-37.07,6.37-7.21,11.57-13.74,11.17-22.51-.39-8.57-6.25-19.51-22.54-35.65-1.38-1.37-2.53-2.17-3.46-2.52-.98-.37-1.83-.35-2.6-.07-1.01.37-1.96,1.3-2.74,2.95-3.05,6.35-5.3,26.12-26.88,47.56-23.97,23.81-37.26,32.61-44.41,47.91-4.46,9.54-6.57,21.61-7.3,41.39-12.18-14.82-17.79-27.53-19.51-38.71-2.77-18.03,4.58-31.97,10.27-44.11,4.04-8.63,7.22-16.42,6.08-24.04-.78-5.21-3.53-10.38-9.46-15.66-12.3-10.94-23.51-12.57-33.63-13.97-7.08-.98-13.6-1.79-19.53-6.17-5.97-4.41-11.28-12.41-16.08-27.51-8.11-25.5-38.09-33.69-59.63-27.45-14.69,4.26-25.4,15.09-23.13,31.38,2.23,16.04,1.61,26.32-1.48,34.03-3.06,7.63-8.53,12.69-15.82,18.43-6.51,5.12-14.43,10.74-23.43,18.92-11.73,10.66-19.76,24.48-18.62,38.05.62,7.4,3.93,14.76,10.9,21.53-18.51-4.63-29.67-12.25-36.38-21.21-7.49-9.99-9.43-21.59-10.09-32.27-.67-10.89,3.99-16.97,7.93-22.93,2.61-3.96,4.93-7.88,5.62-12.84,1.01-7.29-1.52-16.95-12.57-32.55-16.02-22.62-23.77-37.58-23.85-51.79-.05-9.36,3.25-18.37,9.58-29.03,7.32-12.33,6.56-21.32,2.12-27.32-2.69-3.62-6.79-6.21-11.52-7.77-6.86-2.27-15.03-2.4-21.79-.66-6.61,1.7-11.84,5.23-13.62,10.05-1.77,4.82-.29,11.2,7.32,18.66,10.75,10.54,14.99,20.62,15.01,30.05.01,9.43-4.17,18.15-10.03,25.93-12.13,16.09-31.41,28.18-37.71,34.08-7.49,7.02-10.88,13.47-11.56,19.68-1.01,9.21,4.03,18.07,11.21,27.85,16.45,22.39,44.21,50.23,26.75,102.57-14.17-40.46-35.93-53.44-58-63.73-22.23-10.36-44.85-17.8-59.81-49.42-12.59-26.61-4.62-51.83-1.36-69.79,2.39-13.18,2.05-22.67-8.22-26.84-9.08-3.68-15.41.09-23.6,4.02-11.25,5.41-26.37,10.58-59.89-7.95-.85-.47-1.93-.16-2.41.69-.47.86-.16,1.93.69,2.41,35.31,19.53,51.29,13.74,63.14,8.04,7.21-3.47,12.72-7.18,20.73-3.93,4.96,2.01,6.86,5.62,7.21,10.46.26,3.58-.29,7.76-1.14,12.46-3.36,18.51-11.33,44.5,1.64,71.93,15.42,32.6,38.6,40.44,61.52,51.11,22.21,10.35,44.1,23.54,57.76,66.49.23.72.89,1.21,1.64,1.23.76.02,1.44-.44,1.7-1.15,21.49-57.15-8.04-86.96-25.51-110.73-6.58-8.95-11.47-16.94-10.55-25.37.61-5.55,3.77-11.22,10.45-17.48,6.37-5.97,25.84-18.25,38.12-34.53,6.34-8.41,10.76-17.88,10.75-28.07-.02-10.2-4.45-21.18-16.07-32.58-6.17-6.05-7.91-11-6.47-14.91,1.43-3.89,5.84-6.48,11.17-7.85,6.14-1.58,13.56-1.47,19.79.59,4,1.33,7.51,3.45,9.78,6.52,3.82,5.15,3.96,12.82-2.32,23.4-6.72,11.33-10.14,20.92-10.08,30.86.08,14.75,7.89,30.37,24.5,53.82,10.23,14.44,12.88,23.28,11.95,30.02-.61,4.4-2.74,7.85-5.06,11.37-4.3,6.51-9.24,13.2-8.51,25.1.69,11.32,2.85,23.59,10.79,34.18,7.91,10.55,21.59,19.52,45.51,24.1.81.16,1.62-.27,1.96-1.03.33-.76.09-1.64-.57-2.14-9.81-7.23-14.35-15.39-15.05-23.67-1.06-12.57,6.61-25.26,17.47-35.13,10.44-9.49,19.42-15.5,26.4-21.31,7.29-6.08,12.46-11.98,15.02-21.09,2.16-7.66,2.44-17.65.43-32.1-2-14.35,7.66-23.74,20.61-27.49,19.92-5.77,47.77,1.54,55.27,25.12,5.13,16.14,10.97,24.57,17.36,29.29,6.43,4.75,13.47,5.77,21.15,6.83,9.55,1.32,20.15,2.79,31.76,13.11,3.89,3.46,6.26,6.83,7.48,10.23,2.89,8.06-.66,16.13-4.95,25.31-5.94,12.69-13.46,27.31-10.56,46.15,1.93,12.54,8.47,26.99,23.3,43.99.48.55,1.25.75,1.94.5.69-.25,1.15-.89,1.17-1.62.55-21.87,2.46-34.66,7.11-44.6,7.02-15.01,20.18-23.53,43.7-46.9,18.99-18.87,23.47-36.46,26.32-45.21.44-1.35.83-2.47,1.25-3.33.23-.48.66-1.02.75-1.13" style="fill:#e95c0c; fill-rule:evenodd;"/><path d="M148.25,624.52c.02-.57.07-1.19.15-1.88.62-5.49,2.89-14.33,4.24-24.39,3-22.3,1.48-50.29-30.17-62.36-15.15-5.78-28.15-1.6-41.44,2.48-9.45,2.9-19.06,5.74-29.81,4.3-10.73-1.44-22.57-7.16-36.56-21.14-.69-.69-1.81-.69-2.5,0-.69.69-.69,1.81,0,2.5,14.74,14.74,27.28,20.64,38.59,22.15,11.29,1.51,21.39-1.37,31.32-4.42,12.56-3.85,24.82-8.02,39.14-2.56,29.64,11.31,30.72,37.7,27.92,58.58-1.36,10.09-3.62,18.96-4.25,24.46-.33,2.86-.13,4.96.52,6.12.24.42.64.73,1.12.85.47.12.97.03,1.38-.23,15.73-10.12,25.98-18.43,32.27-25.52,6.63-7.46,8.98-13.69,8.85-19.23-.17-7.32-4.78-13.55-10.34-20.07-8.48-9.94-19.25-20.67-16.19-38.61,7-41.09,54.36-51.7,93.53-42.13,23.49,5.74,44.17,18.76,51.47,37.23,4.82,12.19,3.69,26.7-6.24,42.98-4.73,7.74-8.16,13.96-10.2,19.27-2.16,5.61-2.8,10.27-1.89,14.6.9,4.32,3.34,8.35,7.53,12.68,3.96,4.1,9.53,8.5,16.82,13.81.57.42,1.33.45,1.94.1.61-.36.95-1.04.86-1.74-1.95-16.08-2.54-24.55.56-31.57,3.11-7.04,9.89-12.57,22.29-22.9,10.57-8.81,12.52-19.47,11.71-30.54-.51-7.06-2.17-14.29-3.27-21.26-1.31-8.25-1.89-16.13,1.59-22.85,3.48-6.71,11.02-12.13,25.58-15.74,21.14-5.25,36.21-2.93,46.94,3.21,9.94,5.69,16.12,14.62,20,23.61,5.91,13.69,6.5,27.53,6.64,30.69.03.75.54,1.4,1.26,1.62.72.22,1.5-.05,1.94-.66,8.26-11.38,10.92-20.99,13.34-28.72,1.69-5.36,3.2-9.78,6.79-13.13,3.61-3.37,9.27-5.62,19.04-6.87,18.46-2.36,33.12,3.25,41.9,13.25,8.72,9.92,11.58,24.12,6.64,38.85-2.18,6.51-13.13,19.24-20.46,33-5.14,9.64-8.49,19.78-6.45,28.73,2.66,11.67,8.63,17.07,18.42,23.96,9.32,6.56,22.2,14.59,38.98,31.58.56.57,1.42.69,2.12.3.69-.39,1.05-1.19.86-1.96-4.77-19.83-13.87-36.5-19.31-51.34-3.91-10.65-5.94-20.3-2.66-29.5,3.31-9.27,11.95-17.99,29.02-26.87,25.94-13.51,44.41-14.41,56.94-11.27,12.29,3.08,18.75,10.02,20.84,12.27,11.71,12.61,9.26,28.06,6.26,43.43-1.57,8.06-3.33,16.11-3.57,23.77-.24,7.96,1.14,15.5,5.88,22.27,7.47,10.67,17.7,19.44,26.2,28.31,8.12,8.48,14.68,17.02,15.18,27.67.33,7.08-2.04,15.05-8.27,24.53-6.42,9.78-16.89,21.07-32.7,34.51-.68.58-.83,1.57-.34,2.31.48.75,1.45,1.02,2.25.64,35.31-16.85,50.54-34.03,55.48-50.69,4.97-16.74-.43-33.1-6.79-48.45-4.1-9.89-8.59-19.35-10.69-28.21-1.99-8.42-1.8-16.28,3.33-23.39,8.15-11.29,19.69-16.09,29.8-21.22,8.08-4.09,15.28-8.4,19.58-15.8,4.28-7.38,5.75-17.89,2.02-34.55-5.08-22.7,11.02-36.61,31-40.16,18.3-3.25,39.93,2.05,52.24,17.36,8.2,10.2,12.2,24.83,8.39,44.24-1.51,7.73-7.21,22.57-9.09,37.15-1.3,10.11-.74,20.1,3.98,27.71,7.58,12.23,14.1,16.39,19.84,20.98,5.4,4.32,10.02,9.08,14.12,22.26.22.71.86,1.2,1.6,1.24.74.04,1.43-.39,1.72-1.07,6.05-14.07,8.41-21.39,8.09-28.64-.31-7.18-3.3-14.33-8.19-28.04-11.2-31.43,12.84-63.52,42.1-77.88,17.47-8.57,36.88-10.87,51.88-2.65,9.95,5.45,17.89,15.54,22.05,31.37,4.24,16.12-2.46,28.09-8.52,39.31-4.87,9.01-9.32,17.59-8.44,27.2.88,9.58,7.05,20.32,23.89,33.51.62.49,1.49.5,2.12.05.64-.46.9-1.28.64-2.03-7.46-21.3-8.69-34.47-6.07-43.79,2.58-9.15,8.9-14.45,16.28-20.19,6.69-5.2,14.25-10.7,20.99-19.27,2.31-2.94,2.74-6.7,1.95-11.02-1.05-5.74-4.3-12.55-7.15-19.51-3.32-8.09-6.2-16.37-3.51-23.23,2.69-6.86,10.94-11.96,29.22-14.23,14.47-1.8,22.02,3.63,29.84,10.8,12.51,11.46,25.67,27.16,65.25,27.69.98.01,1.78-.77,1.8-1.75.01-.98-.77-1.78-1.75-1.8-38.17-.51-50.84-15.71-62.91-26.76-8.56-7.84-16.85-13.68-32.68-11.71-20.28,2.53-29.09,8.85-32.08,16.46-2.99,7.62-.15,16.88,3.53,25.87,2.75,6.71,5.93,13.27,6.94,18.8.59,3.2.46,6.01-1.25,8.19-6.54,8.3-13.89,13.62-20.38,18.66-8.01,6.22-14.72,12.09-17.52,22.03-2.5,8.88-1.85,21.13,4.17,40.07-12.21-10.52-17.09-19.2-17.82-27.18-.82-8.91,3.51-16.82,8.03-25.19,6.45-11.95,13.35-24.74,8.83-41.9-4.47-16.98-13.1-27.73-23.78-33.58-15.94-8.73-36.58-6.53-55.14,2.58-30.81,15.12-55.67,49.15-43.88,82.25,4.71,13.22,7.68,20.08,7.98,27,.26,6.09-1.58,12.21-6,22.82-4.05-10.91-8.6-15.39-13.78-19.53-5.5-4.4-11.78-8.36-19.04-20.08-4.32-6.97-4.66-16.13-3.47-25.39,1.87-14.49,7.55-29.23,9.06-36.92,4.05-20.7-.37-36.27-9.11-47.14-13.12-16.3-36.12-22.09-55.62-18.62-22,3.91-39.44,19.44-33.84,44.43,3.45,15.42,2.34,25.17-1.62,32-3.95,6.81-10.68,10.65-18.11,14.42-10.58,5.35-22.55,10.5-31.08,22.3-5.77,8-6.15,16.81-3.91,26.28,2.14,9.03,6.68,18.67,10.86,28.75,6.06,14.61,11.39,30.15,6.67,46.08-4.13,13.92-15.91,28.03-41.21,42.12,24.37-22.78,32.34-39.26,31.72-52.58-.54-11.49-7.4-20.81-16.16-29.95-8.38-8.75-18.49-17.37-25.86-27.89-4.28-6.11-5.46-12.95-5.24-20.13.23-7.48,1.97-15.33,3.51-23.2,3.22-16.48,5.42-32.99-7.14-46.52-2.26-2.43-9.25-9.97-22.57-13.3-13.07-3.27-32.38-2.52-59.44,11.57-18.18,9.46-27.2,18.95-30.72,28.83-3.54,9.95-1.56,20.4,2.67,31.91,4.82,13.14,12.55,27.73,17.53,44.7-14.74-14.12-26.25-21.38-34.8-27.4-8.96-6.31-14.57-11.16-17-21.85-2.35-10.32,3.4-22.26,10.01-33,6.96-11.29,14.95-21.28,16.81-26.81,5.39-16.04,2.17-31.5-7.33-42.32-9.44-10.75-25.16-16.96-45.01-14.42-10.82,1.38-17.01,4.06-21.01,7.8-4.02,3.76-5.85,8.64-7.74,14.65-2.04,6.48-4.21,14.34-9.98,23.49-.59-6.22-2.16-16.53-6.58-26.77-4.16-9.64-10.83-19.18-21.5-25.28-11.34-6.49-27.23-9.12-49.56-3.58-15.97,3.97-24.05,10.19-27.87,17.55-3.82,7.36-3.38,15.98-1.94,25.03,1.09,6.87,2.73,14,3.24,20.96.73,9.97-.92,19.62-10.44,27.56-13.02,10.85-19.99,16.79-23.26,24.19-3.01,6.81-2.94,14.92-1.31,29.36-5.5-4.11-9.85-7.65-13.08-11-3.63-3.75-5.83-7.19-6.61-10.94-.78-3.74-.14-7.75,1.73-12.6,1.98-5.15,5.33-11.19,9.92-18.7,10.66-17.46,11.68-33.06,6.51-46.13-7.67-19.42-29.24-33.34-53.93-39.37-41.13-10.05-90.52,1.84-97.87,44.97-3.27,19.22,7.9,30.86,16.99,41.51,4.98,5.83,9.34,11.3,9.49,17.85.12,4.86-2.14,10.24-7.96,16.79-5.84,6.58-15.18,14.21-29.27,23.42" style="fill:#e95c0c; fill-rule:evenodd;"/><path d="M13.11,481.79c-.87-.45-1.94-.12-2.39.75-.45.87-.12,1.94.75,2.39,28.95,15.17,41.59,16.34,58.78,15.15,11.23-.78,24.45-2.61,45.71-2.12.59.01,1.15-.27,1.49-.75,3.32-4.7,25.29-43.68,73.06-56.97,31.93-8.89,75.32-6.24,132.32,25.53,2.06,1.15,4.52.75,8.31-1.44,7.01-4.05,20.05-14.3,49.89-26.03.91-.36,1.36-1.39,1-2.3-.36-.91-1.39-1.36-2.29-1-30.13,11.84-43.3,22.17-50.37,26.26-1.09.63-2.01,1.1-2.83,1.38-.79.27-1.42.36-1.99.04-58.13-32.41-102.43-34.91-135-25.85-46.97,13.07-69.69,50.28-74.48,57.57-20.85-.42-33.93,1.38-45.07,2.15-16.64,1.15-28.86-.06-56.89-14.75" style="fill:#e95c0c; fill-rule:evenodd;"/><path d="M9.98,455.28c-.88-.42-1.94-.03-2.36.85-.42.89-.04,1.94.85,2.36,11.32,5.33,26.76,15.47,66.34,15.22,20.47-.13,26.83-4.83,37.09-13.81,6.58-5.75,14.83-13.34,29.88-22.67.83-.52,1.09-1.61.57-2.44-.51-.83-1.61-1.09-2.44-.57-15.29,9.47-23.67,17.17-30.35,23.01-9.63,8.42-15.59,12.81-34.78,12.93-38.67.24-53.75-9.68-64.81-14.89" style="fill:#e95c0c; fill-rule:evenodd;"/><path d="M17.48,445c-.97-.08-1.83.65-1.9,1.63-.08.98.65,1.83,1.63,1.91,43.28,3.4,44.38,9.64,84.85-5.82.91-.35,1.37-1.38,1.02-2.29-.35-.91-1.37-1.37-2.29-1.02-39.73,15.18-40.81,8.93-83.31,5.6" style="fill:#e95c0c; fill-rule:evenodd;"/><path d="M703.71,533.38c-4.29-12.68-14.17-31.8-43.59-40.09-35.57-10.01-53.49-2.9-64.86-.31-3.36.76-6.07,1.16-8.51.32-2.4-.83-4.44-2.87-6.65-6.68-19.38-33.48-49.29-38.71-75.2-36.74-16.94,1.29-32.12,5.69-41.31,7.06-1.04.15-1.99.2-4.99-1.52-3.62-2.08-9.68-6.43-20.68-15.29-.76-.61-1.88-.49-2.49.27-.61.76-.49,1.88.27,2.49,11.24,9.04,17.43,13.47,21.13,15.6,4.33,2.49,5.78,2.18,7.28,1.95,9.13-1.37,24.21-5.75,41.05-7.03,24.75-1.88,53.36,3.01,71.87,34.98,2.78,4.81,5.53,7.21,8.56,8.26,2.99,1.03,6.32.72,10.45-.22,11.07-2.52,28.51-9.48,63.12.26,37.23,10.48,41.43,39.35,44.1,47.6.23.72.9,1.21,1.66,1.22.76.01,1.44-.46,1.69-1.18.12-.34.24-1.07.3-2.14.1-1.92.14-5.25.39-9.54.84-14.44,4.09-39.93,21.18-58.08,11.35-12.05,28.82-20.79,55.71-20.94,72.97-.39,99.91,50.56,100.44,51.28.32.43.81.69,1.34.71.53.02,1.04-.19,1.4-.58,3.17-3.52,6.72-11.9,18.33-17.73,7.75-3.9,19.08-6.64,36.2-6.14,37.95,1.1,52.38,13.53,55.9,15.48.79.44,1.78.21,2.3-.52.73-1.02,12.97-31.87,56.35-31.6,22.75.14,32.23,7.49,43.92,15.36,12.12,8.16,26.5,16.92,59.17,19.39.98.07,1.83-.66,1.9-1.63.07-.97-.66-1.83-1.63-1.9-31.72-2.4-45.69-10.88-57.46-18.8-12.2-8.22-22.12-15.82-45.87-15.96-40.38-.25-55.12,25.08-58.49,31.59-5.48-3.6-21.05-13.94-55.98-14.95-17.93-.52-29.77,2.44-37.89,6.52-10.43,5.24-14.75,12.35-17.86,16.62-6.1-9.75-35.42-51.03-102.08-50.67-28.15.15-46.39,9.44-58.27,22.05-17.76,18.85-21.27,45.3-22.13,60.3-.02.31-.03.62-.05.92" style="fill:#e95c0c; fill-rule:evenodd;"/><path d="M1157.32,470.35c.97.07,1.82-.67,1.89-1.64.07-.98-.67-1.82-1.64-1.89-31.71-2.2-56.41-17.61-80.15-26.18-24.45-8.82-47.88-10.65-76.49,15.06-6.87,6.18-11.52,8.66-15.88,8.73-2.84.05-5.52-.94-8.57-2.42-5.6-2.73-12.32-7.12-22.81-10.9-7.8-2.81-18.96-1.73-29.85.82-14.43,3.38-28.37,9.25-32.97,11.25-18.36-18.7-17.23-20.24-39.97-35.17-.82-.54-1.92-.31-2.45.51-.54.82-.31,1.92.51,2.45,22.77,14.94,21.26,16.3,40.25,35.56.52.52,1.3.67,1.97.38,2.78-1.23,17.84-7.87,33.48-11.54,10.16-2.38,20.56-3.56,27.84-.93,10.33,3.72,16.94,8.06,22.46,10.75,3.62,1.76,6.81,2.84,10.18,2.78,4.95-.08,10.38-2.62,18.19-9.64,27.28-24.52,49.62-22.77,72.92-14.36,24.01,8.67,49.03,24.16,81.1,26.38" style="fill:#e95c0c; fill-rule:evenodd;"/><path d="M728.77,443.58c.73-.65.79-1.77.13-2.5-.65-.73-1.77-.79-2.5-.14-19.15,17.18-19.98,16.8-33.74,37.23-21.79-14.68-63.38-19.98-90.38-8.48-33.19-32.38-34.79-30.05-47.01-34.99-.91-.37-1.94.07-2.3.98-.37.91.07,1.94.98,2.31,12.04,4.87,13.47,2.58,46.71,35.07.52.51,1.3.65,1.97.35,26.53-11.94,68.66-6.4,89.45,8.68.39.28.88.4,1.35.31.47-.09.89-.36,1.16-.76,14.48-21.59,14.89-20.77,34.17-38.06" style="fill:#e95c0c; fill-rule:evenodd;"/><path d="M612.57,451.77c-.12-.02-.62-.1-.99-.21-.86-.28-1.89-.75-3.02-1.34-5.65-2.94-13.54-8.65-14.57-9.4-.79-.57-1.9-.4-2.47.39-.57.79-.4,1.9.39,2.48,1.07.77,9.19,6.65,15.02,9.67,1.93,1,3.64,1.69,4.83,1.89.86.14,1.56.05,2.07-.16,30.57-12.78,31.93-12.24,76.64-.68.64.16,1.31-.04,1.75-.52l11.07-12.15c.66-.72.6-1.84-.12-2.5-.72-.66-1.84-.61-2.5.12l-10.35,11.36c-44.96-11.62-46.63-11.95-77.76,1.06" style="fill:#e95c0c; fill-rule:evenodd;"/><path d="M6.67,604.88c-.89-.4-1.94,0-2.34.9-.4.89,0,1.94.9,2.34,27.2,12.11,38.76,9.58,47.95,6.26,5.7-2.05,10.42-4.55,17.85-3.59,1.3.17,1.84,1.17,2.1,2.65.61,3.45-.27,8.96-1.41,15.86-4.7,28.35-14.25,78.74,40.92,108.91,41.14,22.5,60.7,32.49,70.55,49.31,6.53,11.15,8.75,25.29,10.34,48.01,2.58,36.98,37.5,43.55,45.27,46.75.9.37,1.94-.06,2.31-.96.37-.9-.06-1.94-.97-2.31-7.33-3.01-40.65-8.84-43.08-43.71-1.64-23.46-4.07-38.03-10.81-49.55-10.07-17.19-29.88-27.64-71.91-50.63-53.23-29.11-43.65-77.87-39.12-105.22,1.23-7.42,2.06-13.36,1.4-17.07-.59-3.3-2.23-5.16-5.14-5.54-6.16-.79-10.65.49-15.17,2.16-9.7,3.57-19.57,8.84-49.64-4.55" style="fill:#e95c0c; fill-rule:evenodd;"/><path d="M255.64,867.28c.49.84,1.58,1.12,2.42.63.84-.5,1.13-1.58.63-2.42-19.13-32.55-14.06-55.7-8.45-77.7,5.82-22.8,12.15-44.4-5.22-73.37-1.58-2.64-23.28-24.49-30.87-44.16-2.83-7.32-3.72-14.32-.32-19.71,2.26-3.58,6.4-6.37,12.92-8.15,6.36-1.73,11.24-1.54,14.99.25,5.63,2.69,8.55,8.9,10.23,16.77,2.23,10.51,2.11,23.96,2.1,36.86,0,13.24.11,25.92,2.79,34.48,10.13,32.43,26.49,42.7,41.36,53.24,14.28,10.13,27.09,20.55,30.95,52.86.08.7.57,1.28,1.25,1.48.67.21,1.4,0,1.86-.54,18.34-21.45,24.98-38.71,26.2-53.08,1.22-14.4-3.03-25.94-6.63-35.97-4.45-12.36-8.05-22.28,3.24-32.68,5.83-5.37,13.06-9.01,20.03-12.91,8.55-4.79,16.72-10,21.86-18.83,5.13-8.81,7.3-21.27,3.61-40.7-1.09-5.71-1.29-10.18-.78-13.58.45-3.03,1.44-5.15,2.9-6.44,2.74-2.41,6.9-1.8,11.2.3,7.21,3.51,14.77,11.43,17.8,19.94,6.2,17.38,9.4,26.57,15.16,33.35,5.78,6.8,14.15,11.22,30.87,18.85,16.08,7.34,16.33,22.52,14.62,39.27-.9,8.82-2.38,18.1-2.72,27.02-.35,9.2.54,18.03,4.39,25.71,6.55,13.09,15.45,20.88,22.39,28.42,4.88,5.3,8.76,10.45,9.82,17.52,1.08,7.18-.74,16.26-7.05,29.31-.33.68-.19,1.5.35,2.04.54.53,1.37.66,2.04.32,2.84-1.44,16.62-8.45,27.47-20.66,7.36-8.27,13.35-18.9,13.89-31.77.47-11.25.09-19.6.12-26.41.03-6.53.43-11.59,2.47-16.5,2.53-6.08,7.54-11.89,17.21-19.95,2.89,40.43,5.62,41.57,31.97,75.05,6.15,7.81,9.46,12.85,11.21,17.3,2.61,6.64,1.68,11.9,1.74,22.89,0,.98.8,1.77,1.78,1.76.98,0,1.77-.8,1.76-1.78-.06-11.61.77-17.16-1.99-24.17-1.84-4.67-5.27-10-11.73-18.19-26.41-33.55-28.54-33.79-31.46-76.52-.04-.66-.45-1.24-1.06-1.5-.61-.26-1.31-.17-1.82.24-12.08,9.75-17.99,16.51-20.9,23.51-2.2,5.31-2.7,10.78-2.74,17.84-.04,6.78.34,15.08-.12,26.28-.5,11.99-6.15,21.86-12.99,29.56-7.46,8.39-16.35,14.21-21.82,17.37,4.91-11.42,6.16-19.78,5.15-26.53-1.17-7.79-5.34-13.54-10.72-19.39-6.74-7.34-15.45-14.88-21.82-27.61-3.58-7.15-4.34-15.41-4.02-23.99.33-8.85,1.81-18.05,2.71-26.8,1.87-18.39.97-34.8-16.67-42.86-16.01-7.31-24.1-11.4-29.64-17.92-5.56-6.54-8.54-15.47-14.52-32.24-3.34-9.36-11.66-18.07-19.59-21.93-5.8-2.82-11.41-3.02-15.1.23-1.6,1.41-2.89,3.5-3.63,6.4-1.01,3.92-1.06,9.46.37,16.95,3.47,18.25,1.63,29.98-3.19,38.25-4.81,8.26-12.53,13.04-20.53,17.52-7.22,4.04-14.67,7.84-20.7,13.4-12.62,11.64-9.15,22.66-4.17,36.49,3.46,9.61,7.6,20.66,6.43,34.47-1.11,13.15-7.05,28.76-22.79,48.01-4.6-30.7-17.54-41.15-31.88-51.32-14.37-10.19-30.24-20.06-40.03-51.41-2.59-8.3-2.64-20.6-2.63-33.42.01-13.16.1-26.88-2.18-37.6-1.93-9.12-5.64-16.11-12.16-19.23-4.36-2.08-10.04-2.49-17.45-.47-7.61,2.08-12.34,5.5-14.98,9.68-3.95,6.25-3.27,14.37.01,22.87,7.67,19.89,29.54,42.04,31.14,44.71,16.73,27.9,10.43,48.71,4.83,70.67-5.81,22.76-10.96,46.7,8.83,80.37" style="fill:#e95c0c; fill-rule:evenodd;"/><path d="M929.66,705.22c.36-.43,1.88-2.22,3.73-3.9,3.6-3.29,9.23-7.56,15.45-9.8,3.95-1.43,8.14-2.04,12.17-.92,6.9,1.92,13.1,8.85,17.09,24.48.78,3.04-.23,10.16-.95,18.97-1.13,13.91-1.67,31.8,5.03,45.22,6.38,12.77,12.58,20.56,16.65,27.01,2.81,4.46,4.59,8.19,4.43,12.66-.16,4.59-2.31,9.89-7.08,17.4-.41.65-.36,1.49.14,2.09.49.59,1.31.8,2.03.5,11.12-4.52,19.52-7.63,25.93-10.8,6.71-3.31,11.3-6.72,14.62-11.69,4.32-6.48,6.45-15.73,8.02-31.37,2.16-21.49,18.14-31.39,32.25-42.52,14.96-11.79,28.03-24.8,23.13-52.26-.52-2.88-6.53-17.92-7.47-32.36-.53-8.18.53-16.19,5.6-21.35,3.33-3.39,8.4-5.48,15.76-5.64,11.15-.25,17.18,1.4,20.28,5.25,3.11,3.86,3.17,9.7,2.86,17.24-.66,16.36-3.61,40.27,11.25,69.94.44.87,1.51,1.23,2.38.79.87-.44,1.23-1.5.79-2.38-14.49-28.93-11.52-52.26-10.88-68.22.35-8.61-.1-15.21-3.65-19.61-3.55-4.41-10.33-6.85-23.12-6.57-8.53.19-14.34,2.77-18.21,6.7-3.87,3.94-5.82,9.29-6.47,15.21-1.85,16.72,6.74,38.09,7.37,41.61,4.59,25.72-7.83,37.82-21.84,48.86-14.84,11.7-31.31,22.35-33.58,44.95-1.49,14.81-3.35,23.61-7.45,29.76-2.99,4.49-7.19,7.5-13.24,10.48-5.37,2.65-12.16,5.26-20.8,8.72,3.3-5.95,4.76-10.55,4.91-14.61.18-5.17-1.72-9.53-4.97-14.68-4.02-6.37-10.16-14.07-16.47-26.7-6.43-12.85-5.75-30.02-4.67-43.34.76-9.35,1.67-16.9.85-20.13-4.46-17.46-11.86-24.87-19.57-27.01-4.74-1.32-9.68-.68-14.32,1-6.68,2.41-12.76,6.98-16.63,10.52-2.22,2.02-3.73,3.73-4.28,4.52-.18.25-.29.46-.35.61l-.16.52c-.53,3.46-2.35,6.33-4.9,9-2.74,2.87-6.29,5.48-10.11,8.2-12.12,8.63-26.65,18.32-28.25,38.87-1.28,16.46-1.95,25.11-5.61,32.14-3.3,6.34-9.01,11.32-19.6,19.6,1.39-9.57.61-16.47-1.5-21.92-2.45-6.33-6.73-10.77-11.77-15.15-9.43-8.19-21.64-16.23-28.06-38.34-4.36-15.04.69-30.29,1.48-43.77.42-7.2-.32-13.93-3.92-19.92-3.58-5.95-10.01-11.22-21.17-15.44-.62-.23-1.32-.1-1.81.34-.49.44-.7,1.12-.54,1.76,9.44,36.88,9.82,52.5-2.57,75.44-10.47,19.4-25.4,27.86-36.41,37.64-5.8,5.15-10.55,10.65-13.21,18.07-2.65,7.37-3.26,16.66-.64,29.46,5.4,26.37-.55,26.18-12.95,49.6-.46.86-.13,1.94.73,2.39.87.46,1.94.13,2.4-.74,12.98-24.51,18.94-24.38,13.3-51.97-2.35-11.5-2.01-19.97.22-26.73,3.35-10.15,10.91-16.38,19.53-23.26,10.06-8.02,21.55-16.83,30.16-32.78,12.42-23.01,12.65-38.88,3.74-74.61,7.89,3.43,12.84,7.46,15.8,12.03,5.02,7.75,4.29,16.92,2.95,26.77-1.59,11.68-4.09,24.26-.48,36.7,6.69,23.05,19.31,31.49,29.14,40.03,4.59,3.99,8.55,7.98,10.79,13.75,2.25,5.82,2.74,13.41.55,24.51-.14.72.18,1.46.8,1.85.63.39,1.43.35,2.02-.11,13.54-10.49,20.36-16.22,24.18-23.57,3.82-7.34,4.66-16.33,6-33.5,1.5-19.27,15.4-28.16,26.77-36.26,8.16-5.81,15.04-11.33,16.4-19.22" style="fill:#e95c0c; fill-rule:evenodd;"/><path d="M1152.7,768.81c.77.6,1.89.45,2.48-.32.6-.78.45-1.89-.32-2.48-35.88-27.6-31.77-58.05-29.07-79.5.75-5.96,1.39-11.26,1.12-15.66-.22-3.61-1.04-6.64-2.76-9.03-1.75-2.44-4.44-4.26-8.5-5.24-2.2-.53-3.94-.35-5.3.32-1.34.65-2.37,1.79-3.08,3.38-.85,1.94-1.23,4.65-1.21,7.95.07,10.02,3.72,25.89,5.31,40.55,1.02,9.41,1.21,18.3-1.18,24.65-7.06,18.76-17.66,24.58-28.03,32.07-10.87,7.85-21.56,17.4-28.16,43.9-3.83,15.38-12.86,21.71-21.52,26.54-6.18,3.44-12.18,6.2-16.29,10.55-10.01,10.61-7.1,21.22-2.27,29.12,3.03,4.95,6.82,8.77,8.31,10.69.6.77,1.71.91,2.49.32.77-.6.91-1.71.31-2.49-1.45-1.87-5.15-5.56-8.09-10.37-4.12-6.73-6.71-15.79,1.83-24.84,3.88-4.11,9.59-6.64,15.43-9.89,9.37-5.22,19.09-12.13,23.23-28.77,6.29-25.27,16.43-34.4,26.79-41.88,10.86-7.85,21.88-14.03,29.27-33.69,2.55-6.77,2.47-16.25,1.39-26.28-1.57-14.52-5.22-30.25-5.29-40.19-.01-2.28.16-4.23.63-5.74.35-1.12.84-1.97,1.67-2.38.75-.37,1.71-.35,2.92-.06,3.06.74,5.14,2.03,6.46,3.87,1.36,1.89,1.93,4.32,2.1,7.18.25,4.21-.38,9.29-1.1,15-2.81,22.34-6.95,54.01,30.43,82.75" style="fill:#e95c0c; fill-rule:evenodd;"/><path d="M969.98,872.41c.38.9,1.42,1.32,2.32.94.9-.38,1.32-1.43.94-2.32-3.67-8.62-4.38-14.18-3.59-18.29.77-4.05,2.98-6.62,4.91-9.32,1.81-2.54,3.41-5.17,3.89-8.78.68-5.16-.97-12.52-8.39-24.96-9.78-16.42-10.74-27.21-9.78-40.14.66-8.87,2.2-18.71,2.53-31.88.14-5.94-.79-11.72-2.98-15.82-1.63-3.03-3.94-5.2-6.96-6.07-2.91-.84-6.54-.5-10.96,1.71-6.01,2.99-13.69,9.55-23.26,21.21-11.55,14.08-13.4,34.56-16.17,50.47-.89,5.08-1.87,9.67-3.35,13.38-1.35,3.38-3.09,6-5.69,7.42-2.19,1.2-11.39,4.62-18.92,10.54-5.31,4.17-9.77,9.57-10.79,16.2-.85,5.53.65,11.98,6.25,19.35,5.31,6.99,14.41,14.9,28.84,23.73.83.51,1.93.25,2.43-.59.51-.83.25-1.93-.58-2.44-13.92-8.53-22.74-16.11-27.87-22.85-4.84-6.36-6.3-11.88-5.57-16.66.88-5.74,4.87-10.33,9.47-13.95,7.33-5.76,16.3-9.05,18.43-10.21,2.64-1.45,4.67-3.8,6.24-6.9,2.16-4.25,3.48-9.95,4.6-16.41,2.68-15.38,4.27-35.23,15.43-48.84,9.11-11.12,16.37-17.43,22.1-20.29,3.4-1.69,6.16-2.12,8.39-1.48,2.12.61,3.68,2.21,4.82,4.34,1.95,3.64,2.69,8.79,2.56,14.06-.32,13.1-1.86,22.89-2.52,31.7-1.02,13.6-.02,24.95,10.27,42.22,6.76,11.35,8.54,17.97,7.92,22.68-.39,2.97-1.77,5.1-3.26,7.19-2.2,3.08-4.62,6.09-5.51,10.71-.88,4.57-.27,10.78,3.81,20.35" style="fill:#e95c0c; fill-rule:evenodd;"/><path d="M880.47,868.87c.91.36,1.94-.09,2.3-1,.36-.91-.09-1.94-1-2.3-15.75-6.22-28.16-10.09-36.6-19.73-8.42-9.62-12.78-24.95-12.87-53.85-.05-15.48-8.76-31.86-22.32-35.34-9.03-2.32-20.38.92-32.86,14.31-14.49,15.55-10.53,31.19-6.72,48.7,3.59,16.52,6.89,34.8-8.22,56.41-.56.8-.36,1.91.44,2.47.8.56,1.91.36,2.47-.44,15.86-22.69,12.54-41.85,8.78-59.19-3.55-16.36-7.68-31.02,5.85-45.54,11.23-12.05,21.27-15.38,29.39-13.3,12.16,3.12,19.61,18.04,19.66,31.92.09,30.19,4.96,46.13,13.75,56.17,8.78,10.02,21.58,14.22,37.96,20.69" style="fill:#e95c0c; fill-rule:evenodd;"/><path d="M603.03,868.15c-.26.94.3,1.92,1.24,2.18.94.26,1.92-.3,2.17-1.24.43-1.58,3.02-11.14,2.13-20.21-.57-5.77-2.55-11.31-7.09-14.77-3.03-2.31-7.21-3.73-12.97-3.58-.66.02-7.35,1.08-14.26,4.5-7.02,3.47-14.19,9.36-15.78,18.75-1.33,7.84,1.23,18.3,11.61,32.02.59.78,1.7.93,2.48.34.78-.59.93-1.7.34-2.48-9.52-12.59-12.16-22.09-10.94-29.29,1.39-8.16,7.76-13.15,13.86-16.16,6.21-3.07,12.19-4.12,12.79-4.13,4.75-.12,8.22.95,10.72,2.86,3.75,2.87,5.24,7.53,5.71,12.3.84,8.5-1.62,17.45-2.02,18.93" style="fill:#e95c0c; fill-rule:evenodd;"/><path d="M498.5,871.76c.26.94,1.24,1.49,2.18,1.23.94-.26,1.49-1.24,1.23-2.18-5.36-19.22-4.8-19.18-3.73-39.05.62-11.47-5.01-17.47-11.19-24.2-4.23-4.61-8.72-9.61-11.1-17.48-2.4-7.95-2.65-18.77,1.46-34.93,3.15-12.37,2.52-21.15-.25-27.77-4.14-9.91-13.17-15.05-22.23-19.97-9.23-5.02-18.53-9.78-21.31-20.53-2.23-8.61-4.31-13.24-6.1-15.13-1.25-1.33-2.52-1.66-3.67-1.47-.94.16-1.91.74-2.78,1.8-.92,1.11-1.81,2.85-2.64,5-3.12,8.05-5.67,22.46-8.44,28.53-4.68,10.25-14.14,17.48-22.25,26.26-8.53,9.23-15.67,20.06-15.18,37.19.97,34.07,4.58,49.32-36.44,102.48-.6.77-.46,1.89.32,2.49.77.6,1.89.45,2.48-.32,41.92-54.32,38.17-69.92,37.17-104.74-.55-19.27,9.34-29.97,19.25-39.84,6.98-6.95,13.97-13.51,17.87-22.04,2.79-6.11,5.38-20.61,8.52-28.72.57-1.47,1.15-2.71,1.76-3.61.19-.28.39-.53.59-.72.13-.12.23-.24.37-.26.09-.02.14.09.24.17.27.22.54.54.82.96,1.43,2.11,2.96,6.19,4.68,12.87,3.04,11.77,12.95,17.26,23.05,22.75,8.35,4.54,16.83,9.09,20.65,18.23,2.54,6.08,2.98,14.16.08,25.53-4.34,17.04-3.96,28.45-1.42,36.83,2.56,8.46,7.32,13.88,11.88,18.85,5.54,6.04,10.82,11.32,10.26,21.61-1.11,20.45-1.67,20.42,3.85,40.2" style="fill:#e95c0c; fill-rule:evenodd;"/><path d="M313.07,870.06c-.03.98.75,1.79,1.73,1.82.98.02,1.79-.75,1.81-1.73.05-2.01.39-15.39-.55-25.61-.42-4.6-1.13-8.59-2.17-10.76-6.8-14.24-17.66-21.67-26.85-22.61-6.54-.67-12.33,1.84-15.64,7.42-5.6,9.43-4.21,17.74.08,27.97,4.03,9.61,10.67,21.02,15.82,37.09.3.93,1.3,1.44,2.23,1.15.93-.3,1.45-1.3,1.15-2.23-5.19-16.19-11.86-27.69-15.93-37.38-3.8-9.07-5.27-16.43-.3-24.79,2.58-4.35,7.13-6.23,12.24-5.7,8.29.85,17.89,7.78,24.02,20.61.92,1.93,1.47,5.48,1.84,9.56.92,10.05.59,23.21.54,25.19" style="fill:#e95c0c; fill-rule:evenodd;"/><path d="M168.11,865c-.21.96.4,1.9,1.36,2.11s1.9-.4,2.1-1.36c3.25-15.07,5.23-27.03,5.45-36.75.23-10.05-1.43-17.78-5.4-24.14-3.96-6.35-10.25-11.36-19.46-15.88-8.93-4.38-20.66-8.33-35.71-12.72-26.61-7.76-60.37-45.95-61.61-88.64-.08-2.61-.61-20.31-6.73-34.15-3.19-7.23-7.92-13.38-14.71-16.12-6.76-2.72-15.66-2.13-27.34,4.54-.85.48-1.14,1.57-.66,2.42.49.85,1.57,1.14,2.42.66,10.38-5.93,18.25-6.75,24.26-4.33,5.97,2.4,9.99,7.92,12.8,14.26,5.88,13.3,6.35,30.31,6.42,32.82,1.28,44.34,36.52,83.87,64.16,91.94,14.81,4.32,26.36,8.19,35.14,12.5,8.5,4.17,14.36,8.72,18.02,14.57,3.65,5.84,5.07,12.96,4.86,22.18-.21,9.55-2.18,21.28-5.37,36.08" style="fill:#e95c0c; fill-rule:evenodd;"/><path d="M11.81,675.33c-.97.09-1.69.95-1.6,1.93.09.97.95,1.69,1.93,1.6,8.84-.81,14.69.68,18.61,4.08,6.02,5.23,7.47,14.65,8.61,25.94,1.81,18,2.51,40.6,15.86,59.99,8.95,13.01,23.56,24.61,48.04,32.39,17.79,5.65,27.37,12.55,32.44,20.67,5.06,8.1,5.61,17.35,5.62,27.51,0,9.09-.44,18.9,1.14,29.29.15.97,1.05,1.63,2.02,1.48.97-.15,1.63-1.05,1.48-2.02-1.55-10.2-1.09-19.83-1.1-28.76-.01-10.86-.75-20.72-6.16-29.38-5.39-8.64-15.45-16.16-34.37-22.17-23.51-7.47-37.6-18.53-46.19-31.02-12.97-18.85-13.49-40.85-15.26-58.34-1.25-12.36-3.22-22.54-9.81-28.26-4.49-3.9-11.13-5.86-21.26-4.93" style="fill:#e95c0c; fill-rule:evenodd;"/><path d="M8.96,832.12c-.83.51-1.1,1.6-.59,2.44.51.83,1.6,1.1,2.44.59,13.32-8.14,19.82-16.78,22.09-25.6,3.39-13.12-2.67-26.83-10.34-40.37-6.13-10.83-13.25-21.58-16.8-31.89-3.36-9.78-3.42-19.14,4.27-27.73,1.61-1.8,3.1-2.62,4.61-2.43,1.16.15,2.25.85,3.34,1.9,1.31,1.26,2.56,3.01,3.77,5.11,10.16,17.56,17.26,58.59,18.79,62.13,11.14,25.75,21.17,31.93,33.57,36.46,7.95,2.91,16.96,5.07,28.05,11.57,17.02,9.99,21.2,25.23,21.87,38.16.46,8.92-.71,16.8-.67,21.32,0,.98.81,1.76,1.79,1.76.98,0,1.76-.81,1.75-1.79-.04-4.56,1.13-12.49.67-21.47-.72-13.93-5.29-30.29-23.61-41.04-11.32-6.64-20.51-8.88-28.63-11.84-11.71-4.28-21.02-10.24-31.54-34.54-1.54-3.56-8.75-44.82-18.97-62.5-2.97-5.14-6.35-8.32-9.73-8.76-2.46-.32-5.08.65-7.7,3.58-8.67,9.68-8.77,20.22-4.98,31.24,3.61,10.49,10.82,21.45,17.06,32.48,7.19,12.69,13.17,25.45,9.99,37.74-2.1,8.13-8.24,15.96-20.51,23.46" style="fill:#e95c0c; fill-rule:evenodd;"/><path d="M62.22,825.97c16.62,1.49,27.32,11.81,34.05,22.35,6.85,10.73,9.63,21.71,10.27,24.23.24.95,1.2,1.52,2.15,1.28.95-.24,1.52-1.2,1.28-2.15-.67-2.63-3.57-14.08-10.72-25.27-7.26-11.36-18.87-22.4-36.82-23.98-.47-.04-5.75.6-11.69,3.11-5.89,2.48-12.42,6.77-15.62,13.74-4.17,9.08-2.83,23.03,14.12,43.88.62.76,1.73.88,2.49.26.76-.62.87-1.73.26-2.49-15.6-19.19-17.49-31.81-13.65-40.17,2.81-6.11,8.62-9.77,13.78-11.95,4.73-1.99,8.96-2.73,10.06-2.83.01,0,.02,0,.04,0" style="fill:#e95c0c; fill-rule:evenodd;"/><path d="M51.65,866.14c-.1.97.61,1.84,1.58,1.94.97.1,1.84-.61,1.94-1.58.11-1.1.95-9.54,3.9-15.02.99-1.83,2.17-3.35,3.8-3.83.98-.3,2.1-.15,3.38.46,5.89,2.83,8.25,7.95,9.21,13.24,1.04,5.71.51,11.62.62,15.52.03.98.85,1.75,1.82,1.72.98-.03,1.75-.84,1.72-1.82-.12-4.03.4-10.15-.68-16.06-1.16-6.33-4.1-12.39-11.16-15.79-2.25-1.08-4.22-1.18-5.94-.66-2.43.73-4.41,2.8-5.89,5.54-3.22,5.96-4.19,15.14-4.31,16.34" style="fill:#e95c0c; fill-rule:evenodd;"/><path d="M379.47,865.72c-.21.96.4,1.9,1.36,2.11.95.21,1.9-.4,2.11-1.35,9.81-45.1,13.79-44.91,9.38-90.63-1.52-15.69,10.91-33.05,24.9-42.04,9.03-5.8,18.75-8.23,25.77-3.85,3.71,2.31,6.58,6.53,8.21,13,1.73,6.86,2.05,16.17.45,28.38-.92,7.06-2.28,12.33-3.07,17.02-.84,4.98-1.04,9.32.39,14.31,1.85,6.45,6.52,14.04,16.54,25.6,17.61,20.32,4.62,45.4,4.41,46.15-.27.94.27,1.92,1.21,2.2.94.27,1.92-.27,2.19-1.21.23-.8,13.75-27.66-5.14-49.45-9.52-10.99-14.05-18.13-15.81-24.26-1.27-4.44-1.04-8.32-.3-12.75.79-4.72,2.15-10.04,3.09-17.15,1.67-12.78,1.28-22.52-.53-29.71-1.91-7.58-5.42-12.43-9.77-15.14-8.03-5.01-19.23-2.77-29.56,3.88-15.05,9.67-28.14,28.49-26.51,45.36,4.36,45.17.37,44.97-9.32,89.53" style="fill:#e95c0c; fill-rule:evenodd;"/><path d="M448.37,869.71c-.27.94.28,1.92,1.22,2.19.94.27,1.92-.28,2.18-1.22,4.54-16.05,6.27-24.82,3.98-32.39-2.29-7.56-8.62-14.02-20.69-25.37-6.61-6.22-8.03-13.58-7.54-20.76.52-7.58,3.1-14.97,4.33-20.79.95-4.51.99-8.19-.63-10.61-1.65-2.47-5.11-3.97-11.76-3.34-7.61.72-12.67,3.45-15.92,7.27-3.26,3.82-4.72,8.8-5,14.19-.79,15.3,8.14,34.01,9.34,36.51,6.46,13.48,2.69,23.45-.84,33.9-3.79,11.23-7.37,22.98.15,39.53.41.89,1.46,1.28,2.35.88.89-.4,1.28-1.46.88-2.35-7.03-15.46-3.56-26.43-.02-36.92,3.81-11.27,7.65-22.03.68-36.56-1.14-2.38-9.74-20.2-8.99-34.8.24-4.57,1.4-8.83,4.16-12.07,2.76-3.24,7.11-5.43,13.56-6.04,2.57-.24,4.54-.17,6.03.23,1.15.31,1.96.81,2.45,1.55.53.79.71,1.81.72,2.98.02,1.45-.23,3.11-.61,4.93-1.25,5.96-3.86,13.52-4.4,21.28-.56,8.16,1.13,16.5,8.65,23.58,11.4,10.72,17.57,16.68,19.72,23.82,2.15,7.12.27,15.32-4,30.4" style="fill:#e95c0c; fill-rule:evenodd;"/><path d="M421.63,868.8c.17.96,1.1,1.6,2.06,1.43.96-.17,1.6-1.1,1.43-2.06-.21-1.18-2.36-12.86-1.2-20.04.2-1.25.5-2.35.96-3.18.29-.52.63-.93,1.13-1.06.92-.24,2.07.26,3.64,1.35,3.1,2.16,3.41,4.63,3.36,9.19-.06,5.36-.73,13.26.45,25.92.09.97.96,1.69,1.93,1.6s1.69-.96,1.6-1.93c-1.4-15.06-.16-23.32-.5-28.6-.27-4.15-1.41-6.71-4.82-9.09-2.75-1.92-4.93-2.29-6.54-1.88-1.15.3-2.11.99-2.87,2.03-.89,1.21-1.5,2.98-1.84,5.07-1.24,7.61.98,19.99,1.21,21.24" style="fill:#e95c0c; fill-rule:evenodd;"/><path d="M575.93,865.07c0,.98.8,1.77,1.78,1.77.98,0,1.77-.8,1.77-1.78,0-.33-.58-4.28.06-7.54.24-1.2.58-2.33,1.41-2.88.81-.53,1.95-.32,3.64.53,2.33,1.17,4.07,4.21,5.46,7.44,2.29,5.32,3.47,11.32,3.68,12.39.19.96,1.12,1.58,2.08,1.4.96-.19,1.58-1.12,1.4-2.08-.22-1.13-1.48-7.47-3.91-13.11-1.76-4.07-4.18-7.72-7.12-9.2-3.3-1.66-5.61-1.36-7.18-.32-1.54,1.02-2.5,2.94-2.94,5.15-.7,3.56-.13,7.87-.13,8.23" style="fill:#e95c0c; fill-rule:evenodd;"/><path d="M788.06,873.54c-.62.76-.5,1.88.25,2.49.76.62,1.88.51,2.49-.25,14.89-18.25,12.7-34.37,8.75-49.07-2.49-9.29-5.76-17.97-5.35-26.24.36-7.23,5.94-10.47,10.13-9.22,1.63.49,2.99,1.7,3.59,3.62,1.45,4.59,1.04,9.82.98,15.68-.09,9.4.6,20.32,9.66,32.73,11.13,15.25,16.34,19.15,19.65,37.65.17.96,1.09,1.6,2.06,1.43.96-.17,1.6-1.09,1.43-2.06-3.43-19.19-8.73-23.29-20.28-39.11-8.47-11.61-9.06-21.82-8.98-30.61.06-6.27.4-11.86-1.15-16.77-1.97-6.24-8.83-7.94-14.2-4.91-3.37,1.9-6.16,5.68-6.44,11.39-.43,8.61,2.87,17.66,5.47,27.33,3.69,13.75,5.85,28.85-8.07,45.91" style="fill:#e95c0c; fill-rule:evenodd;"/><path d="M935.38,747.62c.13.1.38.29.55.48.53.6,1.08,1.48,1.69,2.66,5,9.73,7.07,30.87,6.1,48.51-.39,7.04-1.26,13.53-2.66,18.51-.87,3.1-1.92,5.59-3.22,7.18-8.32,10.1-10.61,16.67-9.49,21.72.77,3.5,3.16,6.42,6.68,9.34,7.82,6.48,21.5,13.25,32.03,30.08.52.83,1.61,1.08,2.44.56.83-.52,1.08-1.61.56-2.44-10.79-17.26-24.75-24.28-32.77-30.93-2.82-2.34-4.87-4.57-5.48-7.37-.45-2.06-.11-4.39,1.15-7.24,1.39-3.17,3.86-6.9,7.62-11.46,3.7-4.5,6.01-15.28,6.69-27.74,1.01-18.31-1.3-40.23-6.48-50.32-.95-1.85-1.85-3.11-2.65-3.87-.79-.75-1.57-1.11-2.27-1.22-1.2-.19-2.36.24-3.39,1.48-.91,1.1-1.77,3.06-2.52,5.69-2.58,9.06-4.32,26.8-7.35,41.24-1.18,5.62-2.54,10.74-4.25,14.59-1.04,2.34-2.17,4.19-3.51,5.3-7.73,6.44-13.43,11.61-17.04,16.36-2.57,3.38-4.1,6.57-4.65,9.82-.68,4.1.18,8.32,2.78,13.19,2.42,4.55,6.39,9.73,11.98,16,.65.73,1.77.8,2.5.15.73-.65.8-1.77.14-2.5-5.35-6.01-9.18-10.95-11.5-15.31-2.15-4.05-2.98-7.54-2.41-10.94.58-3.47,2.58-6.81,5.84-10.54,3.48-3.97,8.37-8.3,14.62-13.5,3.02-2.52,5.45-7.99,7.32-14.92,4.08-15.13,5.94-37.43,8.93-47.97.42-1.47.85-2.69,1.33-3.6.21-.39.55-.8.7-.97" style="fill:#e95c0c; fill-rule:evenodd;"/><path d="M1031.7,867.1c.07.98.91,1.71,1.89,1.65.98-.07,1.71-.91,1.65-1.89-.45-6.47-.04-10.7,1.62-14.11,1.66-3.4,4.54-5.94,8.82-9.13,6.1-4.55,14.94-10.25,27.17-20.73,1.01-.87,2.57-3.79,4.5-7.99,4.08-8.89,10.41-23.79,19.13-34.38,7.85-9.52,17.66-15.56,29.65-9.28,13.43,7.03,18.83,22.4,20.92,39.13,1.94,15.51.97,32.24.43,45.07-.37,8.86-.51,15.93.52,19.64.26.94,1.23,1.5,2.18,1.24.94-.26,1.5-1.24,1.24-2.18-.97-3.51-.74-10.18-.39-18.55.55-13,1.51-29.95-.46-45.66-2.24-17.96-8.37-34.28-22.79-41.83-13.71-7.18-25.06-.72-34.03,10.16-8.93,10.83-15.45,26.07-19.62,35.16-1.03,2.25-1.91,4.12-2.65,5.41-.37.65-.66,1.13-.93,1.36-12.15,10.4-20.92,16.06-26.98,20.58-4.84,3.61-8.01,6.57-9.89,10.42-1.87,3.84-2.48,8.6-1.97,15.9" style="fill:#e95c0c; fill-rule:evenodd;"/><path d="M1122.49,868.44c-.44.87-.08,1.94.79,2.38.87.44,1.94.08,2.38-.79,3.44-6.88,11.04-19.18,14.4-32.31,3.5-13.65,2.49-28.16-11.61-38.8-8.29-6.26-14.39-7.35-19.17-5.57-4.72,1.76-8.34,6.49-11.67,12.59-3.08,5.65-5.99,12.48-9.7,18.84-3.56,6.11-7.86,11.78-13.86,15.37-9.49,5.67-14.23,9.9-16.68,14.06-1.92,3.25-2.49,6.49-2.69,10.39-.18,3.58-.05,7.75-.56,13.14-.09.97.63,1.84,1.6,1.93.97.09,1.84-.62,1.93-1.6.51-5.44.38-9.67.56-13.29.17-3.29.59-6.04,2.2-8.78,2.26-3.83,6.72-7.6,15.45-12.82,6.51-3.89,11.23-9.99,15.1-16.62,3.72-6.38,6.65-13.25,9.75-18.93,2.85-5.23,5.75-9.46,9.79-10.96,3.98-1.48,8.9-.13,15.8,5.07,12.74,9.62,13.48,22.77,10.32,35.1-3.29,12.85-10.77,24.88-14.14,31.6" style="fill:#e95c0c; fill-rule:evenodd;"/><path d="M1086.44,868.07c.04.98.87,1.73,1.85,1.69.97-.04,1.73-.87,1.69-1.85-.64-14.12,3.93-19.56,9.17-24.94,5.73-5.87,12.14-11.69,14.3-26.83.4-2.83,1.3-4.64,2.6-5.55,1.92-1.34,4.47-.42,6.51,1.4,3.51,3.14,5.55,9.25,1.43,14.98-4.91,6.82-10.37,11.32-14.52,15.67-4.55,4.78-7.57,9.42-7.19,16.21.31,5.56,3,12.68,9.43,22.72.53.82,1.62,1.06,2.45.54.82-.53,1.06-1.62.54-2.45-5.97-9.31-8.59-15.85-8.88-21.01-.32-5.71,2.39-9.54,6.22-13.57,4.24-4.45,9.81-9.07,14.82-16.05,6.34-8.82,1.49-18.29-4.43-21.45-2.86-1.52-5.96-1.62-8.41.09-1.89,1.32-3.49,3.82-4.08,7.95-2.01,14.05-8.02,19.41-13.33,24.86-5.8,5.94-10.89,11.96-10.18,27.57" style="fill:#e95c0c; fill-rule:evenodd;"/><path d="M322.78,498.04c-5.76-6.09-21.51-20-42.47-30.5-24.12-12.08-55.09-19.61-85.6-5.79-13.42,6.08-31.77,16.13-43.4,28.98-7.35,8.12-12.03,17.35-11.44,27.39-21.31-6.82-35.22-4.28-48.26-.91-8.73,2.26-17.05,4.92-27.07,5.2-29.97.82-55.53-22.93-55.99-23.26-.8-.56-1.9-.38-2.47.42-.57.8-.38,1.91.42,2.47.47.34,27.06,24.76,58.13,23.91,10.3-.28,18.87-2.98,27.86-5.31,13.02-3.37,26.95-5.88,48.84,1.71.59.2,1.24.08,1.72-.32.48-.4.71-1.02.62-1.63-1.57-10.08,3-19.26,10.27-27.29,11.32-12.5,29.18-22.22,42.24-28.13,29.43-13.33,59.29-5.92,82.55,5.73,23.34,11.69,40.09,27.68,43.12,31.63.32.42.82.67,1.35.69.53.02,1.04-.21,1.39-.6.09-.1.43-.73.94-1.86,3.34-7.42,20.17-42.1,67.83-45.18,41.02-2.65,57.4,22.84,62.05,28.81.5.64,1.38.86,2.12.53,6.24-2.78,45.49-23.18,78.14-2.77,28.41,17.76,29.18,37.59,27.38,50.26-.1.72.24,1.43.87,1.79.63.36,1.42.3,1.98-.15,17.19-13.74,60.45-27.96,98.77-8.09,12.76,6.62,18.51,18.16,20.76,29.91,3.44,17.99-1.23,36.54-2.2,39.65-.21.68,0,1.42.55,1.88.54.46,1.31.55,1.94.23,23.35-11.73,39.58-20.48,47.06-34.69,5.05-9.59,6.21-21.69,2.75-38.9-2.4-11.96-.76-22.06,3.83-30.19,6.92-12.27,20.45-20.03,36.5-23.13,40.7-7.86,97.68,14.21,107.36,70.95.13.76.73,1.35,1.49,1.46.76.11,1.51-.28,1.84-.97,25.89-52.68,90.24-43.67,121.65-16.42.56.49,1.37.57,2.02.21.65-.36,1.01-1.08.9-1.82-2.52-16.59,8.14-28.01,23.19-33.97,13.94-5.52,31.66-6.41,46.77-2.3,9.93,2.7,18.74,7.55,24.52,14.73,19.45,24.16,39.1,23.68,56.92,23.59.98,0,1.77-.8,1.76-1.78,0-.98-.8-1.77-1.78-1.76-16.94.08-35.67.68-54.14-22.27-6.22-7.73-15.66-13.02-26.35-15.93-15.83-4.3-34.39-3.35-49,2.43-15.32,6.07-26.3,17.42-25.79,33.48-32.89-25.53-94-32.63-121.48,15.79-12.44-55.31-69.45-76.82-110.55-68.88-17.15,3.31-31.52,11.76-38.92,24.87-4.95,8.79-6.81,19.69-4.21,32.62,3.25,16.17,2.33,27.55-2.41,36.56-6.83,12.97-21.39,21-42.04,31.42,1.65-7.26,4.16-22.57,1.3-37.5-2.44-12.75-8.76-25.21-22.61-32.39-37.54-19.46-79.64-7.39-99.29,6.02,1.08-13.5-2.04-32.54-29.46-49.69-32.27-20.18-70.76-2.4-80.19,1.96-5.85-7.79-23.42-31.69-64.23-29.05-47.78,3.09-65.88,36.63-70.34,46.19" style="fill:#e95c0c; fill-rule:evenodd;"/></g></svg>